<?xml version="1.0" encoding="UTF-8"?>
<svg id="logohat" version="1.1" viewBox="0 15 297 180" xmlns="http://www.w3.org/2000/svg">
 <defs>
  <linearGradient id="linearGradient4441" x1="-359.49" x2="-286.38" y1="207.01" y2="190.2" gradientTransform="matrix(-.51819 0 0 -.51787 -100.06 289.65)" gradientUnits="userSpaceOnUse">
   <stop offset="0"/>
   <stop stop-color="#333" offset=".48752"/>
   <stop offset="1"/>
  </linearGradient>
 </defs>
 <g transform="matrix(.41667 0 0 .41667 119.17 94.521)" style="stroke-width:2.4">
  <path d="m-138.91 92.49c-7.3155-1.0222-14.138-4.9873-18.633-10.829-2.5416-3.303-4.2518-7.1516-5.1778-11.652-0.78796-3.8294-0.62889-8.9686 0.3972-12.832 1.3314-5.0133 3.806-9.3486 7.4127-12.987 3.2023-3.2299 7.7856-5.8296 12.309-6.9815 2.921-0.74389 7.9042-0.98827 11.174-0.54796 4.3468 0.58542 9.9748 2.7327 12.342 4.7089l0.87192 0.72791-2.9751 4.2323c-1.6363 2.3278-3.7971 5.396-4.8018 6.8183l-1.8267 2.586-0.71119-0.48852c-2.2723-1.5609-5.9682-2.3598-8.8491-1.9128-7.3704 1.1436-11.24 9.1603-7.883 16.333 1.0039 2.1452 2.8658 3.9894 5.1761 5.1267 1.7704 0.87156 1.9499 0.90477 4.8917 0.90477 2.9077 0 3.137-0.04096 4.7924-0.8559 1.6966-0.83526 4.2034-2.7839 4.2034-3.2676 0-0.13314-1.0716-0.24209-2.3812-0.24209h-2.3812v-11.112h20.638v17.864l-1.0361 1.5853c-4.2602 6.5186-10.563 10.876-18.014 12.453-2.2531 0.47699-7.3515 0.6741-9.5369 0.36875zm6.7587-7.4097c5.3193-0.75766 10.381-3.7577 13.537-8.023l1.1472-1.5505v-10.525h-8.7312v2.1167h6.35v8.1256l-1.6536 1.8058c-2.0773 2.2684-4.9257 4.1435-7.7045 5.0716-1.9214 0.64177-2.5469 0.71967-5.8554 0.72914-4.1322 0.01191-6.1802-0.44416-9.2604-2.0618-2.3061-1.2111-5.8561-4.8311-7.1007-7.2408-2.7716-5.3659-2.7642-12.502 0.0187-18.071 1.3266-2.6546 4.4804-5.8604 7.0939-7.2108 3.1754-1.6407 5.4849-2.13 9.3645-1.9839 2.3469 0.08836 3.8118 0.28402 4.9849 0.66584l1.6613 0.54071 0.64207-0.94489c0.35314-0.51969 0.58904-1.0307 0.52423-1.1355-0.0648-0.10486-1.1013-0.46733-2.3034-0.80548-3.1535-0.88711-8.6749-0.89934-11.696-0.02588-3.5941 1.0393-6.0522 2.4979-8.7784 5.2093-2.064 2.0528-2.5883 2.7629-3.6216 4.9054-1.5596 3.2339-2.0278 5.0316-2.2185 8.5188-0.48446 8.8574 3.5005 15.995 11.049 19.792 4.0959 2.0599 8.1096 2.731 12.55 2.0985zm73.819 7.3976c-7.9888-1.1043-14.287-4.4911-18.769-10.092-4.2455-5.3062-6.2113-11.725-5.8921-19.239 0.32905-7.7457 2.8264-13.541 8.1086-18.815 3.5497-3.5447 7.7271-5.8295 13.125-7.1788 2.0013-0.50023 3.1068-0.59372 7.131-0.60303 5.0996-0.0118 6.9574 0.25336 11.112 1.5861 2.3336 0.74849 7.3171 3.1064 7.8031 3.692 0.24654 0.29706-0.52603 1.841-3.835 7.664-2.7052 4.7605-4.251 7.2296-4.4528 7.1124-0.16999-0.09875-0.78533-0.49549-1.3674-0.88164-1.0477-0.69504-3.1051-1.5683-4.8948-2.0776-5.6656-1.6123-11.813 0.87759-14.292 5.789-2.9038 5.7524-0.67305 12.211 5.2278 15.135 2.1667 1.0737 2.3898 1.1271 5.0878 1.2195 4.0974 0.14023 7.2465-0.7919 10.14-3.0016l1.2047-0.91988 0.51307 0.85693c0.28219 0.4713 2.1533 3.7539 4.158 7.2946 4.2074 7.4311 4.1492 6.5765 0.58587 8.604-2.2884 1.3021-6.8621 2.9162-9.9219 3.5017-2.5716 0.49202-8.3916 0.68321-10.774 0.35393zm10.286-7.9205c1.146-0.30271 2.6651-0.84505 3.3759-1.2052l1.2923-0.65484-1.0605-2.0788-1.6782 0.78531c-3.2912 1.5401-8.097 1.996-12.292 1.166-3.1843-0.62997-7.1348-2.687-9.2153-4.7984-4.9732-5.0472-6.5617-12.57-4.1715-19.756 0.83488-2.5099 2.7711-5.4827 4.7475-7.289 1.8286-1.6713 5.5464-3.5546 8.1685-4.138 1.4999-0.33369 2.8736-0.41843 5.5066-0.33969 3.0412 0.09095 3.814 0.21022 5.806 0.8961l2.2978 0.79118 1.1326-2.0151-0.99078-0.41398c-0.54492-0.22768-1.8933-0.66215-2.9964-0.96548-2.7779-0.76386-8.8336-0.81387-11.531-0.09523-3.9002 1.0392-7.0977 2.9149-9.8217 5.7614-3.85 4.0232-5.6442 8.6306-5.65 14.509-0.01066 10.805 7.1855 18.822 18.382 20.478 1.7506 0.25892 6.6695-0.10152 8.6982-0.63741zm41.308 8.0433c-2.5894-0.20119-5.5949-0.63476-8.2682-1.1927l-2.712-0.56608v-15.995l2.5797 0.61875c3.2152 0.77121 8.2617 1.2985 9.9724 1.0419 1.6882-0.25315 2.7937-1.2949 2.7937-2.6324 0-1.2753-0.87426-2.216-5.5721-5.9953-4.0123-3.2279-5.4169-4.6379-7.0079-7.0348-1.9235-2.8979-2.7658-5.6669-2.7658-9.0922 0-6.0244 2.8526-10.719 8.0384-13.229 2.8024-1.3564 6.2584-2.1094 9.6886-2.1109 2.2618-0.0011 8.475 0.57424 9.988 0.92466l0.59531 0.13788v14.683l-3.6971-0.0045c-3.6507-0.0044-3.7059 0.0043-4.4006 0.69796-1.1268 1.1251-0.77393 1.7096 2.8742 4.7607 6.1239 5.1216 8.4672 8.0532 10.079 12.61 0.7366 2.0818 0.8137 2.6018 0.81172 5.4753-0.0037 5.26-1.2503 8.6633-4.3135 11.775-1.3873 1.4094-2.2731 2.029-4.2645 2.9831-1.3824 0.66228-3.347 1.3872-4.3656 1.6108-1.8852 0.41389-7.6557 0.72043-10.054 0.53409zm7.9942-7.9949c3.6133-1.1267 5.8007-3.142 6.7295-6.2 0.81023-2.6676 0.60537-4.8725-0.70133-7.5487-0.91138-1.8665-1.5138-2.5535-7.1236-8.1243-6.3535-6.3094-7.3097-7.5359-7.6893-9.8634-0.27982-1.7154 0.28194-3.6234 1.4175-4.8145 1.3589-1.4253 3.0127-1.8586 7.0939-1.8586h3.2593v-1.0237c0-0.97741-0.044873-1.0311-0.99219-1.1877-1.7602-0.29094-4.9412-0.18045-6.5009 0.22579-4.3484 1.1326-6.2438 3.1869-6.4705 7.0127-0.14626 2.468 0.17785 3.6996 1.5202 5.7764 1.4055 2.1747 2.6175 3.4598 7.0593 7.4853 3.971 3.5988 6.1783 6.2309 6.8352 8.1505 0.22053 0.64439 0.39979 1.9541 0.39836 2.9104-0.00476 3.1947-1.5972 5.4596-4.6721 6.6451-1.9737 0.76094-6.5761 0.96845-9.9507 0.44868-1.2772-0.19672-2.3786-0.30136-2.4474-0.23254-0.06884 0.06884-0.12515 0.52499-0.12515 1.0136 0 1.0869 0.37902 1.2651 3.4794 1.6351 3.0554 0.3647 6.8906 0.17026 8.8804-0.45024zm91.874 7.8663c-4.3183-0.55848-9.3618-2.6141-12.929-5.2697-7.2811-5.42-11.405-13.589-11.399-22.581 0.0026-3.4669 0.29295-5.4774 1.221-8.4469 3.507-11.222 13.634-19.082 25.368-19.688 19.292-0.99631 33.873 17.323 28.546 35.863-3.8293 13.327-16.972 21.911-30.807 20.122zm9.265-7.9181c5.7373-1.6156 10.526-5.6264 13.101-10.973 1.6135-3.3503 2.0864-5.4405 2.0652-9.1281-0.0405-7.0483-3.2529-13.064-9.1608-17.156-4.6233-3.2021-11.726-4.3407-17.111-2.743-6.7126 1.9917-11.923 7.0212-14.174 13.681-0.56798 1.6807-0.74216 2.777-0.84564 5.3227-0.14634 3.6 0.25191 6.0101 1.5 9.0769 2.0992 5.1583 7.2432 9.9332 12.557 11.656 3.5928 1.1646 8.4892 1.2717 12.068 0.26387zm-9.9852-2.0749c-6.3343-1.6122-11.327-6.4842-13.32-12.999-0.77224-2.5235-0.8295-6.8992-0.12467-9.525 1.7424-6.4913 6.8782-11.599 13.319-13.246 2.52-0.64451 6.6138-0.68256 9.0435-0.08404 2.3741 0.58482 5.9464 2.4665 7.7728 4.0943 6.5751 5.8603 8.1442 15.724 3.6942 23.223-2.1698 3.6561-6.3409 6.977-10.392 8.2737-2.4877 0.79632-7.3927 0.92612-9.9925 0.26442zm9.0479-7.5263c4.5071-2.0826 7.0016-6.271 6.7122-11.27-0.3724-6.433-6.5422-11.385-12.914-10.365-4.6858 0.75031-8.4584 4.2356-9.5066 8.7825-1.2588 5.4602 2.0355 11.317 7.449 13.243 2.1611 0.76893 6.1585 0.57968 8.2592-0.391zm-372.12-10.368v-26.855l14.155 0.0116 6.9958 10.315c3.8477 5.6734 7.0753 10.225 7.1726 10.114 0.0972-0.11049 3.2498-4.755 7.0058-10.321l6.829-10.12h14.198v53.71h-17.191l-0.0694-9.6758-0.0694-9.6758-5.4071 7.956c-2.9739 4.3758-5.4234 7.956-5.4432 7.956-0.0199 0-2.4682-3.5665-5.4408-7.9256-2.9726-4.3591-5.494-7.9309-5.6031-7.9375-0.10914-0.0066-0.19844 4.3339-0.19844 9.6454v9.6573h-16.933v-26.855zm10.119 2.0673 0.0679-18.438 8.9458 13.014c4.9202 7.1577 8.9907 13.014 9.0456 13.014 0.0549 0 4.066-5.7983 8.9136-12.885l8.8138-12.885 0.136 36.618h2.3776v-41.039l-2.451 0.16128-8.7943 12.965c-4.8369 7.1305-8.8942 12.952-9.0162 12.936-0.12203-0.01561-4.1887-5.8497-9.037-12.965l-8.8151-12.936-2.3676-0.16128v41.039h2.1131zm48.234 23.006c0.3655-0.9843 4.9329-13.041 10.15-26.793l9.4852-25.003 12.897-0.1383 10.054 26.501c5.5298 14.576 10.093 26.662 10.14 26.858 0.0704 0.29403-1.3865 0.35713-8.2463 0.35713h-8.3319l-0.46463-1.2568c-0.25554-0.69122-0.66807-1.7926-0.91674-2.4474l-0.45213-1.1906-16.385-0.13973-0.90485 2.4511-0.90486 2.4511-16.784 0.13973zm12.047-6.5521 0.70271-1.8521 26.673-0.13708 1.4777 3.9735h1.2023c0.84606 0 1.1686-0.098 1.0886-0.33073-0.0625-0.1819-3.5578-9.4123-7.7674-20.512l-7.6537-20.181-3.3621 0.14584-7.2535 19.05c-3.9894 10.478-7.4902 19.682-7.7796 20.454l-0.52608 1.4036 2.4954-0.16142zm2.2439-5.887c3.7087-9.8638 11.595-30.403 11.731-30.553 0.12405-0.13679 11.245 28.549 12.409 32.008 0.088 0.26149-2.498 0.33073-12.35 0.33073h-12.461zm15.401-2.7781c-1.4326-3.9733-3.5394-9.1331-3.6699-8.9882-0.14357 0.15938-0.83634 1.9186-3.4354 8.7237l-0.22737 0.59531h3.7259c2.868 0 3.6985-0.07615 3.6067-0.33073zm76.792-9.8557v-26.855h17.992v53.71h-17.992zm10.319 0v-20.505h-2.3812v41.01h2.3812zm115.62 0v-26.855h17.198v18.256h9.7896v-18.256h16.933v53.71h-16.927l-0.06935-9.988-0.06932-9.988-9.6573-0.14422v20.12h-17.198zm10.319 10.319v-10.186h23.548v20.373h2.1167v-41.01h-2.1167v18.521h-23.548v-18.521h-2.3812v41.01h2.3812zm109.56 15.941c-0.12364-0.32742-4.067-12.263-8.763-26.524s-8.5938-26.08-8.6618-26.263c-0.0984-0.26601 1.7285-0.32002 8.9498-0.26458l9.0734 0.06965 3.0137 9.2282c1.6575 5.0755 3.1098 9.1236 3.2272 8.9958 0.11743-0.12781 1.5661-4.3103 3.2193-9.2944l3.0058-9.062h11.653l3.0058 9.062c1.6532 4.9841 3.0991 9.1638 3.2132 9.2883 0.11409 0.12447 1.5818-3.9237 3.2617-8.9958l3.0543-9.2221 9.0093-0.06962c4.9551-0.03829 9.0018 0.02125 8.9926 0.13229-9e-3 0.11105-3.9718 12.168-8.8058 26.793l-8.789 26.591-13.232 0.14112-2.6359-7.9577c-1.4497-4.3767-2.7549-7.9603-2.9005-7.9634-0.14553-0.0032-1.4295 3.5758-2.8534 7.9532l-2.5888 7.959h-13.224zm13.511-22.423c2.8864-9.0951 5.2802-16.633 5.3196-16.751 0.0393-0.11806 2.4632 7.3233 5.3863 16.536l5.3148 16.751 2.1583 0.16108 6.6541-20.16c3.6597-11.088 6.7161-20.322 6.792-20.52 0.10379-0.27047-0.16134-0.35936-1.0718-0.35936h-1.2097l-6.0175 18.256c-3.3096 10.041-6.082 18.254-6.1608 18.251-0.0788-0.0026-2.1619-6.4023-4.6291-14.221-7.7559-24.58-7.055-22.538-7.4216-21.625-0.17524 0.43656-2.8065 8.6805-5.8473 18.32-3.0408 9.6394-5.5899 17.527-5.6648 17.529-0.0748 0.0026-2.8462-8.2129-6.1584-18.254l-6.0223-18.256h-2.3354l0.36656 1.1245c0.20161 0.61846 3.239 9.8522 6.7499 20.519l6.3833 19.395 2.1659-0.16086z" style="fill:#6f3175;stroke-width:2.4"/>
  <path d="m146.06 29.34c-4.662-0.28526-13.78-1.7227-19.248-3.0343l-2.4474-0.58706v-32.898l1.6983 0.47093c2.7715 0.76852 9.3376 2.0536 12.869 2.5186 4.8295 0.63596 11.102 0.64819 12.889 0.025135 2.4783-0.86386 3.7692-2.6513 3.7573-5.2024-0.0114-2.4155-2.0374-4.5731-10.56-11.245-9.727-7.615-14.306-12.635-17.617-19.315-2.4363-4.9149-3.075-7.5126-3.2363-13.162-0.14656-5.1321 0.14673-7.6598 1.3125-11.311 2.8684-8.9848 8.9896-15.188 18.518-18.767 8.7508-3.287 17.964-3.5496 36.262-1.0337l2.3151 0.31832v30.771l-2.8443-0.35667c-3.4758-0.43587-9.5287-0.48611-11.272-0.09355-2.5238 0.56839-3.8756 1.7425-3.8756 3.3663 0 1.8499 0.47482 2.36 8.2021 8.8125 5.57 4.6511 10.911 9.8508 12.911 12.569 3.3778 4.5911 6.0901 10.059 7.2957 14.708 2.1442 8.2681 1.053 18.475-2.7695 25.907-5.0902 9.896-15.157 15.925-29.134 17.447-2.3381 0.25468-11.46 0.31111-15.026 0.09294zm13.534-15.676c5.7315-0.98652 9.2701-2.6872 12.668-6.088 3.4744-3.4778 5.1106-7.1687 5.4584-12.313 0.30276-4.4785-0.81224-8.4598-3.5575-12.703-2.8926-4.4708-5.6717-7.4882-12.492-13.563-13.795-12.288-17.658-18.009-16.706-24.741 0.42794-3.0261 1.3634-4.912 3.3655-6.7849 3.2819-3.0701 8.0755-3.9774 17.64-3.3388l3.1088 0.20758v-4.4793l-4.1672-0.31117c-13.173-0.98362-21.84 3.2541-24.008 11.739-2.2672 8.8703 1.6101 16.327 14.417 27.729 9.3659 8.3377 12.496 11.612 15.16 15.854 2.0327 3.2377 2.6951 5.4495 2.6767 8.9375-0.0254 4.8211-1.3121 8.0974-4.2648 10.86-2.6881 2.5146-6.2574 4.064-10.952 4.7543-4.1266 0.60675-14.516-0.052996-19.15-1.2161l-0.66773-0.16759v2.2598c0 1.922 0.0692 2.2809 0.46302 2.401 0.4594 0.14013 7.2853 1.1214 9.062 1.3027 3.099 0.31628 9.1386 0.14557 11.946-0.33766zm-429.72-41.949v-55.166l28.972 0.001587 14.379 21.166c7.9086 11.641 14.457 21.16 14.552 21.153 0.0951-0.0068 6.5927-9.5318 14.439-21.167l14.266-21.154h29.014v110.33h-35.186l-0.1356-39.799-10.949 16.129c-6.022 8.8709-11.083 16.274-11.247 16.452-0.22658 0.24609-2.9816-3.596-11.54-16.094l-11.243-16.417-0.0678 19.864-0.0678 19.864h-35.186zm20.967 4.2243 0.067-37.712 18.383 26.752c17.955 26.128 18.394 26.739 18.833 26.196 0.24768-0.30587 8.525-12.359 18.394-26.785l17.944-26.229 0.134 75.49h4.4961v-83.873l-4.6302 0.014-36.719 54.211-5.2685-7.732c-2.8977-4.2526-11.186-16.447-18.417-27.099l-13.149-19.367-4.6302-0.02798v83.873h4.4961zm97.418 50.48c0.0843-0.25572 9.4823-25.051 20.884-55.101l20.731-54.636h26.347l20.729 54.636c11.401 30.05 20.797 54.846 20.88 55.101 0.14324 0.44079-0.74515 0.46141-17.103 0.39688l-17.255-0.06807-1.4153-3.8365c-0.7784-2.1101-1.6045-4.3425-1.8358-4.9609l-0.42049-1.1245h-33.515l-0.42049 1.1245c-0.23127 0.61846-1.0574 2.8509-1.8358 4.9609l-1.4153 3.8365-17.255 0.06807c-16.359 0.06453-17.247 0.04394-17.101-0.39688zm25.491-15.494c0.58105-1.4993 1.2762-3.3448 1.5448-4.101l0.48837-1.375h54.52l0.48837 1.375c0.2686 0.75627 0.96378 2.6017 1.5448 4.101l1.0565 2.726h2.3537c1.2946 0 2.3537-0.07617 2.3537-0.16927s-0.54829-1.6111-1.2184-3.3734c-0.67013-1.7623-7.5877-19.932-15.372-40.378-7.7847-20.446-14.389-37.799-14.676-38.563l-0.5216-1.3891h-6.5385l-0.52107 1.3891c-0.28658 0.76398-5.4846 14.426-11.551 30.361s-12.984 34.105-15.373 40.379c-2.3886 6.274-4.3429 11.483-4.3429 11.576 0 0.09251 1.0592 0.16821 2.3537 0.16821h2.3537zm3.7611-9.8201c0-0.060854 5.669-14.973 12.598-33.139s12.674-33.23 12.767-33.477c0.10504-0.27895 4.9679 12.141 12.845 32.808 6.972 18.291 12.729 33.406 12.794 33.588 0.0935 0.26311-5.1083 0.33073-25.443 0.33073-14.058 0-25.561-0.049789-25.561-0.11064zm33.073-8.4527c0-0.16107-7.1839-18.795-7.3919-19.173-0.11591-0.21086-1.6548 3.4464-3.8408 9.1281-2.0061 5.214-3.7054 9.6288-3.7763 9.8107-0.10129 0.25988 1.4925 0.33073 7.44 0.33073 4.1629 0 7.5689-0.0435 7.5689-0.096668zm52.388-6.5179v-40.746h-20.373v-28.84h76.729v28.84h-20.373v81.492h-35.983zm20.373-12.435v-39.952h23.548v-3.9688h-51.858v3.9688h23.548v79.904h4.7625zm42.069-1.9844v-55.166h34.925v37.571h20.108v-37.571h35.19v110.33h-35.186l-0.06776-20.439-0.06779-20.439-19.976-0.13866v41.017h-34.925zm20.902 21.034v-20.902h48.419v41.804h4.4979v-83.873h-4.4979v37.835h-48.419v-37.835h-4.4979v83.873h4.4979z" style="fill:#bb383f;stroke-width:2.4"/>
  <path d="m-11.03-93.264c-3.1421-0.2267-7.7065-1.1952-10.787-2.2889-2.8713-1.0193-8.2056-3.8493-10.974-5.8217-8.3619-5.9586-14.594-15.606-16.989-26.302-0.5415-2.4182-0.61286-3.4299-0.61286-8.6899 0-5.2706 0.07071-6.269 0.61676-8.7081 3.9842-17.797 17.114-30.579 34.97-34.043 3.777-0.73268 11.858-0.67918 15.503 0.10264 4.6988 1.008 7.2951 1.8897 11.088 3.7656 4.6689 2.3092 7.9612 4.6553 11.503 8.1974 5.9828 5.9828 10.043 13.484 11.957 22.089 0.50821 2.2853 0.58857 3.4321 0.59317 8.4643 0.0045 5.051-0.07287 6.1795-0.58568 8.5326-2.9522 13.546-11.14 24.24-23.192 30.29-3.3388 1.6763-5.2422 2.3943-8.525 3.2162-4.7119 1.1796-9.4246 1.5664-14.566 1.1955zm9.0009-11.747c11.42-1.9915 20.96-10.002 24.737-20.772 1.3331-3.8008 1.7519-6.3259 1.7554-10.583 0.0026-2.6423-0.1397-4.5111-0.4558-6.0038-2.5927-12.244-11.253-21.513-23.203-24.833-2.0612-0.57265-3.2754-0.72339-6.7469-0.83756-4.6607-0.15329-6.6766 0.0666-10.338 1.1275-6.5039 1.8848-12.367 6.0175-16.683 11.759-8.0241 10.675-8.1993 25.929-0.42371 36.911 3.2799 4.6324 7.1881 7.939 12.363 10.46 2.9105 1.418 6.7604 2.6238 9.525 2.9832 2.0549 0.26716 7.4088 0.14724 9.4694-0.2121zm-11.215-3.5458c-5.2102-1.1367-10.006-3.7562-13.861-7.5706-3.9664-3.9246-6.3215-7.9918-7.8845-13.616-0.46176-1.6617-0.55575-2.7614-0.56605-6.6227-0.01138-4.2672 0.04511-4.8376 0.72048-7.276 3.1964-11.54 13.069-19.929 24.752-21.031 10.225-0.96429 19.672 3.2898 25.803 11.62 6.1188 8.3135 7.1492 19.362 2.6848 28.786-3.5072 7.4038-10.273 13.111-18.138 15.301-3.4555 0.96201-10.061 1.1624-13.511 0.40987zm10.701-11.056c1.9661-0.57797 5.2529-2.3452 6.6516-3.5764 2.6255-2.3111 4.6955-5.7237 5.5813-9.2014 0.66892-2.6262 0.41566-7.1848-0.5442-9.7964-2.5531-6.9466-9.1638-11.632-16.411-11.632-7.9377 0-14.955 5.4731-16.96 13.228-0.58211 2.251-0.5738 6.2124 0.01773 8.4538 1.2657 4.796 4.4665 8.8207 8.7814 11.042 2.357 1.2133 3.5593 1.6387 5.4896 1.9424 1.7921 0.28195 5.6964 0.0392 7.3937-0.45977zm75.178 26.364c-5.0823-0.34278-10.867-1.7829-14.548-3.6214-4.0093-2.0029-8.0135-5.4652-10.277-8.8862-2.4635-3.7231-4.3233-9.22-4.9147-14.526-0.18706-1.6782-0.28638-12.07-0.28638-29.964v-27.395h26.194l0.0056 0.99219c0.0029 0.5457 0.0053 12.03 5e-3 25.52-2.65e-4 14.374 0.10636 25.371 0.25757 26.563 0.28279 2.2304 1.1657 4.4475 2.1456 5.388 1.3052 1.2526 2.807 1.7062 5.6562 1.7083 2.3101 2e-3 2.8137-0.0832 3.9688-0.66888 1.4479-0.73418 2.8288-2.3306 3.3575-3.8815 0.26096-0.76552 0.35324-7.0833 0.41344-28.304l0.0775-27.318h26.466l-0.0941 29.17c-0.0836 25.915-0.14277 29.387-0.53039 31.113-1.6454 7.3249-4.0877 11.988-8.3553 15.952-5.2189 4.8478-12.317 7.5132-21.732 8.1599-2.1101 0.14496-4.0746 0.2479-4.3656 0.22875-0.29104-0.01915-1.8409-0.12329-3.4441-0.23142zm9.561-11.771c3.921-0.67398 6.236-1.5931 9.165-3.6389 3.1685-2.213 5.7954-6.4282 6.879-11.038 0.58738-2.4989 0.59082-2.6465 0.59201-25.4v-22.886h-3.4396l-0.13819 23.416c-0.15356 26.021-0.04863 24.518-1.9886 28.492-1.9099 3.9124-5.3638 6.3905-10.481 7.5205-2.1181 0.46767-3.0995 0.52847-6.8386 0.42366-4.8642-0.13635-6.4477-0.45653-9.4114-1.903-4.5479-2.2197-7.0173-5.9646-7.9314-12.028-0.30819-2.0444-0.3815-6.697-0.38277-24.291l-3.7e-4 -21.762h-3.1688l-0.06927 21.233c-0.0381 11.678 0.01402 22.334 0.11586 23.679 0.57049 7.5384 3.984 13.169 9.7482 16.078 2.0357 1.0276 4.7784 1.896 7.0001 2.2164 2.6282 0.37901 7.8254 0.32355 10.35-0.11044zm-352.32 9.8179c0-0.06106 5.021-9.67 11.158-21.353 6.1368-11.683 11.561-22.23 12.053-23.438 2.2608-5.5453 2.1383-9.8524-0.35599-12.519-1.4557-1.5563-3.1378-2.3052-5.9878-2.6659-1.9666-0.24892-5.6828-0.14323-6.8789 0.19564-0.43587 0.12349-0.46302-0.54223-0.46302-11.356v-11.487l2.712-0.50344c3.7899-0.70354 13.333-0.71102 17.506-0.0137 10.54 1.7614 17.817 6.4461 21.431 13.798 1.856 3.7749 2.1401 5.2533 2.1357 11.112-3e-3 4.6235-0.0602 5.2296-0.70604 7.5493-1.3512 4.8533-2.7614 8.1403-7.8851 18.38-2.8398 5.6753-5.2031 10.408-5.2516 10.517s3.3874 0.19844 7.6354 0.19844h7.7236l-0.17815 0.7276c-0.098 0.40018-1.6651 5.2817-3.4825 10.848l-3.3043 10.12h-23.931c-13.162 0-23.931-0.04995-23.931-0.11101zm41.831-11.134c0.2763-0.7276 0.50246-1.4122 0.50258-1.5214 1.2e-4 -0.10915-4.5341-0.19844-10.076-0.19844s-10.037-0.10096-9.988-0.22436c0.0485-0.1234 3.5062-6.7016 7.6838-14.618 10.041-19.028 11.138-21.809 11.156-28.284 0.0152-5.3949-1.0893-8.4246-4.2082-11.543-2.065-2.065-4.8971-3.6598-7.929-4.465-1.7742-0.47117-6.2799-0.90176-7.5245-0.71908-0.79366 0.11648-0.80986 0.14871-0.80986 1.6113v1.4924l2.5153 0.0597c12.077 0.28646 17.438 8.9409 13.237 21.369-1.0623 3.143-3.2092 7.4581-11.739 23.595-4.2446 8.0298-7.7174 14.669-7.7174 14.753 0 0.0844 5.4888 0.12259 12.197 0.0848l12.197-0.0688zm43.365 5.424v-5.8208h-28.31v-9.6706l32.774-61.105 20.936-0.1384v47.896h5.0271v23.019h-5.0271v11.642h-25.4zm13.494-9.7896v-5.8208h5.5562v-3.175h-5.5562v-48.419h-0.65536c-0.40052 0-0.81779 0.2479-1.0731 0.63752-0.22975 0.35063-6.4731 11.929-13.874 25.731l-13.456 25.093 25.884 0.1372v11.637h3.175zm-23.504-9.2234c0.23854-0.61546 20.129-37.608 20.222-37.608 0.0589 0 0.10704 8.513 0.10704 18.918v18.918h-10.209c-5.6147 0-10.169-0.1024-10.12-0.22755zm69.806-16.441v-41.275h26.194v28.046h14.817v-28.046h26.458v82.55h-26.458v-30.692h-14.817v30.692h-26.194zm15.61 15.743v-15.743h36.248v31.485h3.4417l-0.06722-31.552-0.06722-31.552h-3.175l-0.06845 14.221-0.06844 14.221h-36.239l-0.0684-14.221-0.0685-14.221h-3.175l-0.0672 31.552-0.0672 31.552h3.4417zm229.13-15.758v-41.29l35.586 0.1986 3.2047 0.70429c1.7626 0.38735 4.2629 1.0776 5.5562 1.5339 13.959 4.9244 21.59 16.339 20.927 31.303-0.37145 8.39-4.0203 15.894-10.079 20.728l-1.0288 0.82089 7.4098 13.05c4.0754 7.1776 7.5489 13.318 7.7189 13.646l0.30906 0.59531-30.843-0.02032-6.0854-10.332c-3.347-5.6828-6.1747-10.388-6.2838-10.456-0.10914-0.0683-0.19844 4.5858-0.19844 10.342v10.467h-26.194v-41.29zm15.61 22.15v-9.3507l7.2099-0.16828c4.5009-0.10506 8.1526-0.32384 9.7189-0.58227 2.1498-0.35472 2.5475-0.36077 2.7781-0.0423 0.14804 0.20444 2.8206 4.6743 5.9391 9.933l5.6699 9.5612h1.9368c1.0653 0 1.9368-0.0512 1.9368-0.11386 0-0.0626-2.7384-4.7169-6.0854-10.343-3.347-5.626-6.084-10.307-6.0822-10.403 3e-3 -0.0959 0.83643-0.51157 1.8548-0.9238 5.32-2.1536 9.9374-6.911 11.496-11.844 2.4662-7.8067 0.85423-15.954-4.2246-21.353-3.8444-4.0866-8.5517-6.418-15.347-7.6011-2.1228-0.36959-4.3719-0.46662-11.377-0.49085l-8.7312-0.0302-0.0672 31.552-0.0672 31.552h3.4417zm0-31.66v-19.133l7.6068 0.17192c8.1462 0.18411 10.815 0.52221 14.368 1.8205 4.5898 1.6767 8.4986 4.9213 10.156 8.4301 1.4925 3.16 1.8627 4.9299 1.8493 8.843-0.013 3.826-0.39777 5.7055-1.7604 8.599-1.15 2.4421-4.3764 5.5941-7.217 7.0506-4.7111 2.4156-7.8087 2.9751-17.661 3.1902l-7.3422 0.16028zm16.079 8.3327c3.4972-0.82454 5.9898-2.7309 6.8498-5.2387 0.67887-1.9797 0.61068-5.4111-0.14653-7.3726-1.2468-3.2296-4.8022-5.1252-9.9494-5.3046l-2.1167-0.0738-0.1392 18.389 1.9216-4e-3c1.0569-2e-3 2.6681-0.1799 3.5804-0.39499z" style="fill:#2a5a72;stroke-width:2.4"/>
  <g style="stroke-width:2.4">
   <path d="m199.6 23.453c13.315 30.968 56.387 12.916 96.282 21.601-51.052-42.158-81.342-46.904-96.337-22.061 0.12776 0.08669-6e-3 0.60143 0.0558 0.4599z" style="fill:#000000;stroke-width:2.4"/>
   <g id="calculator">
    <g transform="matrix(.57921 .079105 -.079153 .57945 7.6721 -144.71)" style="stroke-width:4.1045">
     <path d="m570.83 326.35c24.19 0 76.402 0 82.449-14.313s4.0317-17.74 4.0317-22.376c0-4.6365-4.8381-121.56-4.8381-121.56l6.2492-88.497s-1.0079-7.6603-3.6286-12.297c-2.6206-4.6365-50.598-18.344-88.9-18.949-38.302-0.60476-81.844 14.313-81.844 14.313s-4.0318 3.0238-6.2492 6.2492c-2.2175 3.2254-2.8222 21.57-0.80634 32.657 2.0159 11.087 7.2571 67.129 7.2571 67.129 1.8585 0-5.0641 128.33 3.6286 144.13 4.1001 7.4542 12.327 9.3451 17.74 10.886s64.911 2.6206 64.911 2.6206z" style="fill-rule:evenodd;fill:#666666;stroke-width:1.1584px;stroke:#000000"/>
     <path d="m567.81 52.998c-47.776 0-85.248 10.285-86.884 19.151-2.419 13.103 3.6969 61.612 10.08 70.556 8.2171 11.515 75.334 13.887 78.619 13.86 3.2327-0.0581 10.284-0.11478 19.211-0.95039-0.0365-0.33764-0.0565-0.67686-0.0601-1.0164 4e-5 -5.7893 4.6932-10.482 10.482-10.482 5.1928 5e-3 9.5996 3.8105 10.36 8.9473 1.712-0.25929 3.4138-0.53499 5.1043-0.81855-0.0902-0.62259-0.13811-1.2506-0.14332-1.8796-2.2e-4 -7.6821 6.2273-13.91 13.909-13.91 5.844 5e-3 11.061 3.6632 13.059 9.1551 3.2251-1.3622 5.3498-2.8098 5.8903-4.3166 2.9237-8.1504 9.6762-67.33 4.2333-71.564-5.4429-4.2333-36.084-16.732-83.86-16.732z" style="fill-rule:evenodd;fill:#000000;stroke-width:1.1584px;stroke:#666666"/>
     <rect x="499.27" y="83.081" width="135.73" height="28.816" rx="2.3519" ry="1.6121" style="color:#000000;fill:#ac9393;stroke-linecap:round;stroke-linejoin:round;stroke-width:.4574;stroke:#000000"/>
     <g id="hello" stroke="black" stroke-linecap="round" stroke-width="1.5">
      <path d="m505 87v9"/>
      <path d="m505 98v9"/>
      <path d="m506 86h9"/>
      <path d="m506 108h9"/>
      <path d="m516 87v9"/>
      <path d="m516 98v9"/>
      <path d="m518.5 108h0.1"/>
      <path d="m521 87v9"/>
      <path d="m522 86h9"/>
      <path d="m532 87v9"/>
      <path d="m532 98v9"/>
      <path d="m537 87v9"/>
      <path d="m538 86h9"/>
      <path d="m548 87v9"/>
      <path d="m548 98v9"/>
      <path d="m554 86h9"/>
      <path d="m554 97h9"/>
      <path d="m554 108h9"/>
      <path d="m564 87v9"/>
      <path d="m564 98v9"/>
      <path d="m569 87v9"/>
      <path d="m570 97h9"/>
      <path d="m580 87v9"/>
      <path d="m580 98v9"/>
     </g>
     <rect x="489.99" y="76.781" width="155.03" height="40.729" rx="8.2695" ry="7.4626" style="color:#000000;fill:none;stroke-linecap:round;stroke-linejoin:round;stroke-width:4.6336;stroke:#c87137"/>
     <circle cx="599.46" cy="154.73" r="7.4587" style="color:#000000;fill:#d4aa00;stroke-linecap:round;stroke-linejoin:round;stroke-width:4.6336;stroke:#000000"/>
     <circle cx="628.56" cy="150.93" r="10.483" style="color:#000000;fill:#d4aa00;stroke-linecap:round;stroke-linejoin:round;stroke-width:4.6336;stroke:#000000"/>
     <rect x="497.91" y="171.78" width="23.142" height="15.795" rx="8.2695" ry="7.4625" style="color:#000000;fill:#1a1a1a;stroke-linecap:round;stroke-linejoin:round;stroke-width:3.4752;stroke:#000000"/>
     <rect x="527.83" y="171.78" width="23.142" height="15.795" rx="8.2695" ry="7.4625" style="color:#000000;fill:#1a1a1a;stroke-linecap:round;stroke-linejoin:round;stroke-width:3.4752;stroke:#000000"/>
     <rect x="558.31" y="171.78" width="23.142" height="15.795" rx="8.2695" ry="7.4625" style="color:#000000;fill:#1a1a1a;stroke-linecap:round;stroke-linejoin:round;stroke-width:3.4752;stroke:#000000"/>
     <rect x="496.33" y="225.48" width="24.82" height="20.779" rx="7.0323" ry="7.6131" style="color:#000000;fill:#1a1a1a;stroke-linecap:round;stroke-linejoin:round;stroke-width:4.1279;stroke:#000000"/>
     <rect x="527.94" y="225.48" width="24.82" height="20.779" rx="7.0323" ry="7.6131" style="color:#000000;fill:#1a1a1a;stroke-linecap:round;stroke-linejoin:round;stroke-width:4.1279;stroke:#000000"/>
     <rect x="527.94" y="197.26" width="24.82" height="20.779" rx="7.0323" ry="7.6131" style="color:#000000;fill:#1a1a1a;stroke-linecap:round;stroke-linejoin:round;stroke-width:4.1279;stroke:#000000"/>
     <rect x="557.85" y="197.26" width="24.82" height="20.779" rx="7.0323" ry="7.6131" style="color:#000000;fill:#1a1a1a;stroke-linecap:round;stroke-linejoin:round;stroke-width:4.1279;stroke:#000000"/>
     <rect x="589.46" y="196.7" width="24.82" height="20.779" rx="7.0323" ry="7.6131" style="color:#000000;fill:#1a1a1a;stroke-linecap:round;stroke-linejoin:round;stroke-width:4.1279;stroke:#000000"/>
     <rect x="618.25" y="196.7" width="24.82" height="20.779" rx="7.0323" ry="7.6131" style="color:#000000;fill:#1a1a1a;stroke-linecap:round;stroke-linejoin:round;stroke-width:4.1279;stroke:#000000"/>
     <rect x="618.25" y="169.04" width="24.82" height="20.779" rx="7.0323" ry="7.6131" style="color:#000000;fill:#1a1a1a;stroke-linecap:round;stroke-linejoin:round;stroke-width:4.1279;stroke:#000000"/>
     <rect x="619.38" y="224.36" width="24.82" height="20.779" rx="7.0323" ry="7.6131" style="color:#000000;fill:#1a1a1a;stroke-linecap:round;stroke-linejoin:round;stroke-width:4.1279;stroke:#000000"/>
     <rect x="557.85" y="224.92" width="24.82" height="20.779" rx="7.0323" ry="7.6131" style="color:#000000;fill:#1a1a1a;stroke-linecap:round;stroke-linejoin:round;stroke-width:4.1279;stroke:#000000"/>
     <rect x="590.03" y="224.92" width="24.82" height="20.779" rx="7.0323" ry="7.6131" style="color:#000000;fill:#1a1a1a;stroke-linecap:round;stroke-linejoin:round;stroke-width:4.1279;stroke:#000000"/>
     <rect x="527.94" y="254.27" width="24.82" height="20.779" rx="7.0323" ry="7.6131" style="color:#000000;fill:#1a1a1a;stroke-linecap:round;stroke-linejoin:round;stroke-width:4.1279;stroke:#000000"/>
     <rect x="557.85" y="253.71" width="24.82" height="20.779" rx="7.0323" ry="7.6131" style="color:#000000;fill:#1a1a1a;stroke-linecap:round;stroke-linejoin:round;stroke-width:4.1279;stroke:#000000"/>
     <rect x="590.03" y="253.71" width="24.82" height="20.779" rx="7.0323" ry="7.6131" style="color:#000000;fill:#1a1a1a;stroke-linecap:round;stroke-linejoin:round;stroke-width:4.1279;stroke:#000000"/>
     <rect x="527.94" y="283.06" width="24.82" height="20.779" rx="7.0323" ry="7.6131" style="color:#000000;fill:#1a1a1a;stroke-linecap:round;stroke-linejoin:round;stroke-width:4.1279;stroke:#000000"/>
     <rect x="557.85" y="282.49" width="24.82" height="20.779" rx="7.0323" ry="7.6131" style="color:#000000;fill:#1a1a1a;stroke-linecap:round;stroke-linejoin:round;stroke-width:4.1279;stroke:#000000"/>
     <rect x="590.03" y="282.49" width="24.82" height="20.779" rx="7.0323" ry="7.6131" style="color:#000000;fill:#1a1a1a;stroke-linecap:round;stroke-linejoin:round;stroke-width:4.1279;stroke:#000000"/>
     <rect x="496.33" y="254.84" width="24.82" height="20.779" rx="7.0323" ry="7.6131" style="color:#000000;fill:#ff2a2a;stroke-linecap:round;stroke-linejoin:round;stroke-width:4.1279;stroke:#000000"/>
     <rect x="496.33" y="283.62" width="24.82" height="20.779" rx="7.0323" ry="7.6131" style="color:#000000;fill:#ff2a2a;stroke-linecap:round;stroke-linejoin:round;stroke-width:4.1279;stroke:#000000"/>
     <rect x="621.9" y="252.85" width="24.283" height="49.996" rx="6.8801" ry="4.3588" style="color:#000000;fill:#1a1a1a;stroke-linecap:round;stroke-linejoin:round;stroke-width:6.3332;stroke:#000000"/>
     <ellipse cx="507.95" cy="208.15" rx="5.8774" ry="5.51" style="color:#000000;fill:#999999;stroke-linecap:round;stroke-linejoin:round;stroke-width:3.4752;stroke:#999999"/>
     <circle cx="507.95" cy="208.15" r="2.5714" style="color:#000000;fill:#333333;stroke-linecap:round;stroke-linejoin:round;stroke-width:3.4752;stroke:#000000"/>
     <g transform="matrix(.28222 0 0 .28222 463.39 42.655)" style="fill:#ffffff">
      <path d="m127.38 555.5v-13.464h5.7216q2.1582 0 3.1318 0.36737 0.98269 0.35817 1.5705 1.2858t0.58778 2.1215q0 1.5154-0.89085 2.5072-0.89085 0.98269-2.6634 1.2398 0.88167 0.5143 1.4511 1.1296 0.57859 0.61533 1.5521 2.1858l1.6439 2.6266h-3.2512l-1.9654-2.9297q-1.047-1.5705-1.4327-1.9746-0.38573-0.41328-0.81738-0.56022-0.43165-0.15613-1.3684-0.15613h-0.55104v5.6206zm2.7185-7.7697h2.0113q1.9562 0 2.443-0.16531 0.48676-0.16531 0.76228-0.56941t0.27552-1.0102q0-0.67962-0.36736-1.0929-0.35818-0.42247-1.0194-0.53268-0.33062-0.0459-1.9838-0.0459h-2.1215v3.4165z" style="stroke-width:4.1045px"/>
      <path d="m140.97 555.5v-13.464h9.983v2.2776h-7.2646v2.9848h6.7594v2.2684h-6.7594v3.6644h7.5217v2.2685z" style="stroke-width:4.1045px"/>
      <path d="m152.84 551.12 2.645-0.25715q0.23879 1.3317 0.96433 1.9562 0.73472 0.62451 1.9746 0.62451 1.3133 0 1.9746-0.55104 0.67044-0.56023 0.67044-1.3041 0-0.47757-0.28471-0.8082-0.27552-0.33981-0.97351-0.58777-0.47757-0.16532-2.1766-0.58778-2.1858-0.54186-3.0675-1.3317-1.2398-1.1113-1.2398-2.7093 0-1.0286 0.57859-1.9195 0.58778-0.90004 1.6807-1.3684 1.1021-0.46839 2.6542-0.46839 2.5348 0 3.8114 1.1113 1.2858 1.1113 1.35 2.9664l-2.7185 0.1194q-0.1745-1.0378-0.75309-1.4878-0.56941-0.4592-1.7174-0.4592-1.1847 0-1.8552 0.48676-0.43165 0.31225-0.43165 0.83574 0 0.47757 0.4041 0.81738 0.5143 0.43165 2.498 0.90004 1.9838 0.46838 2.9297 0.9735 0.95514 0.49594 1.4878 1.3684 0.54186 0.8633 0.54186 2.1399 0 1.1572-0.64288 2.1674-0.64288 1.0102-1.8184 1.5062-1.1756 0.48675-2.9297 0.48675-2.5532 0-3.9216-1.1756-1.3684-1.1847-1.6348-3.444z" style="stroke-width:4.1045px"/>
      <path d="m166.1 555.5v-13.464h9.983v2.2776h-7.2646v2.9848h6.7594v2.2684h-6.7594v3.6644h7.5217v2.2685z" style="stroke-width:4.1045px"/>
      <path d="m181.69 555.5v-11.186h-3.995v-2.2776h10.699v2.2776h-3.9859v11.186z" style="stroke-width:4.1045px"/>
     </g>
     <g transform="matrix(.28222 0 0 .28222 463.39 42.655)" style="fill:#ffffff">
      <path d="m138.64 497.49v-23.934h7.2324l4.3427 16.326 4.2937-16.326h7.2487v23.934h-4.4896v-18.84l-4.7508 18.84h-4.6529l-4.7345-18.84v18.84z" style="stroke-width:4.1045px"/>
      <path d="m166.54 497.49v-23.934h10.171q3.8366 0 5.5671 0.65304 1.7469 0.63671 2.7917 2.2856 1.0449 1.6489 1.0449 3.7713 0 2.6938-1.5836 4.457-1.5836 1.7469-4.7345 2.204 1.5673 0.91425 2.5795 2.0081 1.0285 1.0938 2.7591 3.8856l2.9223 4.6692h-5.7794l-3.4937-5.208q-1.8612-2.7917-2.5468-3.5101-0.68569-0.73466-1.453-0.99588-0.76732-0.27754-2.4326-0.27754h-0.97956v9.9914zm4.8325-13.812h3.5754q3.4774 0 4.3427-0.29387 0.86528-0.29386 1.355-1.0122 0.48978-0.71834 0.48978-1.7958 0-1.2081-0.65303-1.9428-0.63671-0.75099-1.8122-0.94691-0.58773-0.0816-3.5264-0.0816h-3.7713v6.0732z" style="stroke-width:4.1045px"/>
     </g>
     <g transform="matrix(.28222 0 0 .28222 462.35 42.655)" style="fill:#ffffff">
      <path d="m251.18 497.49v-23.934h7.2324l4.3427 16.326 4.2937-16.326h7.2487v23.934h-4.4896v-18.84l-4.7508 18.84h-4.6529l-4.7345-18.84v18.84z" style="stroke-width:4.1045px"/>
      <path d="m278.51 489.11v-4.5876h16.375v4.5876z" style="stroke-width:4.1045px"/>
     </g>
     <g transform="matrix(.28222 0 0 .28222 463.39 42.655)" style="fill:#ffffff">
      <path d="m355.56 497.49v-23.934h7.2324l4.3427 16.326 4.2937-16.326h7.2487v23.934h-4.4896v-18.84l-4.7508 18.84h-4.6529l-4.7345-18.84v18.84z" style="stroke-width:4.1045px"/>
      <path d="m388.67 494.04v-6.2202h-6.2692v-4.2937h6.2692v-6.2202h4.1794v6.2202h6.2855v4.2937h-6.2855v6.2202z" style="stroke-width:4.1045px"/>
     </g>
     <g transform="matrix(.28222 0 0 .28222 463.39 42.655)" style="fill:#ffffff">
      <path d="m587.52 475.15v-10.351h10.351v10.351zm-13.703 14.329v-9.6877h37.756v9.6877zm13.703 14.992v-10.351h10.351v10.351z" style="stroke-width:4.1045px"/>
     </g>
     <g transform="matrix(.28222 0 0 .28222 463.39 42.655)" style="fill:#ffffff">
      <path d="m574.8 593.79 11.124-11.124-11.198-11.161 6.8514-6.8514 11.198 11.161 11.124-11.124 6.6672 6.704-11.124 11.124 11.235 11.235-6.8514 6.8514-11.235-11.235-11.124 11.124z" style="stroke-width:4.1045px"/>
     </g>
     <g transform="matrix(.37059 0 0 .21493 463.39 42.655)" style="fill:#ffffff">
      <path d="m441.07 900.53v-13.592h26.699v13.592z" style="stroke-width:4.1045px"/>
     </g>
     <g transform="matrix(.28222 0 0 .28222 463.39 42.655)" style="fill:#ffffff">
      <path d="m599.96 852.23v-14.034h-14.145v-9.6877h14.145v-14.034h9.4298v14.034h14.182v9.6877h-14.182v14.034z" style="stroke-width:4.1045px"/>
     </g>
     <g transform="matrix(.28222 0 0 .28222 463.39 42.655)" style="fill:#ffffff">
      <path d="m256.9 569.45v-8.5803h31.592v6.7064q-3.9121 3.8463-7.9556 11.046-4.0436 7.1995-6.1804 15.32-2.104 8.0871-2.0711 14.465h-8.909q0.23012-9.9939 4.1093-20.382 3.9121-10.388 10.421-18.574z" style="stroke-width:4.1045px"/>
     </g>
     <g transform="matrix(.28222 0 0 .28222 463.39 42.655)" style="fill:#ffffff">
      <path d="m370.91 582.4q-3.5833-1.5122-5.2271-4.1422-1.6108-2.6628-1.6108-5.8188 0-5.3914 3.7477-8.909 3.7806-3.5176 10.717-3.5176 6.8708 0 10.651 3.5176 3.8134 3.5176 3.8134 8.909 0 3.3532-1.7424 5.9832-1.7424 2.5971-4.8983 3.9778 4.0107 1.6108 6.0818 4.7011 2.104 3.0902 2.104 7.1338 0 6.6735-4.2737 10.849-4.2408 4.1751-11.309 4.1751-6.5749 0-10.947-3.4518-5.1613-4.0764-5.1613-11.177 0-3.9121 1.9396-7.1666 1.9396-3.2874 6.1147-5.0627zm1.9067-9.3035q0 2.7615 1.5451 4.3066 1.578 1.5451 4.1751 1.5451 2.63 0 4.208-1.5451 1.578-1.578 1.578-4.3394 0-2.5971-1.578-4.1422-1.5451-1.578-4.1093-1.578-2.6628 0-4.2408 1.578-1.578 1.578-1.578 4.1751zm-0.85474 20.645q0 3.8134 1.9396 5.9503 1.9725 2.1368 4.8983 2.1368 2.8601 0 4.7339-2.0382 1.8738-2.0711 1.8738-5.9503 0-3.3861-1.9067-5.4243-1.9067-2.0711-4.8326-2.0711-3.3861 0-5.0627 2.3341-1.6437 2.3341-1.6437 5.0627z" style="stroke-width:4.1045px"/>
     </g>
     <g transform="matrix(.28222 0 0 .28222 463.39 42.655)" style="fill:#ffffff">
      <path d="m475.53 595.26 8.9419-0.98624q0.32875 2.7286 1.7095 4.0436t3.6491 1.315q2.8601 0 4.8654-2.63 2.0054-2.63 2.5642-10.914-3.4847 4.0436-8.7118 4.0436-5.6873 0-9.8295-4.3723-4.1093-4.4052-4.1093-11.44 0-7.331 4.3394-11.802 4.3723-4.5038 11.112-4.5038 7.331 0 12.032 5.6873 4.7011 5.6544 4.7011 18.64 0 13.216-4.8983 19.067t-12.755 5.8517q-5.6544 0-9.1391-2.9916-3.4847-3.0245-4.4709-9.0076zm20.908-20.185q0-4.4709-2.0711-6.9365-2.0382-2.4656-4.7339-2.4656-2.5642 0-4.2737 2.0382-1.6766 2.0054-1.6766 6.6078 0 4.6682 1.841 6.8708 1.841 2.1697 4.6024 2.1697 2.6628 0 4.4709-2.104 1.841-2.104 1.841-6.1804z" style="stroke-width:4.1045px"/>
     </g>
     <g transform="matrix(.28222 0 0 .28222 463.39 42.655)" style="fill:#ffffff">
      <path d="m275.1 708.83v-9.698h-19.725v-8.0871l20.908-30.606h7.7584v30.573h5.9832v8.12h-5.9832v9.698zm0-17.818v-16.47l-11.079 16.47z" style="stroke-width:4.1045px"/>
     </g>
     <g transform="matrix(.28222 0 0 .28222 463.39 42.655)" style="fill:#ffffff">
      <path d="m362.49 693.6 9.2049-0.95336q0.39449 3.1231 2.3341 4.9641 1.9396 1.8081 4.4709 1.8081 2.893 0 4.8983-2.3341 2.0054-2.367 2.0054-7.1009 0-4.4381-2.0054-6.6407-1.9725-2.2355-5.1613-2.2355-3.9778 0-7.1338 3.5176l-7.4954-1.0849 4.7339-25.083h24.426v8.646h-17.424l-1.4465 8.1858q3.0902-1.5451 6.3119-1.5451 6.1475 0 10.421 4.4709 4.2737 4.4709 4.2737 11.605 0 5.9503-3.4518 10.618-4.7011 6.3777-13.051 6.3777-6.6735 0-10.881-3.5833-4.2079-3.5833-5.0298-9.6322z" style="stroke-width:4.1045px"/>
     </g>
     <g transform="matrix(.28222 0 0 .28222 463.39 42.655)" style="fill:#ffffff">
      <path d="m507.9 670.03-8.9419 0.98624q-0.32874-2.7615-1.7095-4.0764t-3.5833-1.315q-2.9258 0-4.9641 2.63-2.0053 2.63-2.5313 10.947 3.4518-4.0764 8.5803-4.0764 5.7859 0 9.8952 4.4052 4.1422 4.4052 4.1422 11.375 0 7.3968-4.3394 11.868t-11.144 4.4709q-7.2982 0-11.999-5.6544-4.7011-5.6873-4.7011-18.607 0-13.248 4.8983-19.1 4.8983-5.8517 12.722-5.8517 5.49 0 9.0734 3.0902 3.6162 3.0573 4.6024 8.909zm-20.941 20.152q0 4.5038 2.0711 6.9694 2.0711 2.4327 4.7339 2.4327 2.5642 0 4.2737-2.0054 1.7095-2.0053 1.7095-6.5749 0-4.7011-1.841-6.8708-1.841-2.2026-4.6024-2.2026-2.6628 0-4.5038 2.104-1.841 2.0711-1.841 6.1475z" style="stroke-width:4.1045px"/>
     </g>
     <g transform="matrix(.28222 0 0 .28222 463.39 42.655)" style="fill:#ffffff">
      <path d="m283.28 810.83h-9.2377v-34.814q-5.0627 4.7339-11.933 7.0023v-8.383q3.6162-1.1835 7.857-4.4709 4.2408-3.3203 5.8188-7.7255h7.4954z" style="stroke-width:4.1045px"/>
     </g>
     <g transform="matrix(.28222 0 0 .28222 463.39 42.655)" style="fill:#ffffff">
      <path d="m476.69 795.63 8.9419-1.0849q0.42737 3.419 2.3012 5.227t4.5367 1.8081q2.8601 0 4.7997-2.1697 1.9725-2.1697 1.9725-5.8517 0-3.4847-1.8738-5.5229-1.8738-2.0382-4.5696-2.0382-1.7752 0-4.2408 0.69037l1.0191-7.5283q3.7477 0.0986 5.7202-1.6109 1.9725-1.7424 1.9725-4.6024 0-2.4327-1.4465-3.8792t-3.8463-1.4465q-2.367 0-4.0436 1.6437t-2.0382 4.7997l-8.5145-1.4465q0.88761-4.3723 2.6628-6.9694 1.8081-2.63 4.9969-4.1093 3.2217-1.5122 7.1995-1.5122 6.805 0 10.914 4.3394 3.3861 3.5504 3.3861 8.0214 0 6.3448-6.9365 10.125 4.1422 0.88761 6.6078 3.9778 2.4985 3.0902 2.4985 7.4625 0 6.3448-4.6353 10.816-4.6353 4.4709-11.539 4.4709-6.542 0-10.849-3.7477-4.3066-3.7806-4.9969-9.8624z" style="stroke-width:4.1045px"/>
     </g>
     <g transform="matrix(.28222 0 0 .28222 463.39 42.655)" style="fill:#ffffff">
      <path d="m394.89 800.25v8.5803h-32.381q0.526-4.8654 3.156-9.2049 2.63-4.3723 10.388-11.572 6.2462-5.8188 7.6598-7.8899 1.9067-2.8601 1.9067-5.6544 0-3.0902-1.6766-4.7339-1.6437-1.6766-4.5696-1.6766-2.893 0-4.6024 1.7424t-1.9725 5.7859l-9.2049-0.92049q0.82187-7.6269 5.1613-10.947t10.849-3.3203q7.1338 0 11.21 3.8463 4.0764 3.8463 4.0764 9.5665 0 3.2546-1.1835 6.2133-1.1506 2.9258-3.682 6.1475-1.6766 2.1368-6.0489 6.1475-4.3723 4.0107-5.5558 5.3257-1.1506 1.315-1.8738 2.5642z" style="stroke-width:4.1045px"/>
     </g>
     <g transform="matrix(.28222 0 0 .28222 463.39 42.655)" style="fill:#ffffff">
      <path d="m272.7 864.03q7.0023 0 10.947 4.9969 4.7011 5.9174 4.7011 19.626 0 13.676-4.7339 19.659-3.9121 4.9312-10.914 4.9312-7.0352 0-11.342-5.3914-4.3066-5.4243-4.3066-19.297 0-13.61 4.7339-19.593 3.9121-4.9312 10.914-4.9312zm0 7.6598q-1.6766 0-2.9916 1.0849-1.315 1.052-2.0382 3.8134-0.95336 3.5833-0.95336 12.065 0 8.4816 0.85473 11.67 0.85474 3.156 2.1368 4.208 1.315 1.052 2.9916 1.052 1.6766 0 2.9916-1.052 1.315-1.0849 2.0382-3.8463 0.95336-3.5504 0.95336-12.032 0-8.4816-0.85474-11.638-0.85473-3.1888-2.1697-4.2408-1.2821-1.0849-2.9587-1.0849z" style="stroke-width:4.1045px"/>
     </g>
     <g transform="matrix(.28222 0 0 .28222 463.39 42.655)" style="fill:#ffffff">
      <path d="m475.85 883.58v-8.4816h33.696v8.4816zm0 14.596v-8.5145h33.696v8.5145z" style="stroke-width:4.1045px"/>
     </g>
     <g transform="matrix(.28222 0 0 .28222 463.39 42.655)" style="fill:#ffffff">
      <path d="m374.08 910.35v-9.2378h9.2378v9.2378z" style="stroke-width:4.1045px"/>
     </g>
     <g transform="matrix(.28222 0 0 .28222 463.39 42.655)" style="fill:#ffffff">
      <path d="m139.01 674.35q0-5.2224 2.2798-7.7409 2.3064-2.5184 6.2298-2.5184 4.056 0 6.3358 2.5184 2.3064 2.4919 2.3064 7.7409 0 5.2224-2.3064 7.7409-2.2798 2.5184-6.2033 2.5184-4.056 0-6.3624-2.4919-2.2798-2.5184-2.2798-7.7674zm5.8056-0.053q0 3.7909 0.87483 5.0899 0.66274 0.95435 1.8292 0.95435 1.1929 0 1.8557-0.95435 0.84831-1.299 0.84831-5.0899 0-3.7909-0.84831-5.0634-0.66275-0.98086-1.8557-0.98086-1.1664 0-1.8292 0.95435-0.87483 1.299-0.87483 5.0899zm8.3771 30.804h-5.514l20.704-41.011h5.355zm12.035-10.206q0-5.2224 2.2798-7.7409 2.3064-2.5184 6.2828-2.5184 4.003 0 6.2828 2.5184 2.3064 2.5184 2.3064 7.7409 0 5.249-2.3064 7.7674-2.2798 2.5184-6.2033 2.5184-4.056 0-6.3624-2.5184-2.2798-2.5184-2.2798-7.7674zm5.8056-0.0265q0 3.7909 0.87482 5.0634 0.66275 0.98086 1.8292 0.98086 1.1929 0 1.8292-0.95435 0.87482-1.299 0.87482-5.0899 0-3.7909-0.84831-5.0899-0.66275-0.95435-1.8557-0.95435t-1.8292 0.95435q-0.87482 1.299-0.87482 5.0899z" style="stroke-width:4.1045px"/>
     </g>
     <g transform="matrix(.28222 0 0 .28222 463.39 42.655)" style="fill:#ffffff">
      <path d="m169.21 793.33 6.9528 2.2046q-1.5989 5.8142-5.3297 8.6486-3.7066 2.8102-9.4239 2.8102-7.074 0-11.628-4.821-4.5545-4.8452-4.5545-13.227 0-8.8667 4.5787-13.76 4.5787-4.9179 12.04-4.9179 6.5168 0 10.587 3.8519 2.4226 2.2772 3.6339 6.541l-7.0982 1.6958q-0.62987-2.7618-2.6406-4.3607-1.9865-1.5989-4.8452-1.5989-3.9488 0-6.4199 2.8344-2.4468 2.8344-2.4468 9.1816 0 6.7348 2.4226 9.5935t6.2987 2.8587q2.8587 0 4.9179-1.8169 2.0592-1.817 2.9556-5.7173z" style="stroke-width:4.1045px"/>
     </g>
     <g transform="matrix(.28222 0 0 .28222 463.39 42.655)" style="fill:#ffffff">
      <path d="m161.64 906.28h-6.8714l-2.7315-7.1061h-12.505l-2.5821 7.1061h-6.7007l12.185-31.284h6.6793zm-11.63-12.377-4.3106-11.609-4.2253 11.609z" style="stroke-width:4.1045px"/>
      <path d="m185.03 894.77 6.1245 1.9419q-1.4084 5.1215-4.6947 7.6183-3.265 2.4754-8.3011 2.4754-6.2312 0-10.243-4.2466-4.0119-4.2679-4.0119-11.651 0-7.8103 4.0332-12.121 4.0332-4.332 10.606-4.332 5.7404 0 9.3254 3.393 2.134 2.0059 3.201 5.7617l-6.2525 1.4938q-0.55484-2.4327-2.326-3.8412-1.7499-1.4084-4.2679-1.4084-3.4784 0-5.655 2.4968-2.1553 2.4967-2.1553 8.0878 0 5.9324 2.134 8.4505 2.134 2.5181 5.5483 2.5181 2.5181 0 4.332-1.6005 1.8139-1.6005 2.6034-5.0362z" style="stroke-width:4.1045px"/>
     </g>
     <g transform="matrix(.28222 0 0 .28222 463.39 42.655)" style="fill:#ffffff">
      <path d="m461.86 397.17q0-2.3386 0.69948-3.9254 0.522-1.1693 1.4198-2.0984 0.90828-0.92916 1.9836-1.3781 1.4303-0.60552 3.299-0.60552 3.3826 0 5.4079 2.0984 2.0358 2.0984 2.0358 5.836 0 3.7062-2.0149 5.8046-2.0149 2.088-5.387 2.088-3.4139 0-5.4288-2.0776-2.0149-2.088-2.0149-5.742zm3.1842-0.1044q0 2.5996 1.2006 3.9463 1.2006 1.3363 3.0485 1.3363t3.0276-1.3259q1.1902-1.3363 1.1902-3.9985 0-2.6309-1.1588-3.9254-1.1484-1.2946-3.0589-1.2946t-3.0798 1.3154q-1.1693 1.305-1.1693 3.9463z" style="stroke-width:4.1045px"/>
      <path d="m479.17 404.73v-15.305h10.492v2.5891h-7.402v3.6227h6.3893v2.5891h-6.3893v6.5041z" style="stroke-width:4.1045px"/>
      <path d="m492.24 404.73v-15.305h10.492v2.5891h-7.402v3.6227h6.3893v2.5891h-6.3893v6.5041z" style="stroke-width:4.1045px"/>
     </g>
    </g>
   </g>
   <g transform="matrix(1.3901 1.0898 -1.0898 1.3901 381.12 -198.39)" style="stroke-width:1.3587">
    <path d="m104.07 153.57c35.52 0.66718 26.078-41.294-12.955-33.107-14.683 2.92-28.817 11.951-40.852 20.782-11.767 8.5618-24.551 18.247-32.587 25.114l0.15183 0.89696c5.6162 18.545 5.9312 40.181 6.2924 61.591 30.307 2.353 63.494-2.406 93.275-12.762-7.8543-21.623-13.895-42.829-13.325-62.513z" style="fill:#000000;stroke-width:1.3587"/>
    <path d="m85.242 148.25c-5.4151-1.5669-23.93 2.1025-50.252 8.8935 4.6239 23.977-10.456 8.5045 13.872 71.865 21.388-1.2408 36.179-4.2142 49.99-7.52z" fill="url(#linearGradient4441)" style="fill:url(#linearGradient4441);stroke-width:1.3896"/>
    <path d="m104.35 147.65c0.20991-5.4833 0.42838-11.529 1.1104-14.889-19.869-2.6735-37.54 3.1234-55.799 6.6583l-26.465 20.9c26.57-4.8052 50.385-12.944 81.154-12.669z" fill="#1a1a1a" style="stroke-width:2.7435"/>
    <path d="m86.284 122.08c-11.092 3.5296-25.872 11.853-39.773 21.724-9.8327 6.982-19.237 15.69-29.379 22.631-9.214 6.3051-19.596 2.3692-20.429-4.2651 6.1681 2.7248 11.585 1.8034 16.767-1.3848 22.233-12.956 29.134-27.498 72.814-38.704z" fill="#333333" stroke="#333333" stroke-width="1.3896px"/>
   </g>
  </g>
 </g>
</svg>
