<svg
   preserveAspectRatio="xMidYMid meet"
   xmlns:dc="http://purl.org/dc/elements/1.1/"
   xmlns:cc="http://creativecommons.org/ns#"
   xmlns:rdf="http://www.w3.org/1999/02/22-rdf-syntax-ns#"
   xmlns:svg="http://www.w3.org/2000/svg"
   xmlns="http://www.w3.org/2000/svg"
   xmlns:sodipodi="http://sodipodi.sourceforge.net/DTD/sodipodi-0.dtd"
   xmlns:inkscape="http://www.inkscape.org/namespaces/inkscape"
   viewBox="0 15 297 180"
   version="1.1"
   id="logohat"
   inkscape:version="1.0 (4035a4f, 2020-05-01)"
   sodipodi:docname="24h maths magic logo.svg">
  <defs
     id="defs2">
    <linearGradient
       x1="-359.48999"
       x2="-286.38"
       y1="207.00999"
       gradientUnits="userSpaceOnUse"
       y2="190.2"
       id="linearGradient4441"
       gradientTransform="matrix(-0.51819465,0,0,-0.51787471,-100.05925,289.64972)">
      <stop
         offset="0"
         id="stop4410" />
      <stop
         offset=".48752"
         stop-color="#333"
         id="stop4416" />
      <stop
         offset="1"
         id="stop4412" />
    </linearGradient>
  </defs>
  <sodipodi:namedview
     id="base"
     pagecolor="#ffffff"
     bordercolor="#666666"
     borderopacity="1.0"
     inkscape:pageopacity="0.0"
     inkscape:pageshadow="2"
     inkscape:zoom="0.21262901"
     inkscape:cx="880.3962"
     inkscape:cy="158.96265"
     inkscape:document-units="mm"
     inkscape:current-layer="layer1"
     inkscape:document-rotation="0"
     showgrid="false"
     inkscape:window-width="1440"
     inkscape:window-height="748"
     inkscape:window-x="0"
     inkscape:window-y="23"
     inkscape:window-maximized="0" />
  <metadata
     id="metadata5">
    <rdf:RDF>
      <cc:Work
         rdf:about="">
        <dc:format>image/svg+xml</dc:format>
        <dc:type
           rdf:resource="http://purl.org/dc/dcmitype/StillImage" />
        <dc:title></dc:title>
      </cc:Work>
    </rdf:RDF>
  </metadata>
  <g
     inkscape:label="Layer 1"
     inkscape:groupmode="layer"
     id="layer1">
    <g
       transform="matrix(0.28222223,0,0,0.28222223,463.38532,42.655479)"
       style="font-style:normal;font-variant:normal;font-weight:bold;font-stretch:normal;font-size:21.3811px;line-height:125%;font-family:Arial;-inkscape-font-specification:'Arial Bold';text-align:end;letter-spacing:0px;word-spacing:0px;text-anchor:end;fill:#ffffff;fill-opacity:1;stroke:none;stroke-width:1px;stroke-linecap:butt;stroke-linejoin:miter;stroke-opacity:1"
       id="text4559" />
    <g
       style="stroke-width:2.39995"
       transform="matrix(0.41667465,0,0,0.41667465,119.16707,94.520531)"
       id="g1434">
      <path
         id="path180"
         style="fill:#6f3175;fill-opacity:1;stroke-width:2.39995"
         d="m -138.90732,92.489763 c -7.31551,-1.022192 -14.13804,-4.987317 -18.63339,-10.82937 -2.54162,-3.303031 -4.25181,-7.151555 -5.17782,-11.651905 -0.78796,-3.829447 -0.62889,-8.968552 0.3972,-12.832292 1.33137,-5.013258 3.806,-9.348631 7.4127,-12.986525 3.20226,-3.229946 7.78563,-5.829593 12.309,-6.981549 2.92102,-0.74389 7.90424,-0.988272 11.17355,-0.54796 4.34675,0.585422 9.97481,2.732738 12.34196,4.708921 l 0.87192,0.727911 -2.97512,4.23231 c -1.63632,2.327769 -3.79713,5.396015 -4.8018,6.818325 l -1.82667,2.586017 -0.71119,-0.488524 c -2.27231,-1.560875 -5.96822,-2.359777 -8.84907,-1.912798 -7.37044,1.143564 -11.23962,9.160304 -7.88302,16.333211 1.00387,2.145215 2.86577,3.989361 5.1761,5.126725 1.77038,0.871564 1.94994,0.904769 4.89168,0.904769 2.90774,0 3.137,-0.04096 4.79242,-0.8559 1.69664,-0.835264 4.20341,-2.783946 4.20341,-3.267631 0,-0.133138 -1.07156,-0.242094 -2.38125,-0.242094 h -2.38125 v -5.55625 -5.556249 h 10.31875 10.31875 v 8.931883 8.93191 l -1.03606,1.585277 c -4.26024,6.518645 -10.56283,10.875618 -18.01394,12.453038 -2.25313,0.476991 -7.35146,0.674105 -9.53686,0.36875 z m 6.75874,-7.409736 c 5.31926,-0.757661 10.3812,-3.757718 13.53717,-8.023039 l 1.1472,-1.550459 v -5.262562 -5.262563 h -4.36562 -4.36563 v 1.058334 1.058333 h 3.175 3.175 v 4.062783 4.062783 l -1.65364,1.805807 c -2.07727,2.268432 -4.92571,4.143455 -7.70453,5.071587 -1.9214,0.641773 -2.5469,0.719666 -5.85537,0.729138 -4.13218,0.01191 -6.18017,-0.444156 -9.26042,-2.061818 -2.30607,-1.211104 -5.85606,-4.831133 -7.1007,-7.240773 -2.77161,-5.365935 -2.76422,-12.502186 0.0187,-18.071173 1.32659,-2.65465 4.4804,-5.86045 7.09389,-7.210827 3.17539,-1.640708 5.48489,-2.129989 9.36452,-1.983923 2.34691,0.08836 3.81175,0.28402 4.98489,0.665837 l 1.66134,0.540711 0.64207,-0.944891 c 0.35314,-0.519689 0.58904,-1.030682 0.52423,-1.135544 -0.0648,-0.10486 -1.10134,-0.467328 -2.3034,-0.805484 -3.15347,-0.887114 -8.67492,-0.899335 -11.6956,-0.02588 -3.59412,1.039262 -6.05218,2.497923 -8.77839,5.209285 -2.06405,2.052815 -2.5883,2.762901 -3.62157,4.905391 -1.55961,3.233859 -2.0278,5.031608 -2.21853,8.518795 -0.48446,8.857355 3.50047,15.99539 11.04902,19.791685 4.09587,2.05986 8.10965,2.731002 12.55033,2.098463 z m 73.818749,7.397618 c -7.988785,-1.104318 -14.287241,-4.491091 -18.768667,-10.092187 -4.245512,-5.306219 -6.211268,-11.724772 -5.892067,-19.238632 0.329054,-7.745738 2.826404,-13.540592 8.108649,-18.815325 3.549705,-3.544657 7.727148,-5.829477 13.125262,-7.178759 2.001293,-0.500232 3.106841,-0.593723 7.13099,-0.603031 5.099643,-0.0118 6.957362,0.25336 11.1125,1.586101 2.333607,0.748493 7.3171,3.106417 7.8031,3.692011 0.246536,0.297059 -0.526026,1.840979 -3.834982,7.663982 -2.705179,4.760494 -4.251013,7.229649 -4.452792,7.112431 -0.169992,-0.09875 -0.785326,-0.495491 -1.367409,-0.881637 -1.047716,-0.695044 -3.105134,-1.568328 -4.894792,-2.077624 -5.665618,-1.612308 -11.812681,0.877588 -14.291969,5.78903 -2.903824,5.752444 -0.673053,12.210534 5.227799,15.134523 2.166686,1.073653 2.389756,1.127099 5.087832,1.219465 4.097385,0.140229 7.246461,-0.791898 10.140431,-3.001619 l 1.204741,-0.919876 0.51307,0.856932 c 0.282186,0.471302 2.153306,3.753882 4.158043,7.294615 4.207418,7.431061 4.149228,6.576484 0.585867,8.603986 -2.288416,1.302067 -6.862125,2.916237 -9.921949,3.501681 -2.571581,0.492019 -8.391592,0.683207 -10.773657,0.353933 z m 10.285688,-7.920487 c 1.145985,-0.30271 2.66514,-0.845053 3.375904,-1.20523 l 1.292299,-0.654844 -0.530249,-1.039389 -0.530249,-1.039363 -1.678196,0.78531 c -3.291184,1.540139 -8.096978,1.99599 -12.292498,1.165992 -3.184295,-0.629973 -7.134765,-2.686976 -9.215252,-4.79843 -4.973225,-5.047218 -6.561678,-12.569931 -4.171493,-19.755667 0.834882,-2.509949 2.771106,-5.482723 4.747461,-7.288999 1.82865,-1.671282 5.546419,-3.554621 8.168506,-4.13798 1.499883,-0.333692 2.873595,-0.418433 5.506585,-0.33969 3.041232,0.09095 3.813998,0.210219 5.805999,0.896096 l 2.297835,0.791181 0.56629,-1.007576 0.566288,-1.007573 -0.990778,-0.413975 c -0.544925,-0.227684 -1.893313,-0.662149 -2.996417,-0.965475 -2.777905,-0.763857 -8.833607,-0.813872 -11.53064,-0.09523 -3.90021,1.039234 -7.097694,2.914865 -9.821691,5.761366 -3.850034,4.02318 -5.644187,8.630555 -5.649987,14.509141 -0.01066,10.805292 7.185457,18.821823 18.382095,20.477744 1.75065,0.258921 6.669522,-0.10152 8.698188,-0.637407 z m 41.3080644,8.043253 C -9.3254765,92.399222 -12.331011,91.965649 -15.004308,91.40767 l -2.711979,-0.566076 v -7.997666 -7.997666 l 2.579687,0.618754 c 3.21519,0.771208 8.261668,1.298469 9.972411,1.041929 1.688174,-0.253153 2.7937356,-1.294897 2.7937356,-2.632445 0,-1.275292 -0.8742628,-2.215965 -5.5720724,-5.995326 -4.0123272,-3.227872 -5.4169472,-4.63786 -7.0079132,-7.034752 -1.923521,-2.897918 -2.765848,-5.666891 -2.765848,-9.092184 0,-6.024382 2.852605,-10.719006 8.0384384,-13.229087 2.8024139,-1.35645 6.2583751,-2.109401 9.68864526,-2.11087 2.26176424,-0.0011 8.47502784,0.574239 9.98802124,0.924658 l 0.5953121,0.13788 v 7.341648 7.341647 l -3.6970755,-0.0045 c -3.650721,-0.0044 -3.7058867,0.0043 -4.4006031,0.697963 -1.1268341,1.125093 -0.7739328,1.709632 2.8741953,4.76068 6.1238873,5.121619 8.4672493,8.05321 10.0794083,12.609509 0.7366,2.081795 0.8137,2.601807 0.811715,5.475261 -0.0037,5.260023 -1.250288,8.663331 -4.313528,11.775387 -1.38729,1.409409 -2.2730889,2.029037 -4.2645283,2.983098 -1.382448,0.662278 -3.3469793,1.387157 -4.3656252,1.610809 -1.8852357,0.413888 -7.6556927,0.720434 -10.0541671,0.534088 z M 1.2580955,84.60547 C 4.8714044,83.478769 7.0587678,81.463517 7.9876406,78.405436 8.7978741,75.737881 8.5930073,73.532896 7.2863095,70.856768 6.3749257,68.990292 5.7725223,68.303248 0.16274688,62.732446 -6.1907724,56.423062 -7.1469237,55.196573 -7.5265478,52.869052 c -0.2798234,-1.715439 0.28194,-3.623408 1.4175052,-4.814453 1.3589001,-1.425316 3.0126783,-1.858611 7.09390285,-1.858611 H 4.2441302 v -1.023715 c 0,-0.977413 -0.044873,-1.031132 -0.9921876,-1.187712 -1.7601671,-0.290941 -4.9412262,-0.180454 -6.5009186,0.225793 -4.3483744,1.132607 -6.2437701,3.186853 -6.4704651,7.012717 -0.1462616,2.468026 0.177853,3.699569 1.5201901,5.776402 1.4055461,2.174658 2.617523,3.459768 7.0592953,7.485306 3.9709727,3.598812 6.1782857,6.230887 6.8352197,8.150518 0.2205302,0.644393 0.3997854,1.954081 0.3983567,2.910417 -0.00476,3.194685 -1.5971838,5.459598 -4.6720656,6.64509 -1.97365951,0.760941 -6.5760603,0.968454 -9.9507151,0.44868 -1.2772496,-0.196718 -2.378578,-0.30136 -2.447396,-0.232542 -0.06884,0.06884 -0.125148,0.524986 -0.125148,1.013645 0,1.086935 0.379016,1.265052 3.479377,1.635125 3.0553555,0.364702 6.8905705,0.170259 8.8804225,-0.450242 z M 93.132281,92.471744 C 88.814016,91.913262 83.770475,89.857608 80.203045,87.202038 72.921923,81.781996 68.798365,73.613224 68.804477,64.621447 c 0.0026,-3.466926 0.292947,-5.477354 1.220973,-8.446886 3.507026,-11.222032 13.634165,-19.081599 25.367643,-19.687572 19.291587,-0.996312 33.873467,17.322805 28.546477,35.86277 -3.82929,13.327327 -16.9717,21.911389 -30.807289,20.121985 z m 9.265019,-7.918105 c 5.73733,-1.615573 10.52576,-5.626391 13.10085,-10.973276 1.6135,-3.35026 2.08642,-5.440469 2.06523,-9.128125 -0.0405,-7.048251 -3.25292,-13.064421 -9.1608,-17.156168 -4.62333,-3.202083 -11.725782,-4.340677 -17.110529,-2.742988 -6.712585,1.991669 -11.923211,7.021232 -14.174021,13.681448 -0.567981,1.680696 -0.742156,2.777013 -0.845635,5.32271 -0.146341,3.600016 0.25191,6.010081 1.499976,9.076893 2.099178,5.15829 7.243181,9.933199 12.556649,11.655637 3.592751,1.164643 8.489236,1.271719 12.06828,0.263869 z M 92.412085,82.478776 C 86.077801,80.866564 81.085563,75.99458 79.091716,69.479321 c -0.77224,-2.523461 -0.829495,-6.899153 -0.124672,-9.525 1.742414,-6.491324 6.878241,-11.599277 13.318729,-13.246481 2.52005,-0.644511 6.613843,-0.682558 9.043537,-0.08404 2.37413,0.584824 5.94638,2.466541 7.77275,4.094347 6.57508,5.860259 8.14421,15.724309 3.69416,23.222529 -2.16982,3.656065 -6.34092,6.977036 -10.39167,8.27368 -2.487717,0.796316 -7.392669,0.926121 -9.992465,0.264424 z m 9.047935,-7.526311 c 4.50707,-2.082614 7.00161,-6.270969 6.71221,-11.26986 -0.3724,-6.43296 -6.54217,-11.384804 -12.913784,-10.364547 -4.685771,0.750313 -8.458385,4.235553 -9.506638,8.782505 -1.258755,5.46018 2.035545,11.316843 7.449,13.242903 2.161117,0.768933 6.158548,0.579676 8.259212,-0.391001 z M -270.65797,64.584529 V 37.729322 l 7.07761,0.0058 7.0776,0.0058 6.99578,10.31535 c 3.84768,5.673442 7.07533,10.224947 7.17256,10.114457 0.0972,-0.11049 3.24984,-4.755031 7.00581,-10.321202 l 6.82903,-10.120313 h 7.09893 7.09894 v 26.855208 26.855221 h -8.5957 -8.5957 l -0.0694,-9.675812 -0.0694,-9.675786 -5.40711,7.955994 c -2.97391,4.375812 -5.42337,7.956021 -5.44324,7.956021 -0.0199,0 -2.46823,-3.566504 -5.44081,-7.925594 -2.97257,-4.359063 -5.49397,-7.930938 -5.60311,-7.937499 -0.10914,-0.0066 -0.19844,4.333874 -0.19844,9.645385 v 9.657291 h -8.46667 -8.46667 V 64.584516 Z m 10.11852,2.067296 0.0679,-18.437915 8.9458,13.013957 c 4.92019,7.157667 8.9907,13.013954 9.04557,13.013954 0.0549,0 4.06599,-5.798344 8.91358,-12.885208 l 8.8138,-12.885208 0.068,18.309166 0.068,18.309166 h 1.18881 1.18882 V 64.570033 44.050328 l -1.22548,0.08064 -1.22548,0.08064 -8.79431,12.964583 c -4.83687,7.130521 -8.89415,12.951751 -9.01618,12.936061 -0.12203,-0.01561 -4.18869,-5.849747 -9.03702,-12.96458 l -8.81514,-12.936064 -1.18382,-0.08064 -1.18383,-0.08064 v 20.519705 20.519704 h 1.05654 1.05653 z m 48.23367,23.005679 c 0.3655,-0.984303 4.93291,-13.041048 10.1498,-26.792766 l 9.48525,-25.003125 6.44857,-0.06915 6.44857,-0.06915 10.05417,26.501084 c 5.52979,14.575589 10.09266,26.661782 10.13971,26.858209 0.0704,0.294031 -1.38648,0.357134 -8.24634,0.357134 h -8.33189 l -0.46463,-1.256771 c -0.25554,-0.691224 -0.66807,-1.792552 -0.91674,-2.447395 l -0.45213,-1.190625 -8.19264,-0.06985 -8.19263,-0.06988 -0.90485,2.451127 -0.90486,2.4511 -8.39195,0.06985 -8.39196,0.06988 z m 12.04659,-6.552142 0.70271,-1.852083 13.33644,-0.06853 13.33643,-0.06855 0.73884,1.986783 0.73884,1.986756 h 1.20229 c 0.84606,0 1.16862,-0.098 1.08864,-0.330729 -0.0625,-0.181901 -3.55783,-9.412287 -7.76737,-20.511984 l -7.65372,-20.181254 -1.68104,0.07292 -1.68104,0.07292 -7.25347,19.05 c -3.9894,10.4775 -7.4902,19.681639 -7.77955,20.45364 l -0.52608,1.403615 1.24769,-0.0807 1.24768,-0.08072 z m 2.24394,-5.886979 c 3.70874,-9.863822 11.5949,-30.402722 11.7312,-30.553011 0.12405,-0.136787 11.24492,28.548951 12.40892,32.00822 0.088,0.261487 -2.49804,0.330729 -12.35017,0.330729 h -12.46145 z m 15.4009,-2.778125 c -1.43263,-3.9733 -3.53937,-9.133117 -3.66987,-8.988234 -0.14357,0.159385 -0.83634,1.918581 -3.43536,8.723651 l -0.22737,0.595313 h 3.72593 c 2.86795,0 3.69846,-0.07615 3.60667,-0.33073 z m 76.79181,-9.855729 V 37.729322 h 8.995832 8.995834 v 26.855207 26.855208 h -8.995834 -8.995832 z m 10.318749,0 V 44.079322 h -1.190625 -1.190625 v 20.505207 20.505208 h 1.190625 1.190625 z m 115.622922,0 V 37.729322 h 8.598959 8.598958 v 9.128124 9.128125 h 4.894792 4.894792 v -9.128125 -9.128124 h 8.466667 8.466667 v 26.855207 26.855208 h -8.463492 -8.463465 l -0.06935,-9.98802 -0.06932,-9.988021 -4.828646,-0.07212 -4.828646,-0.0721 V 81.379591 91.439737 H 28.71809 20.119131 Z m 10.31875,10.31875 V 64.716821 H 42.21184 53.985799 v 10.186458 10.186458 h 1.058333 1.058334 V 64.584529 44.079322 h -1.058334 -1.058333 v 9.260416 9.260416 H 42.21184 30.437881 v -9.260416 -9.260416 h -1.190625 -1.190625 v 20.505207 20.505208 h 1.190625 1.190625 z M 140.00206,90.844425 c -0.12364,-0.327422 -4.06702,-12.263438 -8.76303,-26.524479 -4.69601,-14.261041 -8.59385,-26.079574 -8.66182,-26.263404 -0.0984,-0.266009 1.72849,-0.320018 8.94982,-0.264583 l 9.07343,0.06965 3.01374,9.228217 c 1.65754,5.075518 3.10978,9.123643 3.2272,8.995833 0.11743,-0.127812 1.56607,-4.310274 3.21927,-9.294362 l 3.00577,-9.061979 h 5.82666 5.82665 l 3.00577,9.061979 c 1.6532,4.984088 3.09912,9.163814 3.21318,9.288279 0.11409,0.124468 1.58184,-3.923657 3.26171,-8.995833 l 3.05429,-9.222134 9.0093,-0.06962 c 4.95512,-0.03829 9.00176,0.02125 8.99256,0.132291 -0.009,0.111051 -3.9718,12.167693 -8.80579,26.792536 l -8.78903,26.590625 -6.61615,0.07056 -6.61614,0.07056 -2.63589,-7.957687 c -1.44973,-4.376711 -2.75494,-7.960281 -2.90046,-7.963429 -0.14553,-0.0032 -1.42952,3.575791 -2.85335,7.953242 l -2.58876,7.959037 h -6.61205 -6.61207 z m 13.51076,-22.423437 c 2.88645,-9.095052 5.28024,-16.633052 5.31958,-16.751112 0.0393,-0.11806 2.46317,7.323346 5.38631,16.536455 l 5.31479,16.751115 1.07913,0.08054 1.07916,0.08054 6.65408,-20.160239 c 3.65974,-11.088129 6.71613,-20.321949 6.79199,-20.519601 0.10379,-0.27047 -0.16134,-0.359362 -1.0718,-0.359362 h -1.2097 l -6.01748,18.256249 c -3.30962,10.040937 -6.08197,18.254054 -6.16079,18.251381 -0.0788,-0.0026 -2.16191,-6.402255 -4.6291,-14.22134 -7.75589,-24.580376 -7.05498,-22.538036 -7.42156,-21.624832 -0.17524,0.436562 -2.80652,8.680548 -5.84732,18.319969 -3.04078,9.639424 -5.58993,17.527315 -5.66481,17.528638 -0.0748,0.0026 -2.84615,-8.212879 -6.15842,-18.253816 L 134.9346,44.079322 h -1.16771 -1.16772 l 0.36656,1.124479 c 0.20161,0.618463 3.23903,9.852233 6.74986,20.51949 l 6.38331,19.395021 1.08294,-0.08043 1.08294,-0.08043 z"
         inkscape:export-xdpi="200.00142"
         inkscape:export-ydpi="200.00142" />
      <path
         id="path226"
         style="fill:#bb383f;fill-opacity:1;stroke-width:2.39995"
         d="m 146.0608,29.34031 c -4.66196,-0.285263 -13.78048,-1.722707 -19.24844,-3.034326 l -2.44739,-0.587065 V 9.2700669 -7.1787875 l 1.69833,0.4709318 c 2.77151,0.7685167 9.33755,2.0535741 12.8687,2.5185687 4.82949,0.6359604 11.10176,0.6481895 12.88921,0.025135 2.4783,-0.8638645 3.76925,-2.6513286 3.75732,-5.2023564 -0.0114,-2.4154836 -2.03745,-4.5730976 -10.55958,-11.2447906 -9.72703,-7.614994 -14.30581,-12.635053 -17.61675,-19.314583 -2.43626,-4.914903 -3.07496,-7.512622 -3.2363,-13.162471 -0.14656,-5.132141 0.14673,-7.659843 1.31254,-11.311487 2.8684,-8.984827 8.98956,-15.188459 18.51798,-18.767491 8.75083,-3.286969 17.96351,-3.549584 36.26178,-1.033669 l 2.3151,0.318315 v 15.385399 15.385401 l -2.84427,-0.356674 c -3.4758,-0.435869 -9.52873,-0.486106 -11.2718,-0.09355 -2.52384,0.568388 -3.87559,1.742514 -3.87559,3.366299 0,1.849879 0.47482,2.360049 8.20208,8.81253 5.56998,4.651097 10.91131,9.850844 12.91087,12.568626 3.37781,4.591081 6.09008,10.058958 7.29573,14.707896 2.14421,8.2681068 1.05304,18.4753268 -2.76952,25.906917 -5.09016,9.89597 -15.15732,15.924704 -29.13447,17.447217 -2.33807,0.254683 -11.46003,0.311106 -15.02553,0.09294 z m 13.5336,-15.675765 c 5.73151,-0.98652 9.27013,-2.687172 12.66767,-6.0880125 3.4744,-3.477797 5.11064,-7.16873178 5.45838,-12.3128349 0.30276,-4.4784988 -0.81224,-8.4598456 -3.55751,-12.7029206 -2.89264,-4.470797 -5.67169,-7.488235 -12.49172,-13.563216 -13.79508,-12.288052 -17.65792,-18.008753 -16.70587,-24.740772 0.42794,-3.026113 1.3634,-4.912021 3.3655,-6.784874 3.28192,-3.07009 8.07553,-3.977405 17.63985,-3.338804 l 3.10885,0.207577 v -2.239669 -2.239669 l -4.16718,-0.311171 c -13.17258,-0.983615 -21.83982,3.254097 -24.00838,11.73852 -2.26718,8.870338 1.61007,16.327471 14.41723,27.72869 9.36588,8.337724 12.49648,11.611609 15.15967,15.853589 2.03267,3.237653 2.6951,5.449541 2.67669,8.9375113 -0.0254,4.8211342 -1.31212,8.097414 -4.26485,10.8595422 -2.68809,2.5145576 -6.25739,4.0639999 -10.95203,4.7542714 -4.12657,0.6067501 -14.51554,-0.052996 -19.14967,-1.2160912 L 138.1233,8.038622 v 2.259812 c 0,1.92201 0.0692,2.280925 0.46302,2.401046 0.4594,0.140131 7.28528,1.121402 9.06198,1.302729 3.09904,0.316282 9.13863,0.145568 11.9461,-0.337664 z m -429.7232,-41.948764 v -55.165623 l 14.48594,7.93e-4 14.48594,7.94e-4 14.37924,21.165817 c 7.90859,11.641198 14.45703,21.160232 14.55209,21.153408 0.0951,-0.0068 6.59271,-9.531826 14.43922,-21.166666 l 14.26639,-21.154146 h 14.50705 14.50705 v 55.165623 55.165624 h -17.59311 -17.59312 l -0.0678,-19.8992536 -0.0678,-19.8992534 -10.94914,16.1289409 c -6.02202,8.8709181 -11.08307,16.2744091 -11.24677,16.4522011 -0.22658,0.246089 -2.98163,-3.595978 -11.54045,-16.0938256 l -11.24281,-16.4170884 -0.0678,19.8641409 -0.0678,19.8641381 h -17.59312 -17.59312 z m 20.96733,4.224322 0.067,-37.712136 18.38307,26.752012 c 17.95458,26.1284586 18.39356,26.7390508 18.8334,26.1958797 0.24768,-0.3058742 8.52499,-12.3590417 18.39401,-26.7848207 l 17.94369,-26.228688 0.067,37.744945 0.067,37.744944 h 2.24806 2.24806 v -41.936458 -41.936457 l -2.31511,0.007 -2.3151,0.007 -18.35971,27.105702 -18.3597,27.105699 -5.26853,-7.731979 c -2.89769,-4.252595 -11.18552,-16.447021 -18.41738,-27.098728 l -13.14885,-19.36674 -2.31511,-0.01399 -2.3151,-0.01399 v 41.936457 41.936458 h 2.24805 2.24806 z m 97.41787,50.480205 c 0.0843,-0.25572 9.48232,-25.0513501 20.88442,-55.101402 l 20.73109,-54.636457 h 13.173501 13.173504 l 20.728912,54.636457 c 11.400902,30.0500519 20.796902,54.845682 20.880005,55.101402 0.143245,0.44079 -0.745146,0.461407 -17.10348,0.396875 l -17.25457,-0.06807 -1.415264,-3.836459 c -0.778396,-2.110052 -1.604484,-4.342474 -1.835753,-4.960937 l -0.420489,-1.124479 h -16.757275 -16.757271 l -0.42049,1.124479 c -0.23127,0.618463 -1.05736,2.850885 -1.83576,4.960937 l -1.41526,3.836459 -17.25457,0.06807 c -16.35906,0.06453 -17.24662,0.04394 -17.10125,-0.396875 z m 25.49123,-15.494069 c 0.58105,-1.499298 1.27622,-3.3447667 1.54483,-4.1010411 l 0.48837,-1.3750422 h 27.260171 27.26017 l 0.488373,1.3750422 c 0.268605,0.7562744 0.963777,2.6017431 1.544831,4.1010411 l 1.056457,2.726 h 2.353731 c 1.294551,0 2.353731,-0.07617 2.353731,-0.16927 0,-0.0931 -0.548288,-1.611143 -1.218417,-3.373437 -0.670129,-1.7622921 -7.587716,-19.9324489 -15.372411,-40.378126 -7.784696,-20.445676 -14.388715,-37.799035 -14.675595,-38.56302 l -0.521599,-1.389062 h -3.269271 -3.269271 l -0.52107,1.389062 c -0.28658,0.763985 -5.48457,14.426406 -11.55109,30.360937 -6.06652,15.934531 -12.98434,34.1051669 -15.37295,40.3791891 -2.3886,6.2740247 -4.34291,11.4830089 -4.34291,11.5755209 0,0.09251 1.05918,0.168206 2.35373,0.168206 h 2.35373 z m 3.76108,-9.82006 c 0,-0.060854 5.66898,-14.973432 12.59773,-33.139062 6.92875,-18.16563 12.673798,-33.23042 12.766762,-33.47731 0.105037,-0.278953 4.967933,12.141395 12.845336,32.808332 6.971972,18.291474 12.7292,33.40605325 12.79384,33.58795429 0.0935,0.26311221 -5.108297,0.33072911 -25.44307,0.33072911 -14.058328,0 -25.560598,-0.049789 -25.560598,-0.1106434 z m 33.072916,-8.4526912 c 0,-0.161073 -7.183917,-18.7945098 -7.391887,-19.1728698 -0.115906,-0.210865 -1.654765,3.446442 -3.840779,9.128125 -2.00606,5.213974 -3.70539,9.6287828 -3.77629,9.8106838 -0.10129,0.259879 1.49251,0.3307292 7.440023,0.3307292 4.162914,0 7.568933,-0.0435 7.568933,-0.096668 z m 52.387502,-6.5179148 V -54.61026 H -47.21733 -57.403789 v -14.419791 -14.419791 h 38.364585 38.364585 v 14.419791 14.419791 H 9.1389221 -1.0475367 v 40.745833 40.745832 H -19.039204 -37.030872 Z m 20.372918,-12.435417 V -66.251926 H -4.8839952 6.8899636 v -1.984375 -1.984375 H -19.039204 -44.968372 v 1.984375 1.984375 h 11.773959 11.773959 v 39.952082 39.952083 h 2.38125 2.38125 z m 42.068752,-1.984375 v -55.165623 h 17.462501 17.4625 v 18.785416 18.785416 h 10.054168 10.054167 v -18.785416 -18.785416 h 17.594792 17.594794 v 55.165623 55.165624 H 98.040567 80.447388 l -0.06776,-20.4390618 -0.06779,-20.4390622 -9.988021,-0.06933 -9.988022,-0.06933 V 6.3730144 26.881405 h -17.4625 -17.462501 z m 20.902084,21.034375 v -20.902083 h 24.209376 24.209376 v 20.902083 20.902083 h 2.248959 2.248958 v -41.936458 -41.936457 h -2.248958 -2.248959 v 18.917708 18.917708 H 70.522258 46.312882 v -18.917708 -18.917708 h -2.248958 -2.248959 v 41.936457 41.936458 h 2.248959 2.248958 z"
         inkscape:export-xdpi="200.00142"
         inkscape:export-ydpi="200.00142" />
      <path
         id="path250"
         style="fill:#2a5a72;fill-opacity:1;stroke-width:2.39995"
         d="m -11.030055,-93.264273 c -3.142112,-0.226705 -7.706466,-1.195199 -10.787274,-2.288913 -2.871259,-1.019315 -8.205563,-3.849295 -10.97356,-5.821734 -8.361903,-5.95859 -14.59355,-15.60641 -16.988585,-26.30169 -0.541504,-2.41815 -0.612857,-3.42986 -0.612857,-8.6899 0,-5.27063 0.07071,-6.26896 0.616755,-8.7081 3.984212,-17.79708 17.114423,-30.57935 34.969705,-34.04306 3.776954,-0.73268 11.8583613,-0.67918 15.50278519,0.10264 4.69876211,1.008 7.29506551,1.88974 11.08784181,3.7656 4.668864,2.30916 7.961207,4.65534 11.503263,8.19738 5.982759,5.98277 10.04324,13.48409 11.956786,22.08893 0.508212,2.28533 0.588566,3.43214 0.59317,8.46432 0.0045,5.05098 -0.07287,6.17948 -0.585682,8.53256 -2.952195,13.54596 -11.139753,24.23956 -23.191789,30.290284 -3.3388299,1.676252 -5.2421631,2.394315 -8.5249545,3.216166 -4.7118589,1.179627 -9.4246439,1.566442 -14.5656045,1.195517 z m 9.0008876,-11.746817 c 11.4202639,-1.99153 20.9598164,-10.00194 24.7373784,-20.77208 1.333077,-3.80077 1.751912,-6.32586 1.755405,-10.58334 0.0026,-2.64228 -0.1397,-4.51109 -0.455798,-6.00383 -2.592705,-12.24382 -11.253338,-21.51259 -23.2032713,-24.83259 -2.0611836,-0.57265 -3.2754095,-0.72339 -6.7468753,-0.83756 -4.6607154,-0.15329 -6.6766284,0.0666 -10.3375624,1.12747 -6.503935,1.88477 -12.367213,6.01754 -16.683409,11.7594 -8.02414,10.67458 -8.199258,25.92938 -0.423714,36.91107 3.279923,4.63236 7.188105,7.93898 12.363435,10.46038 2.910496,1.41799 6.760448,2.62377 9.525,2.98318 2.0549396,0.26716 7.4088101,0.14724 9.4694116,-0.2121 z m -11.2150266,-3.54579 c -5.210228,-1.13672 -10.00641,-3.75621 -13.861363,-7.57056 -3.966406,-3.92465 -6.32151,-7.99185 -7.884499,-13.61634 -0.461758,-1.66166 -0.555752,-2.76138 -0.566047,-6.62273 -0.01138,-4.26721 0.04511,-4.83763 0.720479,-7.27604 3.19635,-11.54034 13.069201,-19.92885 24.751878,-21.03057 10.22548496,-0.96429 19.6723804,3.28981 25.8032,11.61964 6.118781,8.31346 7.149227,19.36162 2.684806,28.7861 -3.507211,7.40378 -10.2727126,13.11104 -18.13769062,15.30063 -3.45553788,0.96201 -10.06144318,1.16241 -13.51076338,0.40987 z m 10.7009147,-11.05625 c 1.96609239,-0.57797 5.252879,-2.34519 6.6516253,-3.57642 2.6255135,-2.31106 4.6955342,-5.72374 5.5813063,-9.20138 0.6689197,-2.62621 0.4156607,-7.18478 -0.544195,-9.79641 -2.5531499,-6.94663 -9.16379127,-11.63248 -16.4107026,-11.63248 -7.9376587,0 -14.9548327,5.4731 -16.9604007,13.22835 -0.58211,2.25097 -0.573802,6.2124 0.01773,8.45377 1.265687,4.79601 4.466458,8.82073 8.781362,11.04192 2.357015,1.21332 3.559255,1.63871 5.489602,1.94242 1.7921023,0.28195 5.6964265,0.0392 7.3937022,-0.45977 z m 75.1776803,26.363859 c -5.082303,-0.342783 -10.867338,-1.782905 -14.54756,-3.621447 -4.009258,-2.002925 -8.013462,-5.465202 -10.277026,-8.886172 -2.463482,-3.72309 -4.323344,-9.22005 -4.914715,-14.52575 -0.18706,-1.6782 -0.286385,-12.0702 -0.286385,-29.96407 v -27.3948 h 13.096876 13.096875 l 0.0056,0.99219 c 0.0029,0.5457 0.0053,12.02986 0.005,25.52034 -2.65e-4,14.3737 0.106362,25.37075 0.257572,26.56345 0.282786,2.23036 1.165727,4.44754 2.145638,5.38801 1.30519,1.25264 2.807044,1.70625 5.656157,1.70833 2.310077,0.002 2.813712,-0.0832 3.96875,-0.66888 1.44788,-0.73418 2.828793,-2.33063 3.357484,-3.88148 0.260958,-0.76552 0.353245,-7.08334 0.413438,-28.30373 l 0.0775,-27.31823 h 13.23303 13.233055 l -0.0941,29.17031 c -0.0836,25.91527 -0.14277,29.38707 -0.53039,31.11277 -1.64536,7.32491 -4.08768,11.98775 -8.3553,15.9519 -5.218882,4.847751 -12.317441,7.513163 -21.731608,8.159932 -2.110052,0.144962 -4.074583,0.247901 -4.365625,0.22875 -0.291041,-0.01915 -1.840891,-0.12329 -3.444108,-0.231423 z m 9.56101,-11.771139 c 3.920993,-0.67398 6.236044,-1.59314 9.165035,-3.63886 3.168544,-2.21305 5.795407,-6.42825 6.879034,-11.03849 0.587375,-2.49893 0.590815,-2.64653 0.592006,-25.4 v -22.88646 h -1.719792 -1.719792 l -0.138192,23.41563 c -0.153564,26.02143 -0.04863,24.51808 -1.988555,28.49197 -1.909895,3.91237 -5.363766,6.39054 -10.481496,7.52051 -2.118096,0.46767 -3.099515,0.52847 -6.838633,0.42366 -4.864232,-0.13635 -6.447737,-0.45653 -9.411362,-1.90297 -4.547923,-2.2197 -7.017306,-5.96465 -7.931388,-12.02836 -0.308187,-2.04441 -0.381503,-6.69703 -0.382773,-24.29075 l -3.7e-4,-21.76198 h -1.584378 -1.584378 l -0.06927,21.23281 c -0.0381,11.67805 0.01402,22.3336 0.115861,23.679 0.570494,7.53839 3.98399,13.16852 9.74815,16.07829 2.035651,1.02761 4.778401,1.89605 7.000055,2.21644 2.628159,0.37901 7.825423,0.32355 10.350236,-0.11044 z m -352.324211,9.817893 c 0,-0.06106 5.02101,-9.669983 11.15781,-21.353183 6.13679,-11.6832 11.56063,-22.23023 12.05297,-23.43785 2.26079,-5.54528 2.13831,-9.85242 -0.35599,-12.51903 -1.45572,-1.55628 -3.13781,-2.30519 -5.98783,-2.66592 -1.96664,-0.24892 -5.6828,-0.14323 -6.87894,0.19564 -0.43587,0.12349 -0.46302,-0.54223 -0.46302,-11.3556 v -11.48679 l 2.71198,-0.50344 c 3.78988,-0.70354 13.33348,-0.71102 17.50598,-0.0137 10.5402,1.76145 17.81658,6.44614 21.4311,13.79778 1.85599,3.77493 2.14011,5.25329 2.13568,11.1125 -0.003,4.62351 -0.0602,5.22956 -0.70604,7.54932 -1.35123,4.85329 -2.76139,8.14029 -7.88512,18.37984 -2.83985,5.67531 -5.20306,10.40805 -5.25156,10.51719 -0.0485,0.10914 3.38744,0.19844 7.63545,0.19844 h 7.72365 l -0.17815,0.7276 c -0.098,0.40018 -1.6651,5.28174 -3.48248,10.84792 l -3.30434,10.120311 h -23.93057 c -13.16182,0 -23.93058,-0.04995 -23.93058,-0.111008 z m 41.83054,-11.133783 c 0.2763,-0.7276 0.50246,-1.41221 0.50258,-1.52135 1.2e-4,-0.10915 -4.53408,-0.19844 -10.076,-0.19844 -5.54192,0 -10.03653,-0.10096 -9.98802,-0.22436 0.0485,-0.1234 3.50621,-6.7016 7.68379,-14.61823 10.04104,-19.02807 11.13798,-21.80916 11.15618,-28.28449 0.0152,-5.39488 -1.08934,-8.42463 -4.20819,-11.54348 -2.06498,-2.06498 -4.89709,-3.6598 -7.929,-4.46499 -1.77418,-0.47117 -6.2799,-0.90176 -7.52452,-0.71908 -0.79366,0.11648 -0.80986,0.14871 -0.80986,1.61129 v 1.49244 l 2.5153,0.0597 c 12.07717,0.28646 17.43822,8.94088 13.23744,21.36936 -1.06231,3.14298 -3.20921,7.45808 -11.73949,23.59546 -4.24458,8.02979 -7.71741,14.66872 -7.71741,14.75316 0,0.0844 5.48883,0.12259 12.19741,0.0848 l 12.19741,-0.0688 z m 43.3653,5.42396 v -5.82084 h -14.15521 -14.15521 v -4.83531 -4.83531 l 16.38707,-30.55271 16.38706,-30.55271 10.46814,-0.0692 10.46815,-0.0692 v 23.94783 23.94783 h 2.51354 2.51354 v 11.50937 11.50937 h -2.51354 -2.51354 v 5.82084 5.820831 h -12.7 -12.7 z m 13.49375,-9.78959 v -5.82083 h 2.77812 2.77813 v -1.5875 -1.5875 h -2.77813 -2.77812 v -24.20937 -24.20938 h -0.65536 c -0.40052,0 -0.81779,0.2479 -1.07307,0.63752 -0.22975,0.35063 -6.47306,11.92946 -13.87404,25.73072 l -13.45632,25.09322 12.94189,0.0686 12.9419,0.0686 v 5.81834 5.81834 h 1.5875 1.5875 z m -23.50382,-9.22338 c 0.23854,-0.61546 20.12939,-37.60786 20.22178,-37.60786 0.0589,0 0.10704,8.51296 0.10704,18.9177 v 18.91771 h -10.20851 c -5.61468,0 -10.16882,-0.1024 -10.12031,-0.22755 z m 69.8059,-16.4412 v -41.275 h 13.09688 13.096875 v 14.02292 14.02292 h 7.408334 7.408334 v -14.02292 -14.02292 h 13.229167 13.229167 v 41.275 41.275001 H -70.89754 -84.126707 v -15.345831 -15.34583 h -7.408334 -7.408334 v 15.34583 15.345831 h -13.096875 -13.09688 z m 15.61042,15.74271 v -15.74271 h 18.123961 18.123959 v 15.74271 15.74271 h 1.720866 1.720869 l -0.06722,-31.55156 -0.06722,-31.55157 h -1.5875 -1.5875 l -0.06845,14.22136 -0.06844,14.22135 h -18.119363 -18.119362 l -0.0684,-14.22135 -0.0685,-14.22136 h -1.5875 -1.5875 l -0.0672,31.55157 -0.0672,31.55156 h 1.72087 1.72086 z m 229.12918,-15.75795 V -177.672 l 17.79323,0.0993 17.79323,0.0993 3.20474,0.70429 c 1.76263,0.38735 4.26294,1.07759 5.55625,1.53386 13.95867,4.92445 21.58958,16.33902 20.92703,31.30344 -0.37145,8.38998 -4.02031,15.89394 -10.07935,20.72834 l -1.02884,0.82089 7.40982,13.05022 c 4.0754,7.17762 7.54888,13.318107 7.71888,13.645529 l 0.30906,0.595312 -15.4213,-0.01016 -15.42129,-0.01016 -6.08542,-10.332331 c -3.34698,-5.68279 -6.17471,-10.38821 -6.28385,-10.4565 -0.10914,-0.0683 -0.19844,4.58584 -0.19844,10.3425 v 10.466659 h -13.09688 -13.09687 v -41.290249 z m 15.61042,22.14998 v -9.35069 l 7.20989,-0.16828 c 4.50094,-0.10506 8.15258,-0.32384 9.71889,-0.58227 2.14977,-0.35472 2.54751,-0.36077 2.77812,-0.0423 0.14804,0.20444 2.82062,4.67427 5.93908,9.93296 l 5.66992,9.56124 h 1.93685 c 1.06527,0 1.93683,-0.0512 1.93683,-0.11386 0,-0.0626 -2.73844,-4.71693 -6.08542,-10.3429 -3.34698,-5.62598 -6.08396,-10.30747 -6.08216,-10.40333 0.003,-0.0959 0.83643,-0.51157 1.85476,-0.9238 5.32003,-2.15365 9.93743,-6.91096 11.49583,-11.84418 2.46615,-7.80672 0.85423,-15.95408 -4.22455,-21.35286 -3.8444,-4.0866 -8.55168,-6.41805 -15.347,-7.60114 -2.12278,-0.36959 -4.37192,-0.46662 -11.37709,-0.49085 l -8.73125,-0.0302 -0.0672,31.55157 -0.0672,31.55156 h 1.72085 1.72088 z m 0,-31.66012 v -19.13279 l 7.60677,0.17192 c 8.14615,0.18411 10.81471,0.52221 14.36849,1.82047 4.58978,1.67674 8.49863,4.92133 10.15592,8.43007 1.49254,3.15998 1.86267,4.92986 1.84933,8.843 -0.013,3.82604 -0.39777,5.70549 -1.76035,8.59896 -1.14998,2.44209 -4.37642,5.59412 -7.21704,7.05065 -4.71109,2.41561 -7.80867,2.97514 -17.66094,3.19023 l -7.34218,0.16028 z m 16.07851,8.33274 c 3.49716,-0.82454 5.9898,-2.7309 6.84975,-5.2387 0.67887,-1.97974 0.61068,-5.41112 -0.14653,-7.37257 -1.24677,-3.22961 -4.80218,-5.1252 -9.94944,-5.30461 l -2.11667,-0.0738 -0.0696,9.19427 -0.0696,9.19427 1.92164,-0.004 c 1.05693,-0.002 2.66808,-0.1799 3.58039,-0.39499 z"
         inkscape:export-xdpi="200.00142"
         inkscape:export-ydpi="200.00142" />
      <g
         style="stroke-width:2.39995"
         id="g1325"
         inkscape:export-xdpi="200.00142"
         inkscape:export-ydpi="200.00142">
        <path
           style="fill:#000000;fill-opacity:1;stroke-width:2.39995"
           d="m 199.59726,23.453277 c 13.315,30.967989 56.3868,12.916069 96.28153,21.600657 C 244.8268,2.8957048 214.53661,-1.8497391 199.54143,22.993372 c 0.12776,0.08669 -0.006,0.60143 0.0558,0.459905 z"
           id="path4384"
           sodipodi:nodetypes="ccccc"
           inkscape:export-xdpi="800"
           inkscape:export-ydpi="800" />
        <g id="calculator">
        <g
           style="stroke-width:4.10454;"
           transform="matrix(0.5792095,0.07910547,-0.07915291,0.57944532,7.6721058,-144.71238)">
          <path
             inkscape:export-ydpi="300.01001"
             inkscape:export-xdpi="300.01001"
             sodipodi:nodetypes="cssccsscsscszc"
             inkscape:connector-curvature="0"
             id="path4169"
             d="m 570.83136,326.35072 c 24.19047,0 76.40159,0 82.44921,-14.31269 6.04762,-14.31269 4.03174,-17.73968 4.03174,-22.37618 0,-4.63651 -4.83809,-121.55715 -4.83809,-121.55715 l 6.2492,-88.496837 c 0,0 -1.00793,-7.660317 -3.62857,-12.296825 -2.62063,-4.636508 -50.59841,-18.344446 -88.9,-18.949207 -38.30159,-0.604763 -81.84445,14.312699 -81.84445,14.312699 0,0 -4.03175,3.023809 -6.24921,6.249207 -2.21746,3.225395 -2.82222,21.569841 -0.80634,32.657153 2.01587,11.0873 7.25714,67.12857 7.25714,67.12857 1.85851,0 -5.06414,128.33111 3.62857,144.13494 4.10008,7.45416 12.32671,9.34506 17.73968,10.8857 5.41297,1.54064 64.91112,2.62062 64.91112,2.62062 z"
             style="fill:#666666;fill-rule:evenodd;stroke:#000000;stroke-width:1.1584px;stroke-linecap:butt;stroke-linejoin:miter;stroke-opacity:1" />
          <path
             inkscape:export-ydpi="300.01001"
             inkscape:export-xdpi="300.01001"
             sodipodi:nodetypes="ssscccccccccsss"
             inkscape:connector-curvature="0"
             id="path4153"
             d="m 567.80755,52.998485 c -47.7762,0 -85.24751,10.285427 -86.88421,19.150875 -2.41905,13.103173 3.69692,61.61164 10.07952,70.55556 8.21713,11.51466 75.3338,13.88699 78.61874,13.86041 3.23268,-0.0581 10.28434,-0.11478 19.21095,-0.95039 -0.0365,-0.33764 -0.0565,-0.67686 -0.0601,-1.01644 4e-5,-5.78929 4.69318,-10.48242 10.48246,-10.48247 5.19283,0.005 9.59958,3.81049 10.36009,8.94733 1.71204,-0.25929 3.41379,-0.53499 5.10426,-0.81855 -0.0902,-0.62259 -0.13811,-1.25058 -0.14332,-1.87965 -2.2e-4,-7.68211 6.22726,-13.90983 13.90937,-13.90991 5.84396,0.005 11.06133,3.66315 13.05884,9.15513 3.22508,-1.36223 5.34977,-2.80976 5.89029,-4.31657 2.92367,-8.15035 9.67619,-67.330404 4.23333,-71.563735 -5.44286,-4.233336 -36.08405,-16.731591 -83.86024,-16.731591 z"
             style="fill:#000000;fill-rule:evenodd;stroke:#666666;stroke-width:1.1584px;stroke-linecap:butt;stroke-linejoin:miter;stroke-opacity:1" />
          <rect
             inkscape:export-ydpi="300.01001"
             inkscape:export-xdpi="300.01001"
             ry="1.6120703"
             rx="2.3518534"
             y="83.080887"
             x="499.27359"
             height="28.815548"
             width="135.7321"
             id="rect4147"
             style="color:#000000;display:inline;overflow:visible;visibility:visible;fill:#ac9393;fill-opacity:1;fill-rule:nonzero;stroke:#000000;stroke-width:0.457396;stroke-linecap:round;stroke-linejoin:round;stroke-miterlimit:4;stroke-dasharray:none;stroke-dashoffset:0;stroke-opacity:1;marker:none;enable-background:accumulate" />
          <g id="hello" stroke="black" stroke-linecap="round" stroke-width="1.5">
            <path d="M 505,87 505,96" />
            <path d="M 505,98 505,107" />
            <path d="M 506,86 515,86" />
            <path d="M 506,108 515,108" />
            <path d="M 516,87 516,96" />
            <path d="M 516,98 516,107" />

            <path d="M 518.5,108 518.5,108" />            

            <path d="M 521,87 521,96" />
            <path d="M 522,86 531,86" />
            <path d="M 532,87 532,96" />
            <path d="M 532,98 532,107" />

            <path d="M 537,87 537,96" />
            <path d="M 538,86 547,86" />
            <path d="M 548,87 548,96" />
            <path d="M 548,98 548,107" />

                <path d="M 554,86 563,86" />
            <path d="M 554,97 563,97" />
            <path d="M 554,108 563,108" />
            <path d="M 564,87 564,96" />
            <path d="M 564,98 564,107" />

            <path d="M 569,87 569,96" />
            <path d="M 570,97 579,97" />
            <path d="M 580,87 580,96" />
            <path d="M 580,98 580,107" />

          </g>
          <rect
             inkscape:export-ydpi="300.01001"
             inkscape:export-xdpi="300.01001"
             ry="7.4625511"
             rx="8.2695398"
             y="76.781471"
             x="489.99069"
             height="40.72897"
             width="155.02896"
             id="rect4151"
             style="color:#000000;display:inline;overflow:visible;visibility:visible;fill:none;fill-opacity:1;fill-rule:nonzero;stroke:#c87137;stroke-width:4.63359;stroke-linecap:round;stroke-linejoin:round;stroke-miterlimit:4;stroke-dasharray:none;stroke-dashoffset:0;stroke-opacity:1;marker:none;enable-background:accumulate" />
          <circle
             inkscape:export-ydpi="300.01001"
             inkscape:export-xdpi="300.01001"
             r="7.4587307"
             cy="154.72824"
             cx="599.45679"
             id="path4155"
             style="color:#000000;display:inline;overflow:visible;visibility:visible;fill:#d4aa00;fill-opacity:1;fill-rule:nonzero;stroke:#000000;stroke-width:4.63359;stroke-linecap:round;stroke-linejoin:round;stroke-miterlimit:4;stroke-dasharray:none;stroke-dashoffset:0;stroke-opacity:1;marker:none;enable-background:accumulate" />
          <circle
             inkscape:export-ydpi="300.01001"
             inkscape:export-xdpi="300.01001"
             r="10.48254"
             cy="150.93393"
             cx="628.55701"
             id="path4157"
             style="color:#000000;display:inline;overflow:visible;visibility:visible;fill:#d4aa00;fill-opacity:1;fill-rule:nonzero;stroke:#000000;stroke-width:4.63359;stroke-linecap:round;stroke-linejoin:round;stroke-miterlimit:4;stroke-dasharray:none;stroke-dashoffset:0;stroke-opacity:1;marker:none;enable-background:accumulate" />
          <rect
             inkscape:export-ydpi="300.01001"
             inkscape:export-xdpi="300.01001"
             ry="7.4625487"
             rx="8.2695351"
             y="171.78284"
             x="497.91492"
             height="15.795456"
             width="23.142179"
             id="rect4235"
             style="color:#000000;display:inline;overflow:visible;visibility:visible;fill:#1a1a1a;fill-opacity:1;fill-rule:nonzero;stroke:#000000;stroke-width:3.47519;stroke-linecap:round;stroke-linejoin:round;stroke-miterlimit:4;stroke-dasharray:none;stroke-dashoffset:0;stroke-opacity:1;marker:none;enable-background:accumulate" />
          <rect
             inkscape:export-ydpi="300.01001"
             inkscape:export-xdpi="300.01001"
             style="color:#000000;display:inline;overflow:visible;visibility:visible;fill:#1a1a1a;fill-opacity:1;fill-rule:nonzero;stroke:#000000;stroke-width:3.47519;stroke-linecap:round;stroke-linejoin:round;stroke-miterlimit:4;stroke-dasharray:none;stroke-dashoffset:0;stroke-opacity:1;marker:none;enable-background:accumulate"
             id="rect4237"
             width="23.142179"
             height="15.795456"
             x="527.83051"
             y="171.78284"
             rx="8.2695351"
             ry="7.4625487" />
          <rect
             inkscape:export-ydpi="300.01001"
             inkscape:export-xdpi="300.01001"
             ry="7.4625487"
             rx="8.2695351"
             y="171.78284"
             x="558.31049"
             height="15.795456"
             width="23.142179"
             id="rect4239"
             style="color:#000000;display:inline;overflow:visible;visibility:visible;fill:#1a1a1a;fill-opacity:1;fill-rule:nonzero;stroke:#000000;stroke-width:3.47519;stroke-linecap:round;stroke-linejoin:round;stroke-miterlimit:4;stroke-dasharray:none;stroke-dashoffset:0;stroke-opacity:1;marker:none;enable-background:accumulate" />
          <rect
             inkscape:export-ydpi="300.01001"
             inkscape:export-xdpi="300.01001"
             style="color:#000000;display:inline;overflow:visible;visibility:visible;fill:#1a1a1a;fill-opacity:1;fill-rule:nonzero;stroke:#000000;stroke-width:4.12787;stroke-linecap:round;stroke-linejoin:round;stroke-miterlimit:4;stroke-dasharray:none;stroke-dashoffset:0;stroke-opacity:1;marker:none;enable-background:accumulate"
             id="rect4241"
             width="24.819853"
             height="20.779152"
             x="496.32797"
             y="225.48459"
             rx="7.0323467"
             ry="7.6130753" />
          <rect
             inkscape:export-ydpi="300.01001"
             inkscape:export-xdpi="300.01001"
             ry="7.6130753"
             rx="7.0323467"
             y="225.48459"
             x="527.93689"
             height="20.779152"
             width="24.819853"
             id="rect4243"
             style="color:#000000;display:inline;overflow:visible;visibility:visible;fill:#1a1a1a;fill-opacity:1;fill-rule:nonzero;stroke:#000000;stroke-width:4.12787;stroke-linecap:round;stroke-linejoin:round;stroke-miterlimit:4;stroke-dasharray:none;stroke-dashoffset:0;stroke-opacity:1;marker:none;enable-background:accumulate" />
          <rect
             inkscape:export-ydpi="300.01001"
             inkscape:export-xdpi="300.01001"
             style="color:#000000;display:inline;overflow:visible;visibility:visible;fill:#1a1a1a;fill-opacity:1;fill-rule:nonzero;stroke:#000000;stroke-width:4.12787;stroke-linecap:round;stroke-linejoin:round;stroke-miterlimit:4;stroke-dasharray:none;stroke-dashoffset:0;stroke-opacity:1;marker:none;enable-background:accumulate"
             id="rect4245"
             width="24.819853"
             height="20.779152"
             x="527.93689"
             y="197.26236"
             rx="7.0323467"
             ry="7.6130753" />
          <rect
             inkscape:export-ydpi="300.01001"
             inkscape:export-xdpi="300.01001"
             ry="7.6130753"
             rx="7.0323467"
             y="197.26236"
             x="557.85242"
             height="20.779152"
             width="24.819853"
             id="rect4247"
             style="color:#000000;display:inline;overflow:visible;visibility:visible;fill:#1a1a1a;fill-opacity:1;fill-rule:nonzero;stroke:#000000;stroke-width:4.12787;stroke-linecap:round;stroke-linejoin:round;stroke-miterlimit:4;stroke-dasharray:none;stroke-dashoffset:0;stroke-opacity:1;marker:none;enable-background:accumulate" />
          <rect
             inkscape:export-ydpi="300.01001"
             inkscape:export-xdpi="300.01001"
             style="color:#000000;display:inline;overflow:visible;visibility:visible;fill:#1a1a1a;fill-opacity:1;fill-rule:nonzero;stroke:#000000;stroke-width:4.12787;stroke-linecap:round;stroke-linejoin:round;stroke-miterlimit:4;stroke-dasharray:none;stroke-dashoffset:0;stroke-opacity:1;marker:none;enable-background:accumulate"
             id="rect4249"
             width="24.819853"
             height="20.779152"
             x="589.4613"
             y="196.69792"
             rx="7.0323467"
             ry="7.6130753" />
          <rect
             inkscape:export-ydpi="300.01001"
             inkscape:export-xdpi="300.01001"
             ry="7.6130753"
             rx="7.0323467"
             y="196.69792"
             x="618.24799"
             height="20.779152"
             width="24.819853"
             id="rect4251"
             style="color:#000000;display:inline;overflow:visible;visibility:visible;fill:#1a1a1a;fill-opacity:1;fill-rule:nonzero;stroke:#000000;stroke-width:4.12787;stroke-linecap:round;stroke-linejoin:round;stroke-miterlimit:4;stroke-dasharray:none;stroke-dashoffset:0;stroke-opacity:1;marker:none;enable-background:accumulate" />
          <rect
             inkscape:export-ydpi="300.01001"
             inkscape:export-xdpi="300.01001"
             style="color:#000000;display:inline;overflow:visible;visibility:visible;fill:#1a1a1a;fill-opacity:1;fill-rule:nonzero;stroke:#000000;stroke-width:4.12787;stroke-linecap:round;stroke-linejoin:round;stroke-miterlimit:4;stroke-dasharray:none;stroke-dashoffset:0;stroke-opacity:1;marker:none;enable-background:accumulate"
             id="rect4253"
             width="24.819853"
             height="20.779152"
             x="618.24799"
             y="169.04015"
             rx="7.0323467"
             ry="7.6130753" />
          <rect
             inkscape:export-ydpi="300.01001"
             inkscape:export-xdpi="300.01001"
             ry="7.6130753"
             rx="7.0323467"
             y="224.3557"
             x="619.37689"
             height="20.779152"
             width="24.819853"
             id="rect4255"
             style="color:#000000;display:inline;overflow:visible;visibility:visible;fill:#1a1a1a;fill-opacity:1;fill-rule:nonzero;stroke:#000000;stroke-width:4.12787;stroke-linecap:round;stroke-linejoin:round;stroke-miterlimit:4;stroke-dasharray:none;stroke-dashoffset:0;stroke-opacity:1;marker:none;enable-background:accumulate" />
          <rect
             inkscape:export-ydpi="300.01001"
             inkscape:export-xdpi="300.01001"
             style="color:#000000;display:inline;overflow:visible;visibility:visible;fill:#1a1a1a;fill-opacity:1;fill-rule:nonzero;stroke:#000000;stroke-width:4.12787;stroke-linecap:round;stroke-linejoin:round;stroke-miterlimit:4;stroke-dasharray:none;stroke-dashoffset:0;stroke-opacity:1;marker:none;enable-background:accumulate"
             id="rect4257"
             width="24.819853"
             height="20.779152"
             x="557.85242"
             y="224.92015"
             rx="7.0323467"
             ry="7.6130753" />
          <rect
             inkscape:export-ydpi="300.01001"
             inkscape:export-xdpi="300.01001"
             ry="7.6130753"
             rx="7.0323467"
             y="224.92015"
             x="590.02576"
             height="20.779152"
             width="24.819853"
             id="rect4259"
             style="color:#000000;display:inline;overflow:visible;visibility:visible;fill:#1a1a1a;fill-opacity:1;fill-rule:nonzero;stroke:#000000;stroke-width:4.12787;stroke-linecap:round;stroke-linejoin:round;stroke-miterlimit:4;stroke-dasharray:none;stroke-dashoffset:0;stroke-opacity:1;marker:none;enable-background:accumulate" />
          <rect
             inkscape:export-ydpi="300.01001"
             inkscape:export-xdpi="300.01001"
             style="color:#000000;display:inline;overflow:visible;visibility:visible;fill:#1a1a1a;fill-opacity:1;fill-rule:nonzero;stroke:#000000;stroke-width:4.12787;stroke-linecap:round;stroke-linejoin:round;stroke-miterlimit:4;stroke-dasharray:none;stroke-dashoffset:0;stroke-opacity:1;marker:none;enable-background:accumulate"
             id="rect4261"
             width="24.819853"
             height="20.779152"
             x="527.93689"
             y="254.27126"
             rx="7.0323467"
             ry="7.6130753" />
          <rect
             inkscape:export-ydpi="300.01001"
             inkscape:export-xdpi="300.01001"
             ry="7.6130753"
             rx="7.0323467"
             y="253.70683"
             x="557.85242"
             height="20.779152"
             width="24.819853"
             id="rect4263"
             style="color:#000000;display:inline;overflow:visible;visibility:visible;fill:#1a1a1a;fill-opacity:1;fill-rule:nonzero;stroke:#000000;stroke-width:4.12787;stroke-linecap:round;stroke-linejoin:round;stroke-miterlimit:4;stroke-dasharray:none;stroke-dashoffset:0;stroke-opacity:1;marker:none;enable-background:accumulate" />
          <rect
             inkscape:export-ydpi="300.01001"
             inkscape:export-xdpi="300.01001"
             style="color:#000000;display:inline;overflow:visible;visibility:visible;fill:#1a1a1a;fill-opacity:1;fill-rule:nonzero;stroke:#000000;stroke-width:4.12787;stroke-linecap:round;stroke-linejoin:round;stroke-miterlimit:4;stroke-dasharray:none;stroke-dashoffset:0;stroke-opacity:1;marker:none;enable-background:accumulate"
             id="rect4265"
             width="24.819853"
             height="20.779152"
             x="590.02576"
             y="253.70683"
             rx="7.0323467"
             ry="7.6130753" />
          <rect
             inkscape:export-ydpi="300.01001"
             inkscape:export-xdpi="300.01001"
             ry="7.6130753"
             rx="7.0323467"
             y="283.05795"
             x="527.93689"
             height="20.779152"
             width="24.819853"
             id="rect4267"
             style="color:#000000;display:inline;overflow:visible;visibility:visible;fill:#1a1a1a;fill-opacity:1;fill-rule:nonzero;stroke:#000000;stroke-width:4.12787;stroke-linecap:round;stroke-linejoin:round;stroke-miterlimit:4;stroke-dasharray:none;stroke-dashoffset:0;stroke-opacity:1;marker:none;enable-background:accumulate" />
          <rect
             inkscape:export-ydpi="300.01001"
             inkscape:export-xdpi="300.01001"
             style="color:#000000;display:inline;overflow:visible;visibility:visible;fill:#1a1a1a;fill-opacity:1;fill-rule:nonzero;stroke:#000000;stroke-width:4.12787;stroke-linecap:round;stroke-linejoin:round;stroke-miterlimit:4;stroke-dasharray:none;stroke-dashoffset:0;stroke-opacity:1;marker:none;enable-background:accumulate"
             id="rect4269"
             width="24.819853"
             height="20.779152"
             x="557.85242"
             y="282.49347"
             rx="7.0323467"
             ry="7.6130753" />
          <rect
             inkscape:export-ydpi="300.01001"
             inkscape:export-xdpi="300.01001"
             ry="7.6130753"
             rx="7.0323467"
             y="282.49347"
             x="590.02576"
             height="20.779152"
             width="24.819853"
             id="rect4271"
             style="color:#000000;display:inline;overflow:visible;visibility:visible;fill:#1a1a1a;fill-opacity:1;fill-rule:nonzero;stroke:#000000;stroke-width:4.12787;stroke-linecap:round;stroke-linejoin:round;stroke-miterlimit:4;stroke-dasharray:none;stroke-dashoffset:0;stroke-opacity:1;marker:none;enable-background:accumulate" />
          <rect
             inkscape:export-ydpi="300.01001"
             inkscape:export-xdpi="300.01001"
             ry="7.6130753"
             rx="7.0323467"
             y="254.83571"
             x="496.32797"
             height="20.779152"
             width="24.819853"
             id="rect4273"
             style="color:#000000;display:inline;overflow:visible;visibility:visible;fill:#ff2a2a;fill-opacity:1;fill-rule:nonzero;stroke:#000000;stroke-width:4.12787;stroke-linecap:round;stroke-linejoin:round;stroke-miterlimit:4;stroke-dasharray:none;stroke-dashoffset:0;stroke-opacity:1;marker:none;enable-background:accumulate" />
          <rect
             inkscape:export-ydpi="300.01001"
             inkscape:export-xdpi="300.01001"
             style="color:#000000;display:inline;overflow:visible;visibility:visible;fill:#ff2a2a;fill-opacity:1;fill-rule:nonzero;stroke:#000000;stroke-width:4.12787;stroke-linecap:round;stroke-linejoin:round;stroke-miterlimit:4;stroke-dasharray:none;stroke-dashoffset:0;stroke-opacity:1;marker:none;enable-background:accumulate"
             id="rect4275"
             width="24.819853"
             height="20.779152"
             x="496.32797"
             y="283.62238"
             rx="7.0323467"
             ry="7.6130753" />
          <rect
             inkscape:export-ydpi="300.01001"
             inkscape:export-xdpi="300.01001"
             style="color:#000000;display:inline;overflow:visible;visibility:visible;fill:#1a1a1a;fill-opacity:1;fill-rule:nonzero;stroke:#000000;stroke-width:6.33322;stroke-linecap:round;stroke-linejoin:round;stroke-miterlimit:4;stroke-dasharray:none;stroke-dashoffset:0;stroke-opacity:1;marker:none;enable-background:accumulate"
             id="rect4277"
             width="24.282551"
             height="49.996078"
             x="621.90332"
             y="252.84657"
             rx="6.8801103"
             ry="4.3588157" />
          <ellipse
             inkscape:export-ydpi="300.01001"
             inkscape:export-xdpi="300.01001"
             ry="5.5100431"
             rx="5.8773785"
             cy="208.14912"
             cx="507.94513"
             id="path4281"
             style="color:#000000;display:inline;overflow:visible;visibility:visible;fill:#999999;fill-opacity:1;fill-rule:nonzero;stroke:#999999;stroke-width:3.47519;stroke-linecap:round;stroke-linejoin:round;stroke-miterlimit:4;stroke-dasharray:none;stroke-dashoffset:0;stroke-opacity:1;marker:none;enable-background:accumulate" />
          <circle
             inkscape:export-ydpi="300.01001"
             inkscape:export-xdpi="300.01001"
             r="2.5713532"
             cy="208.14912"
             cx="507.94513"
             id="path4279"
             style="color:#000000;display:inline;overflow:visible;visibility:visible;fill:#333333;fill-opacity:1;fill-rule:nonzero;stroke:#000000;stroke-width:3.47519;stroke-linecap:round;stroke-linejoin:round;stroke-miterlimit:4;stroke-dasharray:none;stroke-dashoffset:0;stroke-opacity:1;marker:none;enable-background:accumulate" />
          <g
             id="text4424"
             style="font-style:normal;font-variant:normal;font-weight:bold;font-stretch:normal;font-size:18.8089px;line-height:125%;font-family:Arial;-inkscape-font-specification:'Arial Bold';text-align:end;letter-spacing:0px;word-spacing:0px;text-anchor:end;fill:#ffffff;fill-opacity:1;stroke:none;stroke-width:4.10454px;stroke-linecap:butt;stroke-linejoin:miter;stroke-opacity:1"
             transform="matrix(0.28222223,0,0,0.28222223,463.38532,42.655479)">
            <path
               style="stroke-width:4.10454px"
               id="path4286"
               d="m 127.38435,555.50214 v -13.4638 h 5.72165 q 2.15825,0 3.13175,0.36737 0.98269,0.35817 1.57047,1.28576 0.58778,0.92759 0.58778,2.12151 0,1.51537 -0.89085,2.50724 -0.89085,0.98269 -2.66337,1.23985 0.88167,0.5143 1.45108,1.12963 0.57859,0.61533 1.5521,2.1858 l 1.64394,2.62664 h -3.25115 l -1.96538,-2.92971 q -1.04698,-1.57047 -1.43271,-1.97457 -0.38573,-0.41328 -0.81738,-0.56022 -0.43165,-0.15613 -1.36842,-0.15613 h -0.55104 v 5.62063 z m 2.71847,-7.7697 h 2.0113 q 1.9562,0 2.44295,-0.16531 0.48676,-0.16531 0.76228,-0.56941 0.27552,-0.4041 0.27552,-1.01024 0,-0.67962 -0.36736,-1.0929 -0.35818,-0.42247 -1.01943,-0.53268 -0.33062,-0.0459 -1.98375,-0.0459 h -2.12151 v 3.41646 z" />
            <path
               style="stroke-width:4.10454px"
               id="path4288"
               d="m 140.96753,555.50214 v -13.4638 h 9.98304 v 2.27764 H 143.686 v 2.98482 h 6.75945 v 2.26845 H 143.686 v 3.66443 h 7.52173 v 2.26846 z" />
            <path
               style="stroke-width:4.10454px"
               id="path4290"
               d="m 152.84248,551.12135 2.645,-0.25715 q 0.23879,1.33168 0.96433,1.9562 0.73472,0.62451 1.97456,0.62451 1.31332,0 1.97457,-0.55104 0.67044,-0.56023 0.67044,-1.30413 0,-0.47757 -0.28471,-0.8082 -0.27552,-0.33981 -0.97351,-0.58777 -0.47757,-0.16532 -2.17661,-0.58778 -2.1858,-0.54186 -3.06747,-1.33169 -1.23984,-1.11127 -1.23984,-2.70929 0,-1.02861 0.57859,-1.91946 0.58778,-0.90004 1.68068,-1.36842 1.10208,-0.46839 2.65418,-0.46839 2.5348,0 3.81138,1.11127 1.28576,1.11127 1.35005,2.96644 l -2.71847,0.1194 q -0.1745,-1.0378 -0.75309,-1.48782 -0.56941,-0.4592 -1.71742,-0.4592 -1.18474,0 -1.85517,0.48676 -0.43165,0.31225 -0.43165,0.83574 0,0.47757 0.4041,0.81738 0.5143,0.43165 2.49805,0.90004 1.98375,0.46838 2.92971,0.9735 0.95514,0.49594 1.48781,1.36842 0.54186,0.8633 0.54186,2.13988 0,1.15719 -0.64288,2.16744 -0.64288,1.01024 -1.81844,1.50618 -1.17556,0.48675 -2.92971,0.48675 -2.55316,0 -3.92158,-1.17556 -1.36842,-1.18474 -1.63476,-3.44401 z" />
            <path
               style="stroke-width:4.10454px"
               id="path4293"
               d="m 166.09504,555.50214 v -13.4638 h 9.98305 v 2.27764 h -7.26457 v 2.98482 h 6.75945 v 2.26845 h -6.75945 v 3.66443 h 7.52172 v 2.26846 z" />
            <path
               style="stroke-width:4.10454px"
               id="path4295"
               d="m 181.68953,555.50214 v -11.18616 h -3.99505 v -2.27764 h 10.69939 v 2.27764 H 184.408 v 11.18616 z" />
          </g>
          <g
             id="text4448"
             style="font-style:normal;font-variant:normal;font-weight:bold;font-stretch:normal;font-size:33.4354px;line-height:125%;font-family:Arial;-inkscape-font-specification:'Arial Bold';text-align:end;letter-spacing:0px;word-spacing:0px;text-anchor:end;fill:#ffffff;fill-opacity:1;stroke:none;stroke-width:4.10454px;stroke-linecap:butt;stroke-linejoin:miter;stroke-opacity:1"
             transform="matrix(0.28222223,0,0,0.28222223,463.38532,42.655479)">
            <path
               style="stroke-width:4.10454px"
               id="path4426"
               d="m 138.63966,497.48889 v -23.93377 h 7.23238 l 4.34269,16.3259 4.29371,-16.3259 h 7.2487 v 23.93377 h -4.48962 V 478.6488 l -4.75084,18.84009 h -4.65288 l -4.73451,-18.84009 v 18.84009 z" />
            <path
               style="stroke-width:4.10454px"
               id="path4428"
               d="m 166.54063,497.48889 v -23.93377 h 10.17103 q 3.83659,0 5.56713,0.65304 1.74688,0.63671 2.79173,2.28562 1.04486,1.64892 1.04486,3.77129 0,2.69377 -1.58361,4.45697 -1.58361,1.74687 -4.73451,2.20399 1.56728,0.91425 2.57949,2.00809 1.02853,1.09384 2.75908,3.88556 l 2.92233,4.66921 h -5.77937 l -3.49374,-5.20796 q -1.86115,-2.79173 -2.54684,-3.51007 -0.68569,-0.73466 -1.453,-0.99588 -0.76732,-0.27754 -2.43256,-0.27754 h -0.97956 v 9.99145 z m 4.83246,-13.81171 h 3.57538 q 3.47741,0 4.34268,-0.29387 0.86528,-0.29386 1.35505,-1.0122 0.48978,-0.71834 0.48978,-1.79585 0,-1.20812 -0.65303,-1.94278 -0.63671,-0.75099 -1.81218,-0.94691 -0.58773,-0.0816 -3.52639,-0.0816 h -3.77129 v 6.07324 z" />
          </g>
          <g
             inkscape:export-ydpi="300.01001"
             inkscape:export-xdpi="300.01001"
             transform="matrix(0.28222223,0,0,0.28222223,462.34633,42.655482)"
             id="text4452"
             style="font-style:normal;font-variant:normal;font-weight:bold;font-stretch:normal;font-size:33.4354px;line-height:125%;font-family:Arial;-inkscape-font-specification:'Arial Bold';text-align:end;letter-spacing:0px;word-spacing:0px;text-anchor:end;fill:#ffffff;fill-opacity:1;stroke:none;stroke-width:4.10454px;stroke-linecap:butt;stroke-linejoin:miter;stroke-opacity:1">
            <path
               style="stroke-width:4.10454px"
               inkscape:connector-curvature="0"
               id="path4568"
               d="m 251.17819,497.48889 v -23.93377 h 7.23237 l 4.34269,16.3259 4.29371,-16.3259 h 7.2487 v 23.93377 h -4.48962 V 478.6488 l -4.75084,18.84009 h -4.65288 l -4.73451,-18.84009 v 18.84009 z" />
            <path
               style="stroke-width:4.10454px"
               inkscape:connector-curvature="0"
               id="path4570"
               d="m 278.50774,489.10546 v -4.58757 h 16.37478 v 4.58757 z" />
          </g>
          <g
             id="text4456"
             style="font-style:normal;font-variant:normal;font-weight:bold;font-stretch:normal;font-size:33.4354px;line-height:125%;font-family:Arial;-inkscape-font-specification:'Arial Bold';text-align:end;letter-spacing:0px;word-spacing:0px;text-anchor:end;fill:#ffffff;fill-opacity:1;stroke:none;stroke-width:4.10454px;stroke-linecap:butt;stroke-linejoin:miter;stroke-opacity:1"
             transform="matrix(0.28222223,0,0,0.28222223,463.38532,42.655479)">
            <path
               style="stroke-width:4.10454px"
               id="path4431"
               d="m 355.562,497.48889 v -23.93377 h 7.23237 l 4.34269,16.3259 4.29372,-16.3259 h 7.2487 v 23.93377 h -4.48963 V 478.6488 l -4.75083,18.84009 h -4.65289 l -4.73451,-18.84009 v 18.84009 z" />
            <path
               style="stroke-width:4.10454px"
               id="path4433"
               d="m 388.67093,494.04413 v -6.22017 h -6.26915 v -4.29371 h 6.26915 v -6.22017 h 4.17943 v 6.22017 h 6.28547 v 4.29371 h -6.28547 v 6.22017 z" />
          </g>
          <g
             id="text4460"
             style="font-style:normal;font-variant:normal;font-weight:bold;font-stretch:normal;font-size:75.4387px;line-height:125%;font-family:Arial;-inkscape-font-specification:'Arial Bold';text-align:end;letter-spacing:0px;word-spacing:0px;text-anchor:end;fill:#ffffff;fill-opacity:1;stroke:none;stroke-width:4.10454px;stroke-linecap:butt;stroke-linejoin:miter;stroke-opacity:1"
             transform="matrix(0.28222223,0,0,0.28222223,463.38532,42.655479)">
            <path
               style="stroke-width:4.10454px"
               id="path4405"
               d="m 587.52275,475.14808 v -10.35072 h 10.35072 v 10.35072 z m -13.70273,14.32893 v -9.68768 h 37.75618 v 9.68768 z m 13.70273,14.99197 v -10.35072 h 10.35072 v 10.35072 z" />
          </g>
          <g
             id="text4464"
             style="font-style:normal;font-variant:normal;font-weight:bold;font-stretch:normal;font-size:75.4387px;line-height:125%;font-family:Arial;-inkscape-font-specification:'Arial Bold';text-align:end;letter-spacing:0px;word-spacing:0px;text-anchor:end;fill:#ffffff;fill-opacity:1;stroke:none;stroke-width:4.10454px;stroke-linecap:butt;stroke-linejoin:miter;stroke-opacity:1"
             transform="matrix(0.28222223,0,0,0.28222223,463.38532,42.655479)">
            <path
               style="stroke-width:4.10454px"
               id="path4408"
               d="m 574.79615,593.79425 11.12426,-11.12426 -11.19793,-11.1611 6.85136,-6.85136 11.19794,11.16109 11.12426,-11.12426 6.66719,6.70403 -11.12426,11.12426 11.23476,11.23476 -6.85136,6.85137 -11.23477,-11.23477 -11.12426,11.12426 z" />
          </g>
          <g
             id="text4468"
             style="font-style:normal;font-variant:normal;font-weight:bold;font-stretch:normal;font-size:99.0584px;line-height:125%;font-family:Arial;-inkscape-font-specification:'Arial Bold';text-align:end;letter-spacing:0px;word-spacing:0px;text-anchor:end;fill:#ffffff;fill-opacity:1;stroke:none;stroke-width:4.10454px;stroke-linecap:butt;stroke-linejoin:miter;stroke-opacity:1"
             transform="matrix(0.37058542,0,0,0.21492855,463.38532,42.655479)">
            <path
               style="stroke-width:4.10454px"
               id="path4411"
               d="M 441.07048,900.53371 V 886.9422 h 26.69933 v 13.59151 z" />
          </g>
          <g
             id="text4472"
             style="font-style:normal;font-variant:normal;font-weight:bold;font-stretch:normal;font-size:75.4387px;line-height:125%;font-family:Arial;-inkscape-font-specification:'Arial Bold';text-align:end;letter-spacing:0px;word-spacing:0px;text-anchor:end;fill:#ffffff;fill-opacity:1;stroke:none;stroke-width:4.10454px;stroke-linecap:butt;stroke-linejoin:miter;stroke-opacity:1"
             transform="matrix(0.28222223,0,0,0.28222223,463.38532,42.655479)">
            <path
               style="stroke-width:4.10454px"
               id="path4356"
               d="m 599.96482,852.22543 v -14.03425 h -14.14476 v -9.68768 h 14.14476 v -14.03425 h 9.42983 v 14.03425 h 14.18159 v 9.68768 h -14.18159 v 14.03425 z" />
          </g>
          <g
             id="text4476"
             style="font-style:normal;font-variant:normal;font-weight:bold;font-stretch:normal;font-size:67.3271px;line-height:125%;font-family:Arial;-inkscape-font-specification:'Arial Bold';text-align:end;letter-spacing:0px;word-spacing:0px;text-anchor:end;fill:#ffffff;fill-opacity:1;stroke:none;stroke-width:4.10454px;stroke-linecap:butt;stroke-linejoin:miter;stroke-opacity:1"
             transform="matrix(0.28222223,0,0,0.28222223,463.38532,42.655479)">
            <path
               style="stroke-width:4.10454px"
               id="path4311"
               d="m 256.90187,569.44515 v -8.58026 h 31.59244 v 6.70641 q -3.91207,3.84632 -7.95564,11.04585 -4.04357,7.19952 -6.18042,15.31954 -2.10397,8.08714 -2.07109,14.4648 h -8.90901 q 0.23012,-9.99386 4.10932,-20.38222 3.91207,-10.38836 10.42123,-18.57412 z" />
          </g>
          <g
             id="text4480"
             style="font-style:normal;font-variant:normal;font-weight:bold;font-stretch:normal;font-size:67.3271px;line-height:125%;font-family:Arial;-inkscape-font-specification:'Arial Bold';text-align:end;letter-spacing:0px;word-spacing:0px;text-anchor:end;fill:#ffffff;fill-opacity:1;stroke:none;stroke-width:4.10454px;stroke-linecap:butt;stroke-linejoin:miter;stroke-opacity:1"
             transform="matrix(0.28222223,0,0,0.28222223,463.38532,42.655479)">
            <path
               style="stroke-width:4.10454px"
               id="path4308"
               d="m 370.90685,582.39772 q -3.58333,-1.51223 -5.22706,-4.14219 -1.61085,-2.66284 -1.61085,-5.8188 0,-5.39143 3.7477,-8.909 3.78057,-3.51758 10.7171,-3.51758 6.87078,0 10.65136,3.51758 3.81345,3.51757 3.81345,8.909 0,3.3532 -1.74236,5.98317 -1.74235,2.59709 -4.8983,3.97782 4.01069,1.61085 6.08179,4.70106 2.10397,3.09021 2.10397,7.13378 0,6.67353 -4.27369,10.8486 -4.24082,4.17507 -11.30885,4.17507 -6.57491,0 -10.94722,-3.45183 -5.16131,-4.07644 -5.16131,-11.17735 0,-3.91207 1.9396,-7.16665 1.9396,-3.28745 6.11467,-5.06268 z m 1.90672,-9.3035 q 0,2.76146 1.54511,4.30657 1.57797,1.5451 4.17506,1.5451 2.62997,0 4.20795,-1.5451 1.57797,-1.57798 1.57797,-4.33944 0,-2.59709 -1.57797,-4.1422 -1.54511,-1.57797 -4.10932,-1.57797 -2.66284,0 -4.24082,1.57797 -1.57798,1.57798 -1.57798,4.17507 z m -0.85474,20.64522 q 0,3.81345 1.9396,5.95029 1.97247,2.13685 4.89831,2.13685 2.86009,0 4.73393,-2.03822 1.87385,-2.0711 1.87385,-5.9503 0,-3.38608 -1.90672,-5.4243 -1.90672,-2.07109 -4.83256,-2.07109 -3.38608,0 -5.06268,2.33409 -1.64373,2.33409 -1.64373,5.06268 z" />
          </g>
          <g
             id="text4484"
             style="font-style:normal;font-variant:normal;font-weight:bold;font-stretch:normal;font-size:67.3271px;line-height:125%;font-family:Arial;-inkscape-font-specification:'Arial Bold';text-align:end;letter-spacing:0px;word-spacing:0px;text-anchor:end;fill:#ffffff;fill-opacity:1;stroke:none;stroke-width:4.10454px;stroke-linecap:butt;stroke-linejoin:miter;stroke-opacity:1"
             transform="matrix(0.28222223,0,0,0.28222223,463.38532,42.655479)">
            <path
               style="stroke-width:4.10454px"
               id="path4305"
               d="m 475.52648,595.25702 8.94188,-0.98624 q 0.32875,2.72859 1.70948,4.04357 1.38073,1.31498 3.64907,1.31498 2.86009,0 4.86543,-2.62996 2.00535,-2.62997 2.56422,-10.91435 -3.4847,4.04357 -8.71176,4.04357 -5.68729,0 -9.82949,-4.37232 -4.10932,-4.40519 -4.10932,-11.44034 0,-7.33103 4.33945,-11.80197 4.37231,-4.50381 11.11159,-4.50381 7.33103,0 12.03209,5.6873 4.70106,5.65442 4.70106,18.63987 0,13.21557 -4.89831,19.06724 -4.89831,5.85167 -12.75532,5.85167 -5.65443,0 -9.13913,-2.99159 -3.4847,-3.02446 -4.47094,-9.00762 z m 20.90822,-20.18498 q 0,-4.47094 -2.0711,-6.93653 -2.03822,-2.46559 -4.73394,-2.46559 -2.56421,0 -4.27369,2.03822 -1.6766,2.00535 -1.6766,6.60779 0,4.66818 1.84098,6.87078 1.84097,2.16972 4.60243,2.16972 2.66284,0 4.47094,-2.10397 1.84098,-2.10397 1.84098,-6.18042 z" />
          </g>
          <g
             id="text4488"
             style="font-style:normal;font-variant:normal;font-weight:bold;font-stretch:normal;font-size:67.3271px;line-height:125%;font-family:Arial;-inkscape-font-specification:'Arial Bold';text-align:end;letter-spacing:0px;word-spacing:0px;text-anchor:end;fill:#ffffff;fill-opacity:1;stroke:none;stroke-width:4.10454px;stroke-linecap:butt;stroke-linejoin:miter;stroke-opacity:1"
             transform="matrix(0.28222223,0,0,0.28222223,463.38532,42.655479)">
            <path
               style="stroke-width:4.10454px"
               id="path4423"
               d="m 275.09796,708.82886 v -9.698 h -19.72473 v -8.08713 l 20.90821,-30.60621 h 7.7584 v 30.57333 h 5.98316 v 8.12001 h -5.98316 v 9.698 z m 0,-17.81801 V 674.5407 l -11.07873,16.47015 z" />
          </g>
          <g
             id="text4492"
             style="font-style:normal;font-variant:normal;font-weight:bold;font-stretch:normal;font-size:67.3271px;line-height:125%;font-family:Arial;-inkscape-font-specification:'Arial Bold';text-align:end;letter-spacing:0px;word-spacing:0px;text-anchor:end;fill:#ffffff;fill-opacity:1;stroke:none;stroke-width:4.10454px;stroke-linecap:butt;stroke-linejoin:miter;stroke-opacity:1"
             transform="matrix(0.28222223,0,0,0.28222223,463.38532,42.655479)">
            <path
               style="stroke-width:4.10454px"
               id="path4419"
               d="m 362.49095,693.59683 9.20487,-0.95336 q 0.39449,3.12308 2.33409,4.96406 1.9396,1.8081 4.47094,1.8081 2.89296,0 4.89831,-2.33409 2.00535,-2.36697 2.00535,-7.10091 0,-4.43806 -2.00535,-6.64066 -1.97247,-2.23547 -5.16131,-2.23547 -3.97782,0 -7.13377,3.51758 l -7.4954,-1.08486 4.73394,-25.08328 h 24.42579 v 8.64601 h -17.42352 l -1.44648,8.18576 q 3.09021,-1.5451 6.31192,-1.5451 6.14754,0 10.42123,4.47093 4.27369,4.47094 4.27369,11.60472 0,5.95029 -3.45183,10.61848 -4.70106,6.37766 -13.05119,6.37766 -6.67354,0 -10.88148,-3.58332 -4.20794,-3.58333 -5.0298,-9.63225 z" />
          </g>
          <g
             id="text4496"
             style="font-style:normal;font-variant:normal;font-weight:bold;font-stretch:normal;font-size:67.3271px;line-height:125%;font-family:Arial;-inkscape-font-specification:'Arial Bold';text-align:end;letter-spacing:0px;word-spacing:0px;text-anchor:end;fill:#ffffff;fill-opacity:1;stroke:none;stroke-width:4.10454px;stroke-linecap:butt;stroke-linejoin:miter;stroke-opacity:1"
             transform="matrix(0.28222223,0,0,0.28222223,463.38532,42.655479)">
            <path
               style="stroke-width:4.10454px"
               id="path4415"
               d="m 507.90257,670.02578 -8.94188,0.98624 q -0.32874,-2.76147 -1.70947,-4.07645 -1.38073,-1.31498 -3.58333,-1.31498 -2.92583,0 -4.96406,2.62996 -2.00534,2.62997 -2.53134,10.94723 3.45183,-4.07644 8.58026,-4.07644 5.78592,0 9.89524,4.40519 4.14219,4.40519 4.14219,11.37459 0,7.39677 -4.33944,11.86771 -4.33944,4.47094 -11.14447,4.47094 -7.29815,0 -11.99921,-5.65442 -4.70106,-5.6873 -4.70106,-18.607 0,-13.24844 4.89831,-19.10011 4.8983,-5.85167 12.72245,-5.85167 5.49005,0 9.07337,3.09021 3.6162,3.05733 4.60244,8.909 z m -20.94109,20.1521 q 0,4.50381 2.0711,6.9694 2.0711,2.43272 4.73393,2.43272 2.56422,0 4.2737,-2.00535 1.70947,-2.00534 1.70947,-6.57491 0,-4.70106 -1.84097,-6.87078 -1.84098,-2.20259 -4.60244,-2.20259 -2.66284,0 -4.50381,2.10397 -1.84098,2.0711 -1.84098,6.14754 z" />
          </g>
          <g
             id="text4500"
             style="font-style:normal;font-variant:normal;font-weight:bold;font-stretch:normal;font-size:67.3271px;line-height:125%;font-family:Arial;-inkscape-font-specification:'Arial Bold';text-align:end;letter-spacing:0px;word-spacing:0px;text-anchor:end;fill:#ffffff;fill-opacity:1;stroke:none;stroke-width:4.10454px;stroke-linecap:butt;stroke-linejoin:miter;stroke-opacity:1"
             transform="matrix(0.28222223,0,0,0.28222223,463.38532,42.655479)">
            <path
               style="stroke-width:4.10454px"
               id="path4365"
               d="m 283.28369,810.82886 h -9.23774 v -34.81415 q -5.06269,4.73393 -11.93347,7.00228 v -8.38301 q 3.6162,-1.18349 7.85702,-4.47094 4.24082,-3.32033 5.8188,-7.72552 h 7.49539 z" />
          </g>
          <g
             id="text4508"
             style="font-style:normal;font-variant:normal;font-weight:bold;font-stretch:normal;font-size:67.3271px;line-height:125%;font-family:Arial;-inkscape-font-specification:'Arial Bold';text-align:end;letter-spacing:0px;word-spacing:0px;text-anchor:end;fill:#ffffff;fill-opacity:1;stroke:none;stroke-width:4.10454px;stroke-linecap:butt;stroke-linejoin:miter;stroke-opacity:1"
             transform="matrix(0.28222223,0,0,0.28222223,463.38532,42.655479)">
            <path
               style="stroke-width:4.10454px"
               id="path4359"
               d="m 476.6882,795.62971 8.94188,-1.08486 q 0.42737,3.41895 2.30122,5.22705 1.87385,1.8081 4.53669,1.8081 2.86008,0 4.79968,-2.16972 1.97247,-2.16972 1.97247,-5.85167 0,-3.4847 -1.87384,-5.52292 -1.87385,-2.03823 -4.56957,-2.03823 -1.77522,0 -4.24081,0.69037 l 1.01911,-7.52827 q 3.7477,0.0986 5.72017,-1.61086 1.97247,-1.74235 1.97247,-4.60243 0,-2.43272 -1.44648,-3.8792 -1.44648,-1.44648 -3.84632,-1.44648 -2.36697,0 -4.04357,1.64373 -1.6766,1.64373 -2.03822,4.79968 l -8.51451,-1.44648 q 0.88761,-4.37231 2.66284,-6.9694 1.8081,-2.62997 4.99693,-4.10932 3.2217,-1.51223 7.19953,-1.51223 6.80503,0 10.91435,4.33944 3.38607,3.55045 3.38607,8.02139 0,6.34479 -6.93653,10.12536 4.1422,0.88761 6.60779,3.97782 2.49847,3.09021 2.49847,7.46253 0,6.34478 -4.63532,10.81572 -4.63531,4.47094 -11.53896,4.47094 -6.54204,0 -10.84861,-3.7477 -4.30656,-3.78057 -4.99693,-9.86236 z" />
          </g>
          <g
             id="text4512"
             style="font-style:normal;font-variant:normal;font-weight:bold;font-stretch:normal;font-size:67.3271px;line-height:125%;font-family:Arial;-inkscape-font-specification:'Arial Bold';text-align:end;letter-spacing:0px;word-spacing:0px;text-anchor:end;fill:#ffffff;fill-opacity:1;stroke:none;stroke-width:4.10454px;stroke-linecap:butt;stroke-linejoin:miter;stroke-opacity:1"
             transform="matrix(0.28222223,0,0,0.28222223,463.38532,42.655479)">
            <path
               style="stroke-width:4.10454px"
               id="path4362"
               d="m 394.88882,800.2486 v 8.58026 h -32.38144 q 0.526,-4.86544 3.15596,-9.20488 2.62997,-4.37231 10.38836,-11.57184 6.24616,-5.81879 7.65977,-7.88989 1.90672,-2.86009 1.90672,-5.65442 0,-3.09021 -1.6766,-4.73394 -1.64373,-1.6766 -4.56956,-1.6766 -2.89296,0 -4.60244,1.74235 -1.70948,1.74235 -1.97247,5.78592 l -9.20488,-0.92049 q 0.82187,-7.62689 5.16131,-10.94722 4.33944,-3.32033 10.8486,-3.32033 7.13378,0 11.21022,3.84632 4.07645,3.84632 4.07645,9.5665 0,3.25458 -1.18349,6.21329 -1.15061,2.92583 -3.68195,6.14754 -1.6766,2.13684 -6.04891,6.14754 -4.37232,4.01069 -5.5558,5.32567 -1.15061,1.31499 -1.87385,2.56422 z" />
          </g>
          <g
             id="text4516"
             style="font-style:normal;font-variant:normal;font-weight:bold;font-stretch:normal;font-size:67.3271px;line-height:125%;font-family:Arial;-inkscape-font-specification:'Arial Bold';text-align:end;letter-spacing:0px;word-spacing:0px;text-anchor:end;fill:#ffffff;fill-opacity:1;stroke:none;stroke-width:4.10454px;stroke-linecap:butt;stroke-linejoin:miter;stroke-opacity:1"
             transform="matrix(0.28222223,0,0,0.28222223,463.38532,42.655479)">
            <path
               style="stroke-width:4.10454px"
               id="path4350"
               d="m 272.69809,864.02657 q 7.00228,0 10.94723,4.99693 4.70106,5.91742 4.70106,19.62611 0,13.67581 -4.73393,19.65898 -3.91208,4.93118 -10.91436,4.93118 -7.03515,0 -11.34172,-5.39142 -4.30656,-5.42431 -4.30656,-19.29737 0,-13.61006 4.73393,-19.59323 3.91208,-4.93118 10.91435,-4.93118 z m 0,7.65977 q -1.6766,0 -2.99158,1.08486 -1.31498,1.05199 -2.03822,3.81345 -0.95336,3.58332 -0.95336,12.06496 0,8.48163 0.85473,11.67046 0.85474,3.15596 2.13685,4.20795 1.31498,1.05198 2.99158,1.05198 1.67661,0 2.99159,-1.05198 1.31498,-1.08486 2.03822,-3.84633 0.95336,-3.55045 0.95336,-12.03208 0,-8.48164 -0.85474,-11.63759 -0.85473,-3.18883 -2.16972,-4.24082 -1.2821,-1.08486 -2.95871,-1.08486 z" />
          </g>
          <g
             id="text4520"
             style="font-style:normal;font-variant:normal;font-weight:bold;font-stretch:normal;font-size:67.3271px;line-height:125%;font-family:Arial;-inkscape-font-specification:'Arial Bold';text-align:end;letter-spacing:0px;word-spacing:0px;text-anchor:end;fill:#ffffff;fill-opacity:1;stroke:none;stroke-width:4.10454px;stroke-linecap:butt;stroke-linejoin:miter;stroke-opacity:1"
             transform="matrix(0.28222223,0,0,0.28222223,463.38532,42.655479)">
            <path
               style="stroke-width:4.10454px"
               id="path4353"
               d="m 475.84991,883.57586 v -8.48164 h 33.69641 v 8.48164 z m 0,14.5963 v -8.51451 h 33.69641 v 8.51451 z" />
          </g>
          <g
             id="text4524"
             style="font-style:normal;font-variant:normal;font-weight:bold;font-stretch:normal;font-size:67.3271px;line-height:125%;font-family:Arial;-inkscape-font-specification:'Arial Bold';text-align:end;letter-spacing:0px;word-spacing:0px;text-anchor:end;fill:#ffffff;fill-opacity:1;stroke:none;stroke-width:4.10454px;stroke-linecap:butt;stroke-linejoin:miter;stroke-opacity:1"
             transform="matrix(0.28222223,0,0,0.28222223,463.38532,42.655479)">
            <path
               style="stroke-width:4.10454px"
               id="path4347"
               d="m 374.07922,910.3515 v -9.23775 h 9.23775 v 9.23775 z" />
          </g>
          <g
             id="text4547"
             style="font-style:normal;font-variant:normal;font-weight:bold;font-stretch:normal;font-size:54.2921px;line-height:125%;font-family:Arial;-inkscape-font-specification:'Arial Bold';text-align:end;letter-spacing:0px;word-spacing:0px;text-anchor:end;fill:#ffffff;fill-opacity:1;stroke:none;stroke-width:4.10454px;stroke-linecap:butt;stroke-linejoin:miter;stroke-opacity:1"
             transform="matrix(0.28222223,0,0,0.28222223,463.38532,42.655479)">
            <path
               style="stroke-width:4.10454px"
               id="path4302"
               d="m 139.01306,674.34734 q 0,-5.22244 2.27985,-7.74087 2.30635,-2.51843 6.22981,-2.51843 4.056,0 6.33585,2.51843 2.30635,2.49192 2.30635,7.74087 0,5.22244 -2.30635,7.74087 -2.27985,2.51844 -6.2033,2.51844 -4.05601,0 -6.36236,-2.49193 -2.27985,-2.51843 -2.27985,-7.76738 z m 5.80565,-0.053 q 0,3.79091 0.87483,5.08989 0.66274,0.95435 1.82918,0.95435 1.19294,0 1.85569,-0.95435 0.84831,-1.29898 0.84831,-5.08989 0,-3.7909 -0.84831,-5.06338 -0.66275,-0.98086 -1.85569,-0.98086 -1.16644,0 -1.82918,0.95435 -0.87483,1.29899 -0.87483,5.08989 z m 8.37711,30.80443 h -5.51404 l 20.70418,-41.01071 h 5.35498 z m 12.03547,-10.20629 q 0,-5.22244 2.27984,-7.74087 2.30636,-2.51843 6.28283,-2.51843 4.00299,0 6.28283,2.51843 2.30636,2.51843 2.30636,7.74087 0,5.24895 -2.30636,7.76738 -2.27984,2.51844 -6.2033,2.51844 -4.056,0 -6.36236,-2.51844 -2.27984,-2.51843 -2.27984,-7.76738 z m 5.80565,-0.0265 q 0,3.79091 0.87482,5.06338 0.66275,0.98086 1.82918,0.98086 1.19294,0 1.82918,-0.95435 0.87482,-1.29898 0.87482,-5.08989 0,-3.7909 -0.84831,-5.08989 -0.66275,-0.95435 -1.85569,-0.95435 -1.19294,0 -1.82918,0.95435 -0.87482,1.29899 -0.87482,5.08989 z" />
          </g>
          <g
             id="text4551"
             style="font-style:normal;font-variant:normal;font-weight:bold;font-stretch:normal;font-size:49.6147px;line-height:125%;font-family:Arial;-inkscape-font-specification:'Arial Bold';text-align:end;letter-spacing:0px;word-spacing:0px;text-anchor:end;fill:#ffffff;fill-opacity:1;stroke:none;stroke-width:4.10454px;stroke-linecap:butt;stroke-linejoin:miter;stroke-opacity:1"
             transform="matrix(0.28222223,0,0,0.28222223,463.38532,42.655479)">
            <path
               style="stroke-width:4.10454px"
               id="path4339"
               d="m 169.21351,793.33298 6.95284,2.20456 q -1.59891,5.81422 -5.3297,8.64865 -3.70657,2.8102 -9.42388,2.8102 -7.07397,0 -11.62844,-4.82095 -4.55447,-4.84518 -4.55447,-13.22735 0,-8.86668 4.5787,-13.76032 4.57869,-4.91786 12.04027,-4.91786 6.51677,0 10.58673,3.85192 2.42259,2.27724 3.63388,6.541 l -7.09819,1.69581 q -0.62987,-2.76175 -2.64062,-4.36066 -1.98653,-1.59891 -4.84518,-1.59891 -3.94883,0 -6.41987,2.83443 -2.44682,2.83443 -2.44682,9.18162 0,6.7348 2.42259,9.59346 2.42259,2.85866 6.29874,2.85866 2.85866,0 4.91786,-1.81694 2.0592,-1.81695 2.95556,-5.71732 z" />
          </g>
          <g
             id="text4555"
             style="font-style:normal;font-variant:normal;font-weight:bold;font-stretch:normal;font-size:43.7037px;line-height:125%;font-family:Arial;-inkscape-font-specification:'Arial Bold';text-align:end;letter-spacing:0px;word-spacing:0px;text-anchor:end;fill:#ffffff;fill-opacity:1;stroke:none;stroke-width:4.10454px;stroke-linecap:butt;stroke-linejoin:miter;stroke-opacity:1"
             transform="matrix(0.28222223,0,0,0.28222223,463.38532,42.655479)">
            <path
               style="stroke-width:4.10454px"
               id="path4342"
               d="m 161.63705,906.27515 h -6.87139 l -2.73148,-7.10612 h -12.50506 l -2.58211,7.10612 h -6.70067 l 12.18498,-31.28401 h 6.67932 z m -11.63014,-12.37703 -4.31062,-11.6088 -4.22526,11.6088 z" />
            <path
               style="stroke-width:4.10454px"
               id="path4344"
               d="m 185.02536,894.77305 6.1245,1.94191 q -1.40842,5.12153 -4.69474,7.61827 -3.26497,2.47541 -8.30114,2.47541 -6.23119,0 -10.24306,-4.2466 -4.01186,-4.26794 -4.01186,-11.65148 0,-7.81033 4.0332,-12.12095 4.03321,-4.33196 10.60583,-4.33196 5.74038,0 9.32545,3.39301 2.13397,2.00593 3.20096,5.76172 l -6.25253,1.49378 q -0.55484,-2.43273 -2.32603,-3.84115 -1.74986,-1.40842 -4.26794,-1.40842 -3.47837,0 -5.65502,2.49675 -2.15531,2.49674 -2.15531,8.08775 0,5.93243 2.13397,8.45052 2.13397,2.51808 5.54832,2.51808 2.51809,0 4.33196,-1.60047 1.81387,-1.60048 2.60344,-5.03617 z" />
          </g>
          <g
             id="text4563"
             style="font-style:normal;font-variant:normal;font-weight:bold;font-stretch:normal;font-size:21.3811px;line-height:125%;font-family:Arial;-inkscape-font-specification:'Arial Bold';text-align:end;letter-spacing:0px;word-spacing:0px;text-anchor:end;fill:#ffffff;fill-opacity:1;stroke:none;stroke-width:4.10454px;stroke-linecap:butt;stroke-linejoin:miter;stroke-opacity:1"
             transform="matrix(0.28222223,0,0,0.28222223,463.38532,42.655479)">
            <path
               style="stroke-width:4.10454px"
               id="path4389"
               d="m 461.86222,397.1682 q 0,-2.33856 0.69948,-3.92544 0.522,-1.16928 1.41984,-2.09843 0.90828,-0.92916 1.9836,-1.37808 1.43027,-0.60552 3.29903,-0.60552 3.38256,0 5.40791,2.09844 2.0358,2.09843 2.0358,5.83595 0,3.70619 -2.01492,5.80463 -2.01491,2.088 -5.38703,2.088 -3.41387,0 -5.42879,-2.07756 -2.01492,-2.088 -2.01492,-5.74199 z m 3.1842,-0.1044 q 0,2.59955 1.2006,3.94631 1.20059,1.33632 3.04847,1.33632 1.84788,0 3.0276,-1.32588 1.19015,-1.33632 1.19015,-3.99851 0,-2.63088 -1.15883,-3.92544 -1.1484,-1.29456 -3.05892,-1.29456 -1.91052,0 -3.07979,1.31544 -1.16928,1.305 -1.16928,3.94632 z" />
            <path
               style="stroke-width:4.10454px"
               id="path4391"
               d="m 479.17172,404.72675 v -15.30502 h 10.49218 v 2.58911 h -7.40195 v 3.62268 h 6.38927 v 2.58912 h -6.38927 v 6.50411 z" />
            <path
               style="stroke-width:4.10454px"
               id="path4393"
               d="m 492.24258,404.72675 v -15.30502 h 10.49218 v 2.58911 h -7.40195 v 3.62268 h 6.38927 v 2.58912 h -6.38927 v 6.50411 z" />
          </g>
        </g>
        </g>
        <g
           transform="matrix(1.3901265,1.0898403,-1.0898403,1.3901265,381.12086,-198.39215)"
           id="g355"
           inkscape:export-xdpi="800"
           inkscape:export-ydpi="800"
           style="stroke-width:1.35866">
          <path
             style="fill:#000000;fill-opacity:1;stroke-width:1.35866"
             d="m 104.07316,153.56872 c 35.51966,0.66718 26.07815,-41.29429 -12.954873,-33.10721 -14.68305,2.92003 -28.81681,11.95099 -40.85239,20.78179 -11.767181,8.56176 -24.551025,18.24714 -32.58719,25.11434 l 0.15183,0.89696 c 5.61619,18.54457 5.93125,40.18086 6.29244,61.59083 30.30661,2.35297 63.49439,-2.40599 93.275053,-12.76198 -7.85428,-21.62282 -13.8954,-42.82876 -13.32487,-62.51266 z"
             id="path349"
             sodipodi:nodetypes="ccccccccc" />
          <path
             inkscape:export-ydpi="800"
             inkscape:export-xdpi="800"
             id="path4396"
             fill="url(#linearGradient4441)"
             d="m 85.241975,148.25439 c -5.415134,-1.56694 -23.929711,2.10252 -50.251926,8.89346 4.623851,23.97708 -10.456132,8.50454 13.871552,71.86547 21.387966,-1.24077 36.178796,-4.2142 49.990238,-7.52005 z"
             style="fill:url(#linearGradient4441);stroke-width:1.3896" />
          <path
             inkscape:export-ydpi="800"
             inkscape:export-xdpi="800"
             id="path4394"
             fill="#1a1a1a"
             d="m 104.34781,147.64941 c 0.20991,-5.48326 0.42838,-11.52892 1.11039,-14.8889 -19.86862,-2.67352 -37.540094,3.12341 -55.799201,6.65832 L 23.19428,160.3187 c 26.569913,-4.8052 50.384584,-12.94376 81.15446,-12.66929 z"
             style="stroke-width:2.74353" />
          <path
             sodipodi:nodetypes="cccccc"
             inkscape:export-ydpi="800"
             inkscape:export-xdpi="800"
             id="path4392"
             stroke="#333333"
             stroke-width="1.3896px"
             fill="#333333"
             d="m 86.283643,122.08194 c -11.091956,3.52962 -25.872001,11.85311 -39.772573,21.72381 -9.832743,6.98198 -19.23694,15.69005 -29.379045,22.6306 -9.2140194,6.30513 -19.5961917,2.36916 -20.4289305,-4.26512 6.1680709,2.72475 11.5849021,1.80335 16.7668485,-1.38484 22.233142,-12.95567 29.133519,-27.49816 72.8137,-38.70445 z" />
        </g>
      </g>
    </g>
  </g>
</svg>
