<?xml version="1.0" encoding="UTF-8"?>
<svg id="logoqbert" version="1.1" viewBox="0 15 297 180" xmlns="http://www.w3.org/2000/svg">
 <defs>
  <clipPath id="clipPath1609"><path d="m0 0h1920v1080h-1920z"/></clipPath>
  <clipPath id="clipPath1635"><path d="m1959.8 863.22 161.21-24.899-37.712-244.17-161.21 24.899z"/></clipPath>
  <clipPath id="clipPath1641"><path d="m1960.6 862.08 159.23-24.592-37.407-242.19-159.23 24.592z"/></clipPath>
  <clipPath id="clipPath1647"><path d="m0 0h1920v1080h-1920z"/></clipPath>
  <clipPath id="clipPath1663"><path d="m1966.5 838.1 138.1-22.2-6.364-39.59-138.1 22.2z"/></clipPath>
  <clipPath id="clipPath1669"><path d="m0 0h1920v1080h-1920z"/></clipPath>
 </defs>
 <g transform="matrix(.145 0 0 .145 -15 -8)" style="stroke-width:2.4">
  <g transform="matrix(1.3333 0 0 -1.3333 0 1440)">
   <g clip-path="url(#clipPath1609)">
    <g transform="translate(93.45 361.57)">
     <g transform="scale(1,-1)" style="fill:#782979" aria-label="GAME SHOW">
      <path d="m80.04-76.56q-3.132-2.784-7.83-4.176-4.698-1.566-9.222-1.566-5.046 0-9.222 1.914-4.176 1.74-7.308 5.046-2.958 3.132-4.698 7.656t-1.74 9.744 1.914 9.744 5.22 7.83q3.306 3.132 7.656 5.046 4.524 1.74 9.57 1.74 5.916 0 10.788-2.436 4.872-2.61 8.352-6.96h-10.44v-24.36h44.718v38.628q-4.002 7.134-9.57 13.05-5.568 5.742-12.528 9.918-6.786 4.176-14.79 6.438t-16.53 2.262q-12.528 0-23.664-4.698t-19.488-12.876q-8.178-8.178-13.05-19.314-4.698-11.136-4.698-24.012 0-12.528 4.524-23.664t12.354-19.314q8.004-8.352 18.792-13.05 10.962-4.872 23.49-4.872 9.744 0 16.878 1.914t12.006 4.35q5.742 2.784 9.57 6.09zm1.74-22.446q-2.262-1.044-5.046-1.74-2.436-0.696-5.742-1.218t-7.308-0.522q-9.222 0-17.226 3.306t-13.92 9.222q-5.916 5.742-9.396 13.92-3.306 8.178-3.306 18.096t3.48 18.096 9.57 14.094q6.09 5.742 14.094 9.048 8.178 3.306 17.4 3.306 12.006 0 21.75-5.568 9.744-5.742 15.834-15.138v-22.794h-18.444v4.176h13.92v17.4q-5.394 8.004-14.094 12.702-8.526 4.698-18.966 4.698-8.352 0-15.66-2.784-7.134-2.958-12.702-8.178-5.394-5.394-8.526-12.702-3.132-7.482-3.132-16.356t2.958-16.182q3.132-7.482 8.352-12.702 5.394-5.394 12.528-8.178 7.134-2.958 15.486-2.958 3.132 0 5.916 0.522t4.872 1.044q2.436 0.696 4.524 1.392z"/>
      <path d="m157.47-116.06h27.84l44.022 116.06h-36.54l-3.828-10.44h-35.148l-3.828 10.44h-36.54zm21.75 80.04-7.83-20.358-7.83 20.358zm-39.846 22.098 3.306-8.7h57.42l3.306 8.7h4.872l-33.582-88.218h-6.612l-33.582 88.218zm32.016-84.042 27.144 71.166h-54.288z"/>
      <path d="m231.94-116.06h30.624l30.276 44.544 30.102-44.544h30.624v116.06h-37.062v-41.76l-23.664 34.8-23.838-34.8v41.76h-37.062zm21.924 102.14v-79.866l38.976 56.724 38.802-56.724v79.866h4.524v-88.218h-4.524l-38.802 57.246-38.976-57.246h-4.524v88.218z"/>
      <path d="m365.75-116.06h68.382v30.45h-31.32v12.876h30.798v28.884h-30.798v13.398h32.538v30.45h-69.6zm56.724 102.14v-4.176h-34.8v-38.106h33.06v-4.176h-33.06v-37.584h34.8v-4.176h-39.324v88.218z"/>
      <path d="m492.07-15.138q2.436 0.522 5.22 0.87 2.436 0.348 5.046 0.696 2.784 0.174 5.568 0.174 4.872 0 9.396-1.044 4.698-1.218 8.352-3.828t5.742-6.612q2.262-4.176 2.262-10.092 0-5.046-2.61-9.57-2.436-4.524-6.438-8.7-3.828-4.176-8.352-8.004-4.35-3.828-8.352-7.656-3.828-4.002-6.438-7.83-2.436-4.002-2.436-8.178 0-6.264 4.002-9.57 4.002-3.48 12.876-3.48 1.392 0 2.784 0.174 1.566 0 2.958 0.174t2.784 0.174v-4.524q-1.218 0-2.61-0.174-1.218-0.174-2.784-0.174-1.392-0.174-2.958-0.174-9.396 0-15.486 4.35-6.09 4.176-6.09 13.224 0 4.872 2.436 9.222 2.61 4.176 6.438 8.352 4.002 4.002 8.352 7.83 4.524 3.828 8.352 7.83 4.002 3.828 6.438 8.004 2.61 4.176 2.61 8.7 0 8.352-5.742 12.702-5.568 4.35-15.486 4.35-5.916 0-10.788-0.87-2.61-0.348-5.046-0.87zm-14.616-20.88q3.828 1.218 8.004 1.914 3.48 0.87 7.83 1.392 4.524 0.522 9.048 0.522 8.004 0 8.004-5.916 0-2.262-2.436-4.524-2.436-2.436-6.264-5.22-3.654-2.958-8.004-6.438-4.176-3.48-8.004-8.004-3.654-4.524-6.09-10.092-2.436-5.742-2.436-13.05 0-8.178 2.958-14.442t8.178-10.44 12.18-6.264q7.134-2.262 15.138-2.262 4.176 0 8.352 0.522 4.176 0.348 7.482 0.696 3.828 0.522 7.482 1.044v32.538q-1.392-0.174-3.132-0.348-1.392-0.174-3.132-0.348t-3.654-0.174q-1.044 0-2.61 0.174-1.566 0-2.958 0.348t-2.436 1.218-1.044 2.436q0 1.392 2.262 3.48 2.436 2.088 5.742 4.872 3.48 2.784 7.482 6.438 4.176 3.654 7.482 8.352 3.48 4.698 5.742 10.614 2.436 5.916 2.436 13.224 0 7.656-2.436 14.442-2.436 6.612-7.656 11.658-5.046 4.872-13.05 7.656-8.004 2.958-18.966 2.958-6.612 0-12.354-0.696-5.568-0.522-9.918-1.392-5.046-0.87-9.222-2.088z"/>
      <path d="m558.89-116.06h37.062v39.498h20.706v-39.498h37.236v116.06h-37.236v-42.978h-20.706v42.978h-37.062zm21.924 102.14v-44.022h51.156v44.022h4.524v-88.218h-4.524v40.02h-51.156v-40.02h-4.524v88.218z"/>
      <path d="m663.46-57.942q0-12.528 4.698-23.664 4.872-11.136 13.05-19.314 8.352-8.352 19.488-13.05 11.136-4.872 23.664-4.872t23.664 4.872q11.136 4.698 19.314 13.05 8.352 8.178 13.05 19.314 4.872 11.136 4.872 23.664t-4.872 23.664q-4.698 11.136-13.05 19.488-8.178 8.178-19.314 13.05-11.136 4.698-23.664 4.698t-23.664-4.698q-11.136-4.872-19.488-13.05-8.178-8.352-13.05-19.488-4.698-11.136-4.698-23.664zm16.356 0q0 9.222 3.48 17.4 3.48 8.004 9.57 14.094t14.094 9.57q8.178 3.48 17.4 3.48t17.226-3.48q8.178-3.48 14.268-9.57t9.57-14.094q3.48-8.178 3.48-17.4t-3.48-17.226q-3.48-8.178-9.57-14.268t-14.268-9.57q-8.004-3.48-17.226-3.48t-17.4 3.48q-8.004 3.48-14.094 9.57t-9.57 14.268q-3.48 8.004-3.48 17.226zm20.184 0q0 5.046 1.914 9.57 1.914 4.35 5.22 7.656t7.656 5.22q4.524 1.914 9.57 1.914t9.396-1.914q4.524-1.914 7.83-5.22t5.22-7.656q1.914-4.524 1.914-9.57t-1.914-9.396q-1.914-4.524-5.22-7.83t-7.83-5.22q-4.35-1.914-9.396-1.914t-9.57 1.914q-4.35 1.914-7.656 5.22t-5.22 7.83q-1.914 4.35-1.914 9.396zm24.36 40.02q-8.352 0-15.66-3.132-7.134-3.132-12.702-8.526-5.394-5.568-8.526-12.702-3.132-7.308-3.132-15.66t3.132-15.486q3.132-7.308 8.526-12.702 5.568-5.568 12.702-8.7 7.308-3.132 15.66-3.132t15.486 3.132q7.308 3.132 12.702 8.7 5.568 5.394 8.7 12.702 3.132 7.134 3.132 15.486t-3.132 15.66q-3.132 7.134-8.7 12.702-5.394 5.394-12.702 8.526-7.134 3.132-15.486 3.132z"/>
      <path d="m779.17-116.06h39.324l13.398 40.542 13.398-40.542h25.404l13.398 40.542 13.398-40.542h39.324l-38.28 116.06h-28.884l-11.658-35.148-11.658 35.148h-28.884zm55.68 102.14 23.142-72.906 23.142 72.906h4.35l29.058-88.218h-4.698l-26.448 80.214-25.404-80.214-25.404 80.214-26.448-80.214h-4.698l29.058 88.218z"/>
     </g>
    </g>
    <g transform="translate(101.99 767.24)">
     <g transform="scale(1,-1)" style="fill:#175B74" aria-label="24 HOUR">
      <path d="m35.75-80q5.25-10 6.75-15t1.5-9.5q0-16.75-20.5-16.75-2 0-3.75 0.25-1.75 0-3.25 0.25-1.25 0.25-3.25 0.25v-46.25q3.5-0.75 6.25-1.25t5.25-0.75q2.75-0.25 5.5-0.25 3-0.25 6.75-0.25 12 0 23.5 2.75 11.75 2.5 21 8.5t15 16 5.75 24.5q0 6.75-1.5 13.5-1.5 6.5-4.75 14.25-3 7.75-8 17.5-4.75 9.5-11.25 22.25l-3.25 6.25h31.5l-14.25 43.75h-97zm41.5 60 2.25-6h-41l28.25-53.5q4.5-8.75 7.25-17 3-8.25 3-16.75 0-16.5-10.75-25-10.5-8.5-27.25-8.5-0.75 0-1.5 0.25-0.5 0-1 0h-0.75v6h0.75q0.5 0 1 0 0.75-0.25 1.5-0.25 14.25 0 22.75 7.25 8.75 7 8.75 20.5 0 7-2.5 14.75-2.5 7.5-7 16.25l-32.75 62z"/>
      <path d="m175-166.75h42.25v96.75h10v46.75h-10v23.25h-51.75v-23.25h-56.75v-20zm18 146.75v-23.25h11v-6h-11v-97.5h-3l-55.5 103.5h52v23.25zm-6.5-106.75v77.5h-41.5z"/>
      <path d="m286-166.75h53.25v56.75h29.75v-56.75h53.5v166.75h-53.5v-61.75h-29.75v61.75h-53.25zm31.5 146.75v-63.25h73.5v63.25h6.5v-126.75h-6.5v57.5h-73.5v-57.5h-6.5v126.75z"/>
      <path d="m436.25-83.25q0-18 6.75-34 7-16 18.75-27.75 12-12 28-18.75 16-7 34-7t34 7q16 6.75 27.75 18.75 12 11.75 18.75 27.75 7 16 7 34t-7 34q-6.75 16-18.75 28-11.75 11.75-27.75 18.75-16 6.75-34 6.75t-34-6.75q-16-7-28-18.75-11.75-12-18.75-28-6.75-16-6.75-34zm23.5 0q0 13.25 5 25 5 11.5 13.75 20.25t20.25 13.75q11.75 5 25 5t24.75-5q11.75-5 20.5-13.75t13.75-20.25q5-11.75 5-25t-5-24.75q-5-11.75-13.75-20.5t-20.5-13.75q-11.5-5-24.75-5t-25 5q-11.5 5-20.25 13.75t-13.75 20.5q-5 11.5-5 24.75zm29 0q0 7.25 2.75 13.75 2.75 6.25 7.5 11t11 7.5q6.5 2.75 13.75 2.75t13.5-2.75q6.5-2.75 11.25-7.5t7.5-11q2.75-6.5 2.75-13.75t-2.75-13.5q-2.75-6.5-7.5-11.25t-11.25-7.5q-6.25-2.75-13.5-2.75t-13.75 2.75q-6.25 2.75-11 7.5t-7.5 11.25q-2.75 6.25-2.75 13.5zm35 57.5q-12 0-22.5-4.5-10.25-4.5-18.25-12.25-7.75-8-12.25-18.25-4.5-10.5-4.5-22.5t4.5-22.25q4.5-10.5 12.25-18.25 8-8 18.25-12.5 10.5-4.5 22.5-4.5t22.25 4.5q10.5 4.5 18.25 12.5 8 7.75 12.5 18.25 4.5 10.25 4.5 22.25t-4.5 22.5q-4.5 10.25-12.5 18.25-7.75 7.75-18.25 12.25-10.25 4.5-22.25 4.5z"/>
      <path d="m693.25 4.25q-15.75 0-28.5-4t-21.75-12-14-20.25q-4.75-12.25-4.75-28.75v-106h53.25v103.75q0 8.75 3.5 13.5 3.75 4.5 12.25 4.5t12-4.5q3.75-4.75 3.75-13.5v-103.75h53.5v106q0 16.5-5 28.75-4.75 12.25-14 20.25-9 8-21.75 12t-28.5 4zm0-30q-37.5 0-37.5-36.75v-84.25h-6.5v84.25q0 21 11.25 32.25 11.5 11 32.75 11t32.75-11q11.5-11.25 11.5-32.25v-84.25h-6.75v84.25q0 36.75-37.5 36.75z"/>
      <path d="m831.25-58q9.75 0 19-2l23.75 40h7.75l-25-42q13.5-4.75 21.5-14.5 8-10 8-25.75 0-11-4.25-19.25t-11.75-13.75q-7.25-5.75-17.25-8.5-10-3-21.75-3h-27v126.75h6.5v-38zm-20.5-6v-76.75h20.5q22.75 0 35.5 10 13 10 13 28.5t-13 28.5q-12.75 9.75-35.5 9.75zm-31.5-102.75h57.5q16 0 29.5 4.25 13.75 4.25 23.75 12.5t15.5 20.5q5.75 12 5.75 27.75 0 12.5-3.5 21.25t-7.75 14.5q-5 6.5-11.25 11l31.25 55h-62.5l-25-42.25v42.25h-53.25zm53.25 82h2.75q9.5 0 16-4.25 6.75-4.25 6.75-14.25t-6.75-14.25q-6.5-4.25-16-4.25h-2.75z"/>
     </g>
    </g>
    <g transform="translate(82.408 512.08)">
     <g transform="scale(1,-1)" style="fill:#CA273A" aria-label="MATHS">
      <path d="m11.725-223.44h58.96l58.29 85.76 57.955-85.76h58.96v223.44h-71.355v-80.4l-45.56 67-45.895-67v80.4h-71.355zm42.21 196.64v-153.76l75.04 109.21 74.705-109.21v153.76h8.71v-169.84h-8.71l-74.705 110.22-75.04-110.22h-8.71v169.84z"/>
      <path d="m335.67-223.44h53.6l84.755 223.44h-70.35l-7.37-20.1h-67.67l-7.37 20.1h-70.35zm41.875 154.1-15.075-39.195-15.075 39.195zm-76.715 42.545 6.365-16.75h110.55l6.365 16.75h9.38l-64.655-169.84h-12.73l-64.655 169.84zm61.64-161.8 52.26 137.02h-104.52z"/>
      <path d="m483.41-164.82h-41.205v-58.625h156.11v58.625h-41.205v164.82h-73.7zm41.205 138.02v-161.8h47.905v-8.04h-104.52v8.04h47.905v161.8z"/>
      <path d="m610.04-223.44h71.355v76.045h39.865v-76.045h71.69v223.44h-71.69v-82.745h-39.865v82.745h-71.355zm42.21 196.64v-84.755h98.49v84.755h8.71v-169.84h-8.71v77.05h-98.49v-77.05h-8.71v169.84z"/>
      <path d="m838.5-29.145q4.69 1.005 10.05 1.675 4.69 0.67 9.715 1.34 5.36 0.335 10.72 0.335 9.38 0 18.09-2.01 9.045-2.345 16.08-7.37t11.055-12.73q4.355-8.04 4.355-19.43 0-9.715-5.025-18.425-4.69-8.71-12.395-16.75-7.37-8.04-16.08-15.41-8.375-7.37-16.08-14.74-7.37-7.705-12.395-15.075-4.69-7.705-4.69-15.745 0-12.06 7.705-18.425 7.705-6.7 24.79-6.7 2.68 0 5.36 0.335 3.015 0 5.695 0.335t5.36 0.335v-8.71q-2.345 0-5.025-0.335-2.345-0.335-5.36-0.335-2.68-0.335-5.695-0.335-18.09 0-29.815 8.375-11.725 8.04-11.725 25.46 0 9.38 4.69 17.755 5.025 8.04 12.395 16.08 7.705 7.705 16.08 15.075 8.71 7.37 16.08 15.075 7.705 7.37 12.395 15.41 5.025 8.04 5.025 16.75 0 16.08-11.055 24.455-10.72 8.375-29.815 8.375-11.39 0-20.77-1.675-5.025-0.67-9.715-1.675zm-28.14-40.2q7.37 2.345 15.41 3.685 6.7 1.675 15.075 2.68 8.71 1.005 17.42 1.005 15.41 0 15.41-11.39 0-4.355-4.69-8.71-4.69-4.69-12.06-10.05-7.035-5.695-15.41-12.395-8.04-6.7-15.41-15.41-7.035-8.71-11.725-19.43-4.69-11.055-4.69-25.125 0-15.745 5.695-27.805t15.745-20.1 23.45-12.06q13.735-4.355 29.145-4.355 8.04 0 16.08 1.005 8.04 0.67 14.405 1.34 7.37 1.005 14.405 2.01v62.645q-2.68-0.335-6.03-0.67-2.68-0.335-6.03-0.67t-7.035-0.335q-2.01 0-5.025 0.335-3.015 0-5.695 0.67t-4.69 2.345-2.01 4.69q0 2.68 4.355 6.7 4.69 4.02 11.055 9.38 6.7 5.36 14.405 12.395 8.04 7.035 14.405 16.08 6.7 9.045 11.055 20.435 4.69 11.39 4.69 25.46 0 14.74-4.69 27.805-4.69 12.73-14.74 22.445-9.715 9.38-25.125 14.74-15.41 5.695-36.515 5.695-12.73 0-23.785-1.34-10.72-1.005-19.095-2.68-9.715-1.675-17.755-4.02z"/>
     </g>
    </g>
   </g>
   <g clip-path="url(#clipPath1663)">
    <g clip-path="url(#clipPath1669)">
     <g transform="matrix(.98732 -.15871 -.15871 -.98732 1968.1 835.81)">
      <path d="m10.689 0h114.5c3.1367 0 5.0187 0 6.2734 0.52381 1.8087 0.65832 3.2335 2.0831 3.8919 3.8918 0.5238 1.2547 0.5238 3.1367 0.5238 6.2734v14.72c0 3.1367 0 5.0187-0.5238 6.2734-0.6584 1.8087-2.0832 3.2335-3.8919 3.8918-1.2547 0.52381-3.1367 0.52381-6.2734 0.52381h-114.5c-3.1367 0-5.0187 0-6.2734-0.52381-1.8087-0.65833-3.2335-2.0831-3.8918-3.8918-0.52381-1.2547-0.52381-3.1367-0.52381-6.2734v-14.72c0-3.1367 0-5.0187 0.52381-6.2734 0.65832-1.8087 2.0831-3.2335 3.8918-3.8918 1.2547-0.52381 3.1367-0.52381 6.2734-0.52381z" style="fill:none;stroke-width:2;stroke:#ff9301"/>
     </g>
    </g>
   </g>
   <g transform="translate(-120 0)">
    <g transform="translate(-625.11 -51.58)">
     <path transform="matrix(.8865 -.46272 0 -1 0 0)" d="m2202.9-1655.7 111.41 2.3488v119.34l-111.41-2.3488z" style="fill:#782979;stop-color:#000000"/>
     <path transform="matrix(-.8865 -.46272 0 -1 0 0)" d="m-2430.8 488.45h116.49v119.34l-116.49 1.5z" style="fill:#175B74;stop-color:#000000"/>
     <path d="m1952.9 636.33 98.768-53.903 103.27 53.903-101.23 56.343z" style="fill:#CA273A;stop-color:#000000"/>
     <path d="m2051.6 463.08 98.768-53.902v-119.34l-98.768 53.902z" style="fill:#782979;stop-color:#000000"/>
     <path d="m2253.7 463.08-103.27-53.903v-119.34l103.27 52.403z" style="fill:#175B74;stop-color:#000000"/>
     <path d="m2047.1 463.08 103.27-53.903 103.27 53.903-98.23 56.343z" style="fill:#CA273A;stop-color:#000000"/>
     <path transform="matrix(.8865 -.46272 0 -1 0 0)" d="m2086.4-1428.5 111.41 2.3488v119.34l-111.41-2.3488z" style="fill:#782979;stop-color:#000000"/>
     <path transform="matrix(-.8865 -.46272 0 -1 0 0)" d="m-2314.3 607.8h116.49v119.34l-116.49 1.5z" style="fill:#175B74;stop-color:#000000"/>
     <path d="m1849.6 463.08 98.768-53.903 107.77 53.903-102.73 56.343z" style="fill:#CA273A;stop-color:#000000"/>
     <path d="m2149.9 285.9 98.768-53.902v-119.34l-98.768 53.902z" style="fill:#782979;stop-color:#000000"/>
     <path d="m2351.9 285.9-103.27-53.903v-119.34l103.27 52.403z" style="fill:#175B74;stop-color:#000000"/>
     <path d="m2145.4 287.4 103.27-55.403 103.27 53.903-98.23 56.343z" style="fill:#CA273A;stop-color:#000000"/>
     <path d="m1948.4 289.84 98.768-53.902v-119.34l-98.768 53.902z" style="fill:#782979;stop-color:#000000"/>
     <path d="m2150.4 289.84-103.27-53.903v-119.34l103.27 52.403z" style="fill:#175B74;stop-color:#000000"/>
     <path d="m1943.9 289.84 103.27-53.903 107.77 53.903-99.73 56.343z" style="fill:#CA273A;stop-color:#000000"/>
     <path transform="matrix(.8865 -.46272 0 -1 0 0)" d="m1969.9-1201.4 111.41 2.3488v119.34l-111.41-2.3488z" style="fill:#782979;stop-color:#000000"/>
     <path transform="matrix(-.8865 -.46272 0 -1 0 0)" d="m-2197.8 727.14h116.49v119.34l-116.49 1.5z" style="fill:#175B74;stop-color:#000000"/>
     <path d="m1746.3 289.84 98.768-53.903 107.77 53.903-102.73 56.343z" style="fill:#CA273A;stop-color:#000000"/>
    </g>
    <g id="calculator">
     <g transform="matrix(.87099 -.11895 -.11903 -.87135 968.37 931.52)" style="stroke-width:4.1045">
      <path d="m570.83 326.35c24.19 0 76.402 0 82.449-14.313s4.0317-17.74 4.0317-22.376c0-4.6365-4.8381-121.56-4.8381-121.56l6.2492-88.497s-1.0079-7.6603-3.6286-12.297c-2.6206-4.6365-50.598-18.344-88.9-18.949-38.302-0.60476-81.844 14.313-81.844 14.313s-4.0318 3.0238-6.2492 6.2492c-2.2175 3.2254-2.8222 21.57-0.80634 32.657 2.0159 11.087 7.2571 67.129 7.2571 67.129 1.8585 0-5.0641 128.33 3.6286 144.13 4.1001 7.4542 12.327 9.3451 17.74 10.886s64.911 2.6206 64.911 2.6206z" style="fill-rule:evenodd;fill:#666666;stroke-width:1.1584px;stroke:#000000"/>
      <path d="m567.81 52.998c-47.776 0-85.248 10.285-86.884 19.151-2.419 13.103 3.6969 61.612 10.08 70.556 8.2171 11.515 75.334 13.887 78.619 13.86 3.2327-0.0581 10.284-0.11478 19.211-0.95039-0.0365-0.33764-0.0565-0.67686-0.0601-1.0164 4e-5 -5.7893 4.6932-10.482 10.482-10.482 5.1928 5e-3 9.5996 3.8105 10.36 8.9473 1.712-0.25929 3.4138-0.53499 5.1043-0.81855-0.0902-0.62259-0.13811-1.2506-0.14332-1.8796-2.2e-4 -7.6821 6.2273-13.91 13.909-13.91 5.844 5e-3 11.061 3.6632 13.059 9.1551 3.2251-1.3622 5.3498-2.8098 5.8903-4.3166 2.9237-8.1504 9.6762-67.33 4.2333-71.564-5.4429-4.2333-36.084-16.732-83.86-16.732z" style="fill-rule:evenodd;fill:#000000;stroke-width:1.1584px;stroke:#666666"/>
      <rect x="499.27" y="83.081" width="135.73" height="28.816" rx="2.3519" ry="1.6121" style="color:#000000;fill:#ac9393;stroke-linecap:round;stroke-linejoin:round;stroke-width:.4574;stroke:#000000"/>
      <g id="hello" stroke="#000000" stroke-linecap="round" stroke-width="1.5">
       <path d="m505 87v9"/>
       <path d="m505 98v9"/>
       <path d="m506 86h9"/>
       <path d="m506 108h9"/>
       <path d="m516 87v9"/>
       <path d="m516 98v9"/>
       <path d="m518.5 108h0.1"/>
       <path d="m521 87v9"/>
       <path d="m522 86h9"/>
       <path d="m532 87v9"/>
       <path d="m532 98v9"/>
       <path d="m537 87v9"/>
       <path d="m538 86h9"/>
       <path d="m548 87v9"/>
       <path d="m548 98v9"/>
       <path d="m554 86h9"/>
       <path d="m554 97h9"/>
       <path d="m554 108h9"/>
       <path d="m564 87v9"/>
       <path d="m564 98v9"/>
       <path d="m569 87v9"/>
       <path d="m570 97h9"/>
       <path d="m580 87v9"/>
       <path d="m580 98v9"/>
      </g>
      <rect x="489.99" y="76.781" width="155.03" height="40.729" rx="8.2695" ry="7.4626" style="color:#000000;fill:none;stroke-linecap:round;stroke-linejoin:round;stroke-width:4.6336;stroke:#c87137"/>
      <circle cx="599.46" cy="154.73" r="7.4587" style="color:#000000;fill:#d4aa00;stroke-linecap:round;stroke-linejoin:round;stroke-width:4.6336;stroke:#000000"/>
      <circle cx="628.56" cy="150.93" r="10.483" style="color:#000000;fill:#d4aa00;stroke-linecap:round;stroke-linejoin:round;stroke-width:4.6336;stroke:#000000"/>
      <rect x="497.91" y="171.78" width="23.142" height="15.795" rx="8.2695" ry="7.4625" style="color:#000000;fill:#1a1a1a;stroke-linecap:round;stroke-linejoin:round;stroke-width:3.4752;stroke:#000000"/>
      <rect x="527.83" y="171.78" width="23.142" height="15.795" rx="8.2695" ry="7.4625" style="color:#000000;fill:#1a1a1a;stroke-linecap:round;stroke-linejoin:round;stroke-width:3.4752;stroke:#000000"/>
      <rect x="558.31" y="171.78" width="23.142" height="15.795" rx="8.2695" ry="7.4625" style="color:#000000;fill:#1a1a1a;stroke-linecap:round;stroke-linejoin:round;stroke-width:3.4752;stroke:#000000"/>
      <rect x="496.33" y="225.48" width="24.82" height="20.779" rx="7.0323" ry="7.6131" style="color:#000000;fill:#1a1a1a;stroke-linecap:round;stroke-linejoin:round;stroke-width:4.1279;stroke:#000000"/>
      <rect x="527.94" y="225.48" width="24.82" height="20.779" rx="7.0323" ry="7.6131" style="color:#000000;fill:#1a1a1a;stroke-linecap:round;stroke-linejoin:round;stroke-width:4.1279;stroke:#000000"/>
      <rect x="527.94" y="197.26" width="24.82" height="20.779" rx="7.0323" ry="7.6131" style="color:#000000;fill:#1a1a1a;stroke-linecap:round;stroke-linejoin:round;stroke-width:4.1279;stroke:#000000"/>
      <rect x="557.85" y="197.26" width="24.82" height="20.779" rx="7.0323" ry="7.6131" style="color:#000000;fill:#1a1a1a;stroke-linecap:round;stroke-linejoin:round;stroke-width:4.1279;stroke:#000000"/>
      <rect x="589.46" y="196.7" width="24.82" height="20.779" rx="7.0323" ry="7.6131" style="color:#000000;fill:#1a1a1a;stroke-linecap:round;stroke-linejoin:round;stroke-width:4.1279;stroke:#000000"/>
      <rect x="618.25" y="196.7" width="24.82" height="20.779" rx="7.0323" ry="7.6131" style="color:#000000;fill:#1a1a1a;stroke-linecap:round;stroke-linejoin:round;stroke-width:4.1279;stroke:#000000"/>
      <rect x="618.25" y="169.04" width="24.82" height="20.779" rx="7.0323" ry="7.6131" style="color:#000000;fill:#1a1a1a;stroke-linecap:round;stroke-linejoin:round;stroke-width:4.1279;stroke:#000000"/>
      <rect x="619.38" y="224.36" width="24.82" height="20.779" rx="7.0323" ry="7.6131" style="color:#000000;fill:#1a1a1a;stroke-linecap:round;stroke-linejoin:round;stroke-width:4.1279;stroke:#000000"/>
      <rect x="557.85" y="224.92" width="24.82" height="20.779" rx="7.0323" ry="7.6131" style="color:#000000;fill:#1a1a1a;stroke-linecap:round;stroke-linejoin:round;stroke-width:4.1279;stroke:#000000"/>
      <rect x="590.03" y="224.92" width="24.82" height="20.779" rx="7.0323" ry="7.6131" style="color:#000000;fill:#1a1a1a;stroke-linecap:round;stroke-linejoin:round;stroke-width:4.1279;stroke:#000000"/>
      <rect x="527.94" y="254.27" width="24.82" height="20.779" rx="7.0323" ry="7.6131" style="color:#000000;fill:#1a1a1a;stroke-linecap:round;stroke-linejoin:round;stroke-width:4.1279;stroke:#000000"/>
      <rect x="557.85" y="253.71" width="24.82" height="20.779" rx="7.0323" ry="7.6131" style="color:#000000;fill:#1a1a1a;stroke-linecap:round;stroke-linejoin:round;stroke-width:4.1279;stroke:#000000"/>
      <rect x="590.03" y="253.71" width="24.82" height="20.779" rx="7.0323" ry="7.6131" style="color:#000000;fill:#1a1a1a;stroke-linecap:round;stroke-linejoin:round;stroke-width:4.1279;stroke:#000000"/>
      <rect x="527.94" y="283.06" width="24.82" height="20.779" rx="7.0323" ry="7.6131" style="color:#000000;fill:#1a1a1a;stroke-linecap:round;stroke-linejoin:round;stroke-width:4.1279;stroke:#000000"/>
      <rect x="557.85" y="282.49" width="24.82" height="20.779" rx="7.0323" ry="7.6131" style="color:#000000;fill:#1a1a1a;stroke-linecap:round;stroke-linejoin:round;stroke-width:4.1279;stroke:#000000"/>
      <rect x="590.03" y="282.49" width="24.82" height="20.779" rx="7.0323" ry="7.6131" style="color:#000000;fill:#1a1a1a;stroke-linecap:round;stroke-linejoin:round;stroke-width:4.1279;stroke:#000000"/>
      <rect x="496.33" y="254.84" width="24.82" height="20.779" rx="7.0323" ry="7.6131" style="color:#000000;fill:#ff2a2a;stroke-linecap:round;stroke-linejoin:round;stroke-width:4.1279;stroke:#000000"/>
      <rect x="496.33" y="283.62" width="24.82" height="20.779" rx="7.0323" ry="7.6131" style="color:#000000;fill:#ff2a2a;stroke-linecap:round;stroke-linejoin:round;stroke-width:4.1279;stroke:#000000"/>
      <rect x="621.9" y="252.85" width="24.283" height="49.996" rx="6.8801" ry="4.3588" style="color:#000000;fill:#1a1a1a;stroke-linecap:round;stroke-linejoin:round;stroke-width:6.3332;stroke:#000000"/>
      <ellipse cx="507.95" cy="208.15" rx="5.8774" ry="5.51" style="color:#000000;fill:#999999;stroke-linecap:round;stroke-linejoin:round;stroke-width:3.4752;stroke:#999999"/>
      <circle cx="507.95" cy="208.15" r="2.5714" style="color:#000000;fill:#333333;stroke-linecap:round;stroke-linejoin:round;stroke-width:3.4752;stroke:#000000"/>
      <g transform="matrix(.28222 0 0 .28222 463.39 42.655)" style="fill:#ffffff">
       <path d="m127.38 555.5v-13.464h5.7216q2.1582 0 3.1318 0.36737 0.98269 0.35817 1.5705 1.2858t0.58778 2.1215q0 1.5154-0.89085 2.5072-0.89085 0.98269-2.6634 1.2398 0.88167 0.5143 1.4511 1.1296 0.57859 0.61533 1.5521 2.1858l1.6439 2.6266h-3.2512l-1.9654-2.9297q-1.047-1.5705-1.4327-1.9746-0.38573-0.41328-0.81738-0.56022-0.43165-0.15613-1.3684-0.15613h-0.55104v5.6206zm2.7185-7.7697h2.0113q1.9562 0 2.443-0.16531 0.48676-0.16531 0.76228-0.56941t0.27552-1.0102q0-0.67962-0.36736-1.0929-0.35818-0.42247-1.0194-0.53268-0.33062-0.0459-1.9838-0.0459h-2.1215v3.4165z" style="stroke-width:4.1045px"/>
       <path d="m140.97 555.5v-13.464h9.983v2.2776h-7.2646v2.9848h6.7594v2.2684h-6.7594v3.6644h7.5217v2.2685z" style="stroke-width:4.1045px"/>
       <path d="m152.84 551.12 2.645-0.25715q0.23879 1.3317 0.96433 1.9562 0.73472 0.62451 1.9746 0.62451 1.3133 0 1.9746-0.55104 0.67044-0.56023 0.67044-1.3041 0-0.47757-0.28471-0.8082-0.27552-0.33981-0.97351-0.58777-0.47757-0.16532-2.1766-0.58778-2.1858-0.54186-3.0675-1.3317-1.2398-1.1113-1.2398-2.7093 0-1.0286 0.57859-1.9195 0.58778-0.90004 1.6807-1.3684 1.1021-0.46839 2.6542-0.46839 2.5348 0 3.8114 1.1113 1.2858 1.1113 1.35 2.9664l-2.7185 0.1194q-0.1745-1.0378-0.75309-1.4878-0.56941-0.4592-1.7174-0.4592-1.1847 0-1.8552 0.48676-0.43165 0.31225-0.43165 0.83574 0 0.47757 0.4041 0.81738 0.5143 0.43165 2.498 0.90004 1.9838 0.46838 2.9297 0.9735 0.95514 0.49594 1.4878 1.3684 0.54186 0.8633 0.54186 2.1399 0 1.1572-0.64288 2.1674t-1.8184 1.5062q-1.1756 0.48675-2.9297 0.48675-2.5532 0-3.9216-1.1756-1.3684-1.1847-1.6348-3.444z" style="stroke-width:4.1045px"/>
       <path d="m166.1 555.5v-13.464h9.983v2.2776h-7.2646v2.9848h6.7594v2.2684h-6.7594v3.6644h7.5217v2.2685z" style="stroke-width:4.1045px"/>
       <path d="m181.69 555.5v-11.186h-3.995v-2.2776h10.699v2.2776h-3.9859v11.186z" style="stroke-width:4.1045px"/>
      </g>
      <g transform="matrix(.28222 0 0 .28222 463.39 42.655)" style="fill:#ffffff">
       <path d="m138.64 497.49v-23.934h7.2324l4.3427 16.326 4.2937-16.326h7.2487v23.934h-4.4896v-18.84l-4.7508 18.84h-4.6529l-4.7345-18.84v18.84z" style="stroke-width:4.1045px"/>
       <path d="m166.54 497.49v-23.934h10.171q3.8366 0 5.5671 0.65304 1.7469 0.63671 2.7917 2.2856 1.0449 1.6489 1.0449 3.7713 0 2.6938-1.5836 4.457-1.5836 1.7469-4.7345 2.204 1.5673 0.91425 2.5795 2.0081 1.0285 1.0938 2.7591 3.8856l2.9223 4.6692h-5.7794l-3.4937-5.208q-1.8612-2.7917-2.5468-3.5101-0.68569-0.73466-1.453-0.99588-0.76732-0.27754-2.4326-0.27754h-0.97956v9.9914zm4.8325-13.812h3.5754q3.4774 0 4.3427-0.29387 0.86528-0.29386 1.355-1.0122 0.48978-0.71834 0.48978-1.7958 0-1.2081-0.65303-1.9428-0.63671-0.75099-1.8122-0.94691-0.58773-0.0816-3.5264-0.0816h-3.7713v6.0732z" style="stroke-width:4.1045px"/>
      </g>
      <g transform="matrix(.28222 0 0 .28222 462.35 42.655)" style="fill:#ffffff">
       <path d="m251.18 497.49v-23.934h7.2324l4.3427 16.326 4.2937-16.326h7.2487v23.934h-4.4896v-18.84l-4.7508 18.84h-4.6529l-4.7345-18.84v18.84z" style="stroke-width:4.1045px"/>
       <path d="m278.51 489.11v-4.5876h16.375v4.5876z" style="stroke-width:4.1045px"/>
      </g>
      <g transform="matrix(.28222 0 0 .28222 463.39 42.655)" style="fill:#ffffff">
       <path d="m355.56 497.49v-23.934h7.2324l4.3427 16.326 4.2937-16.326h7.2487v23.934h-4.4896v-18.84l-4.7508 18.84h-4.6529l-4.7345-18.84v18.84z" style="stroke-width:4.1045px"/>
       <path d="m388.67 494.04v-6.2202h-6.2692v-4.2937h6.2692v-6.2202h4.1794v6.2202h6.2855v4.2937h-6.2855v6.2202z" style="stroke-width:4.1045px"/>
      </g>
      <g transform="matrix(.28222 0 0 .28222 463.39 42.655)" style="fill:#ffffff">
       <path d="m587.52 475.15v-10.351h10.351v10.351zm-13.703 14.329v-9.6877h37.756v9.6877zm13.703 14.992v-10.351h10.351v10.351z" style="stroke-width:4.1045px"/>
      </g>
      <g transform="matrix(.28222 0 0 .28222 463.39 42.655)" style="fill:#ffffff">
       <path d="m574.8 593.79 11.124-11.124-11.198-11.161 6.8514-6.8514 11.198 11.161 11.124-11.124 6.6672 6.704-11.124 11.124 11.235 11.235-6.8514 6.8514-11.235-11.235-11.124 11.124z" style="stroke-width:4.1045px"/>
      </g>
      <g transform="matrix(.37059 0 0 .21493 463.39 42.655)" style="fill:#ffffff">
       <path d="m441.07 900.53v-13.592h26.699v13.592z" style="stroke-width:4.1045px"/>
      </g>
      <g transform="matrix(.28222 0 0 .28222 463.39 42.655)" style="fill:#ffffff">
       <path d="m599.96 852.23v-14.034h-14.145v-9.6877h14.145v-14.034h9.4298v14.034h14.182v9.6877h-14.182v14.034z" style="stroke-width:4.1045px"/>
      </g>
      <g transform="matrix(.28222 0 0 .28222 463.39 42.655)" style="fill:#ffffff">
       <path d="m256.9 569.45v-8.5803h31.592v6.7064q-3.9121 3.8463-7.9556 11.046-4.0436 7.1995-6.1804 15.32-2.104 8.0871-2.0711 14.465h-8.909q0.23012-9.9939 4.1093-20.382 3.9121-10.388 10.421-18.574z" style="stroke-width:4.1045px"/>
      </g>
      <g transform="matrix(.28222 0 0 .28222 463.39 42.655)" style="fill:#ffffff">
       <path d="m370.91 582.4q-3.5833-1.5122-5.2271-4.1422-1.6108-2.6628-1.6108-5.8188 0-5.3914 3.7477-8.909 3.7806-3.5176 10.717-3.5176 6.8708 0 10.651 3.5176 3.8134 3.5176 3.8134 8.909 0 3.3532-1.7424 5.9832-1.7424 2.5971-4.8983 3.9778 4.0107 1.6108 6.0818 4.7011 2.104 3.0902 2.104 7.1338 0 6.6735-4.2737 10.849-4.2408 4.1751-11.309 4.1751-6.5749 0-10.947-3.4518-5.1613-4.0764-5.1613-11.177 0-3.9121 1.9396-7.1666 1.9396-3.2874 6.1147-5.0627zm1.9067-9.3035q0 2.7615 1.5451 4.3066 1.578 1.5451 4.1751 1.5451 2.63 0 4.208-1.5451 1.578-1.578 1.578-4.3394 0-2.5971-1.578-4.1422-1.5451-1.578-4.1093-1.578-2.6628 0-4.2408 1.578t-1.578 4.1751zm-0.85474 20.645q0 3.8134 1.9396 5.9503 1.9725 2.1368 4.8983 2.1368 2.8601 0 4.7339-2.0382 1.8738-2.0711 1.8738-5.9503 0-3.3861-1.9067-5.4243-1.9067-2.0711-4.8326-2.0711-3.3861 0-5.0627 2.3341-1.6437 2.3341-1.6437 5.0627z" style="stroke-width:4.1045px"/>
      </g>
      <g transform="matrix(.28222 0 0 .28222 463.39 42.655)" style="fill:#ffffff">
       <path d="m475.53 595.26 8.9419-0.98624q0.32875 2.7286 1.7095 4.0436t3.6491 1.315q2.8601 0 4.8654-2.63 2.0054-2.63 2.5642-10.914-3.4847 4.0436-8.7118 4.0436-5.6873 0-9.8295-4.3723-4.1093-4.4052-4.1093-11.44 0-7.331 4.3394-11.802 4.3723-4.5038 11.112-4.5038 7.331 0 12.032 5.6873 4.7011 5.6544 4.7011 18.64 0 13.216-4.8983 19.067t-12.755 5.8517q-5.6544 0-9.1391-2.9916-3.4847-3.0245-4.4709-9.0076zm20.908-20.185q0-4.4709-2.0711-6.9365-2.0382-2.4656-4.7339-2.4656-2.5642 0-4.2737 2.0382-1.6766 2.0054-1.6766 6.6078 0 4.6682 1.841 6.8708 1.841 2.1697 4.6024 2.1697 2.6628 0 4.4709-2.104 1.841-2.104 1.841-6.1804z" style="stroke-width:4.1045px"/>
      </g>
      <g transform="matrix(.28222 0 0 .28222 463.39 42.655)" style="fill:#ffffff">
       <path d="m275.1 708.83v-9.698h-19.725v-8.0871l20.908-30.606h7.7584v30.573h5.9832v8.12h-5.9832v9.698zm0-17.818v-16.47l-11.079 16.47z" style="stroke-width:4.1045px"/>
      </g>
      <g transform="matrix(.28222 0 0 .28222 463.39 42.655)" style="fill:#ffffff">
       <path d="m362.49 693.6 9.2049-0.95336q0.39449 3.1231 2.3341 4.9641 1.9396 1.8081 4.4709 1.8081 2.893 0 4.8983-2.3341 2.0054-2.367 2.0054-7.1009 0-4.4381-2.0054-6.6407-1.9725-2.2355-5.1613-2.2355-3.9778 0-7.1338 3.5176l-7.4954-1.0849 4.7339-25.083h24.426v8.646h-17.424l-1.4465 8.1858q3.0902-1.5451 6.3119-1.5451 6.1475 0 10.421 4.4709 4.2737 4.4709 4.2737 11.605 0 5.9503-3.4518 10.618-4.7011 6.3777-13.051 6.3777-6.6735 0-10.881-3.5833-4.2079-3.5833-5.0298-9.6322z" style="stroke-width:4.1045px"/>
      </g>
      <g transform="matrix(.28222 0 0 .28222 463.39 42.655)" style="fill:#ffffff">
       <path d="m507.9 670.03-8.9419 0.98624q-0.32874-2.7615-1.7095-4.0764t-3.5833-1.315q-2.9258 0-4.9641 2.63-2.0053 2.63-2.5313 10.947 3.4518-4.0764 8.5803-4.0764 5.7859 0 9.8952 4.4052 4.1422 4.4052 4.1422 11.375 0 7.3968-4.3394 11.868t-11.144 4.4709q-7.2982 0-11.999-5.6544-4.7011-5.6873-4.7011-18.607 0-13.248 4.8983-19.1 4.8983-5.8517 12.722-5.8517 5.49 0 9.0734 3.0902 3.6162 3.0573 4.6024 8.909zm-20.941 20.152q0 4.5038 2.0711 6.9694 2.0711 2.4327 4.7339 2.4327 2.5642 0 4.2737-2.0054 1.7095-2.0053 1.7095-6.5749 0-4.7011-1.841-6.8708-1.841-2.2026-4.6024-2.2026-2.6628 0-4.5038 2.104-1.841 2.0711-1.841 6.1475z" style="stroke-width:4.1045px"/>
      </g>
      <g transform="matrix(.28222 0 0 .28222 463.39 42.655)" style="fill:#ffffff">
       <path d="m283.28 810.83h-9.2377v-34.814q-5.0627 4.7339-11.933 7.0023v-8.383q3.6162-1.1835 7.857-4.4709 4.2408-3.3203 5.8188-7.7255h7.4954z" style="stroke-width:4.1045px"/>
      </g>
      <g transform="matrix(.28222 0 0 .28222 463.39 42.655)" style="fill:#ffffff">
       <path d="m476.69 795.63 8.9419-1.0849q0.42737 3.419 2.3012 5.227t4.5367 1.8081q2.8601 0 4.7997-2.1697 1.9725-2.1697 1.9725-5.8517 0-3.4847-1.8738-5.5229t-4.5696-2.0382q-1.7752 0-4.2408 0.69037l1.0191-7.5283q3.7477 0.0986 5.7202-1.6109 1.9725-1.7424 1.9725-4.6024 0-2.4327-1.4465-3.8792t-3.8463-1.4465q-2.367 0-4.0436 1.6437t-2.0382 4.7997l-8.5145-1.4465q0.88761-4.3723 2.6628-6.9694 1.8081-2.63 4.9969-4.1093 3.2217-1.5122 7.1995-1.5122 6.805 0 10.914 4.3394 3.3861 3.5504 3.3861 8.0214 0 6.3448-6.9365 10.125 4.1422 0.88761 6.6078 3.9778 2.4985 3.0902 2.4985 7.4625 0 6.3448-4.6353 10.816-4.6353 4.4709-11.539 4.4709-6.542 0-10.849-3.7477-4.3066-3.7806-4.9969-9.8624z" style="stroke-width:4.1045px"/>
      </g>
      <g transform="matrix(.28222 0 0 .28222 463.39 42.655)" style="fill:#ffffff">
       <path d="m394.89 800.25v8.5803h-32.381q0.526-4.8654 3.156-9.2049 2.63-4.3723 10.388-11.572 6.2462-5.8188 7.6598-7.8899 1.9067-2.8601 1.9067-5.6544 0-3.0902-1.6766-4.7339-1.6437-1.6766-4.5696-1.6766-2.893 0-4.6024 1.7424t-1.9725 5.7859l-9.2049-0.92049q0.82187-7.6269 5.1613-10.947t10.849-3.3203q7.1338 0 11.21 3.8463 4.0764 3.8463 4.0764 9.5665 0 3.2546-1.1835 6.2133-1.1506 2.9258-3.682 6.1475-1.6766 2.1368-6.0489 6.1475t-5.5558 5.3257q-1.1506 1.315-1.8738 2.5642z" style="stroke-width:4.1045px"/>
      </g>
      <g transform="matrix(.28222 0 0 .28222 463.39 42.655)" style="fill:#ffffff">
       <path d="m272.7 864.03q7.0023 0 10.947 4.9969 4.7011 5.9174 4.7011 19.626 0 13.676-4.7339 19.659-3.9121 4.9312-10.914 4.9312-7.0352 0-11.342-5.3914-4.3066-5.4243-4.3066-19.297 0-13.61 4.7339-19.593 3.9121-4.9312 10.914-4.9312zm0 7.6598q-1.6766 0-2.9916 1.0849-1.315 1.052-2.0382 3.8134-0.95336 3.5833-0.95336 12.065 0 8.4816 0.85473 11.67 0.85474 3.156 2.1368 4.208 1.315 1.052 2.9916 1.052t2.9916-1.052q1.315-1.0849 2.0382-3.8463 0.95336-3.5504 0.95336-12.032t-0.85474-11.638q-0.85473-3.1888-2.1697-4.2408-1.2821-1.0849-2.9587-1.0849z" style="stroke-width:4.1045px"/>
      </g>
      <g transform="matrix(.28222 0 0 .28222 463.39 42.655)" style="fill:#ffffff">
       <path d="m475.85 883.58v-8.4816h33.696v8.4816zm0 14.596v-8.5145h33.696v8.5145z" style="stroke-width:4.1045px"/>
      </g>
      <g transform="matrix(.28222 0 0 .28222 463.39 42.655)" style="fill:#ffffff">
       <path d="m374.08 910.35v-9.2378h9.2378v9.2378z" style="stroke-width:4.1045px"/>
      </g>
      <g transform="matrix(.28222 0 0 .28222 463.39 42.655)" style="fill:#ffffff">
       <path d="m139.01 674.35q0-5.2224 2.2798-7.7409 2.3064-2.5184 6.2298-2.5184 4.056 0 6.3358 2.5184 2.3064 2.4919 2.3064 7.7409 0 5.2224-2.3064 7.7409-2.2798 2.5184-6.2033 2.5184-4.056 0-6.3624-2.4919-2.2798-2.5184-2.2798-7.7674zm5.8056-0.053q0 3.7909 0.87483 5.0899 0.66274 0.95435 1.8292 0.95435 1.1929 0 1.8557-0.95435 0.84831-1.299 0.84831-5.0899t-0.84831-5.0634q-0.66275-0.98086-1.8557-0.98086-1.1664 0-1.8292 0.95435-0.87483 1.299-0.87483 5.0899zm8.3771 30.804h-5.514l20.704-41.011h5.355zm12.035-10.206q0-5.2224 2.2798-7.7409 2.3064-2.5184 6.2828-2.5184 4.003 0 6.2828 2.5184 2.3064 2.5184 2.3064 7.7409 0 5.249-2.3064 7.7674-2.2798 2.5184-6.2033 2.5184-4.056 0-6.3624-2.5184-2.2798-2.5184-2.2798-7.7674zm5.8056-0.0265q0 3.7909 0.87482 5.0634 0.66275 0.98086 1.8292 0.98086 1.1929 0 1.8292-0.95435 0.87482-1.299 0.87482-5.0899t-0.84831-5.0899q-0.66275-0.95435-1.8557-0.95435t-1.8292 0.95435q-0.87482 1.299-0.87482 5.0899z" style="stroke-width:4.1045px"/>
      </g>
      <g transform="matrix(.28222 0 0 .28222 463.39 42.655)" style="fill:#ffffff">
       <path d="m169.21 793.33 6.9528 2.2046q-1.5989 5.8142-5.3297 8.6486-3.7066 2.8102-9.4239 2.8102-7.074 0-11.628-4.821-4.5545-4.8452-4.5545-13.227 0-8.8667 4.5787-13.76 4.5787-4.9179 12.04-4.9179 6.5168 0 10.587 3.8519 2.4226 2.2772 3.6339 6.541l-7.0982 1.6958q-0.62987-2.7618-2.6406-4.3607-1.9865-1.5989-4.8452-1.5989-3.9488 0-6.4199 2.8344-2.4468 2.8344-2.4468 9.1816 0 6.7348 2.4226 9.5935t6.2987 2.8587q2.8587 0 4.9179-1.8169 2.0592-1.817 2.9556-5.7173z" style="stroke-width:4.1045px"/>
      </g>
      <g transform="matrix(.28222 0 0 .28222 463.39 42.655)" style="fill:#ffffff">
       <path d="m161.64 906.28h-6.8714l-2.7315-7.1061h-12.505l-2.5821 7.1061h-6.7007l12.185-31.284h6.6793zm-11.63-12.377-4.3106-11.609-4.2253 11.609z" style="stroke-width:4.1045px"/>
       <path d="m185.03 894.77 6.1245 1.9419q-1.4084 5.1215-4.6947 7.6183-3.265 2.4754-8.3011 2.4754-6.2312 0-10.243-4.2466-4.0119-4.2679-4.0119-11.651 0-7.8103 4.0332-12.121 4.0332-4.332 10.606-4.332 5.7404 0 9.3254 3.393 2.134 2.0059 3.201 5.7617l-6.2525 1.4938q-0.55484-2.4327-2.326-3.8412-1.7499-1.4084-4.2679-1.4084-3.4784 0-5.655 2.4968-2.1553 2.4967-2.1553 8.0878 0 5.9324 2.134 8.4505t5.5483 2.5181q2.5181 0 4.332-1.6005t2.6034-5.0362z" style="stroke-width:4.1045px"/>
      </g>
      <g transform="matrix(.28222 0 0 .28222 463.39 42.655)" style="fill:#ffffff">
       <path d="m461.86 397.17q0-2.3386 0.69948-3.9254 0.522-1.1693 1.4198-2.0984 0.90828-0.92916 1.9836-1.3781 1.4303-0.60552 3.299-0.60552 3.3826 0 5.4079 2.0984 2.0358 2.0984 2.0358 5.836 0 3.7062-2.0149 5.8046-2.0149 2.088-5.387 2.088-3.4139 0-5.4288-2.0776-2.0149-2.088-2.0149-5.742zm3.1842-0.1044q0 2.5996 1.2006 3.9463 1.2006 1.3363 3.0485 1.3363t3.0276-1.3259q1.1902-1.3363 1.1902-3.9985 0-2.6309-1.1588-3.9254-1.1484-1.2946-3.0589-1.2946t-3.0798 1.3154q-1.1693 1.305-1.1693 3.9463z" style="stroke-width:4.1045px"/>
       <path d="m479.17 404.73v-15.305h10.492v2.5891h-7.402v3.6227h6.3893v2.5891h-6.3893v6.5041z" style="stroke-width:4.1045px"/>
       <path d="m492.24 404.73v-15.305h10.492v2.5891h-7.402v3.6227h6.3893v2.5891h-6.3893v6.5041z" style="stroke-width:4.1045px"/>
      </g>
     </g>
    </g>
   </g>
  </g>
 </g>
</svg>
